<?xml version="1.0"?>
<svg xmlns="http://www.w3.org/2000/svg" xmlns:xlink="http://www.w3.org/1999/xlink" version="1.1" id="Layer_1" x="0px" y="0px" viewBox="0 0 490 490" style="enable-background:new 0 0 490 490;" xml:space="preserve" width="512px" height="512px" class=""><g><g transform="translate(0 -540.36)">
	<g>
		<g>
			<path d="M323.2,793.66c-3.8,3.9-3.7,10.2,0.2,14.1l21.7,21.2c2,2,4.5,2.9,7,2.9v0c2.6,0,5.2-1,7.1-3.1c3.8-3.9,3.7-10.2-0.2-14.1     l-21.7-21.2C333.4,789.66,327.1,789.76,323.2,793.66z" data-original="#000000" class="active-path" data-old_color="#000000" fill="#FFFFFF"/>
			<path d="M152.7,793.56l-21.7,21.2c-4,3.8-4.1,10.2-0.2,14.1c1.9,2,4.5,3,7.1,3c2.6,0,5.1-1,7-2.8l21.7-21.2     c4-3.8,4.1-10.2,0.2-14.1C163,789.76,156.6,789.66,152.7,793.56z" data-original="#000000" class="active-path" data-old_color="#000000" fill="#FFFFFF"/>
			<path d="M330.4,622.36L330.4,622.36c2.5,0,4.9-0.9,6.8-2.7l21.7-20.4c4-3.8,4.2-10.1,0.4-14.1c-3.8-4-10.1-4.2-14.1-0.4     l-21.7,20.4c-4,3.8-4.2,10.1-0.4,14.1C325.1,621.26,327.7,622.36,330.4,622.36z" data-original="#000000" class="active-path" data-old_color="#000000" fill="#FFFFFF"/>
			<path d="M152.7,619.66c2,1.8,4.4,2.7,6.9,2.7v0c2.6,0,5.3-1.1,7.2-3.1c3.8-4,3.6-10.3-0.4-14.1l-21.7-20.4     c-4-3.8-10.3-3.6-14.1,0.4s-3.6,10.3,0.4,14.1L152.7,619.66z" data-original="#000000" class="active-path" data-old_color="#000000" fill="#FFFFFF"/>
			<path d="M235,832.86v30.6c0,5.5,4.5,10,10,10s10-4.5,10-10v-30.6c0-5.5-4.5-10-10-10S235,827.36,235,832.86z" data-original="#000000" class="active-path" data-old_color="#000000" fill="#FFFFFF"/>
			<path d="M245,590.96c5.5,0,10-4.5,10-10v-30.6c0-5.5-4.5-10-10-10s-10,4.5-10,10v30.6C235,586.46,239.5,590.96,245,590.96z" data-original="#000000" class="active-path" data-old_color="#000000" fill="#FFFFFF"/>
			<path d="M405,696.86h-31.3c-5.5,0-10,4.5-10,10s4.5,10,10,10H405c5.5,0,10-4.5,10-10S410.5,696.86,405,696.86z" data-original="#000000" class="active-path" data-old_color="#000000" fill="#FFFFFF"/>
			<path d="M116.3,696.86H85c-5.5,0-10,4.5-10,10s4.5,10,10,10h31.3c5.5,0,10-4.5,10-10S121.8,696.86,116.3,696.86z" data-original="#000000" class="active-path" data-old_color="#000000" fill="#FFFFFF"/>
			<path d="M177.5,773.86c17.9,18,41.7,28,67.1,28c52.6,0,95.4-42.8,95.4-95.4c0-25.4-9.9-49.3-28-67.1     c-18-17.7-41.9-27.5-67.4-27.5c-25.4,0-49.2,9.8-67,27.6c-17.8,17.7-27.6,41.6-27.6,67C150,731.96,159.7,755.86,177.5,773.86z      M244.6,631.86c41.6,0,75.4,33.5,75.4,74.6c0,41.6-33.8,75.4-75.4,75.4c-41.1,0-74.6-33.8-74.6-75.4     C170,664.66,202.8,631.86,244.6,631.86z" data-original="#000000" class="active-path" data-old_color="#000000" fill="#FFFFFF"/>
			<path d="M159.7,895.76h-0.1c-3.2,0-6.2,1.5-8.1,4.1c-5.6,7.6-23.6,33.6-23.6,47.5c0,17.2,14.2,31.2,31.7,31.2     c17,0,30.8-14,30.9-31.2c0-13.8-17.4-39.7-22.7-47.3C166,897.36,162.9,895.76,159.7,895.76z M159.6,958.56     c-6.6,0-11.7-4.9-11.7-11.2c0-3.3,4.9-13,11.5-23.5c6.4,10.6,11,20.2,11.1,23.5C170.5,953.46,165.5,958.56,159.6,958.56z" data-original="#000000" class="active-path" data-old_color="#000000" fill="#FFFFFF"/>
			<path d="M330.4,895.76c-3.2,0-6.2,1.5-8.1,4.1c-5.6,7.6-23.6,33.6-23.6,47.5c0,17.2,14.2,31.2,31.7,31.2s31.7-14,31.7-31.2     c0-14-18.1-39.9-23.6-47.5C336.6,897.26,333.6,895.76,330.4,895.76z M330.4,958.66c-6.6,0-11.7-4.9-11.7-11.2     c0.1-3.4,5-13.2,11.7-23.8c6.7,10.6,11.6,20.4,11.7,23.8C342.1,953.76,337,958.66,330.4,958.66z" data-original="#000000" class="active-path" data-old_color="#000000" fill="#FFFFFF"/>
			<path d="M244.5,947.56c-3.3,0.1-6.4,1.7-8.2,4.4c-5.3,7.8-22.6,34.2-22.6,48c0,16.5,14.2,30.4,30.9,30.4v0     c17.5,0,31.7-13.6,31.7-30.5c0-13.8-18-40.3-23.5-48.1C250.9,949.06,247.8,947.46,244.5,947.56z M244.7,1010.36     c-5.7,0-10.9-5-10.9-10.4c0-3.4,4.6-13.2,11-24c6.6,10.8,11.4,20.6,11.6,24C256.4,1005.56,251,1010.36,244.7,1010.36z" data-original="#000000" class="active-path" data-old_color="#000000" fill="#FFFFFF"/>
		</g>
	</g>
</g></g> </svg>
