<?xml version="1.0"?>
<svg xmlns="http://www.w3.org/2000/svg" height="512px" viewBox="-13 0 512 512" width="512px"><g><path d="m258.574219 378.539062h-258.574219v30.007813h258.574219c20.25 0 36.722656 16.472656 36.722656 36.722656 0 20.246094-16.472656 36.71875-36.722656 36.71875-20.246094 0-36.71875-16.472656-36.71875-36.71875h-30.011719c0 36.792969 29.933594 66.730469 66.730469 66.730469s66.730469-29.9375 66.730469-66.730469c0-36.796875-29.933594-66.730469-66.730469-66.730469zm0 0" data-original="#000000" class="active-path" data-old_color="#000000" fill="#FFFFFF"/><path d="m485.472656 318.777344-18.347656-23.746094c-23.414062 18.085938-51.425781 27.644531-81.007812 27.644531h-386.117188v30.011719h258.574219c51.050781 0 92.582031 41.53125 92.582031 92.582031h30.007812c0-36.925781-16.40625-70.089843-42.316406-92.582031h47.269532c36.28125 0 70.640624-11.726562 99.355468-33.910156zm0 0" data-original="#000000" class="active-path" data-old_color="#000000" fill="#FFFFFF"/><path d="m162.8125 295.335938h233.949219c41.957031 0 76.085937-34.132813 76.085937-76.089844 0-41.953125-34.128906-76.082032-76.085937-76.082032h-.308594c-6.140625-37.996093-37.347656-67.703124-76.054687-71.546874-6.949219-40.609376-42.40625-71.617188-84.96875-71.617188h-1.417969c-47.535157 0-86.203125 38.671875-86.203125 86.203125v23.117187c-42.675782 7.167969-75.296875 44.375-75.296875 89.054688v6.65625c0 49.792969 40.507812 90.304688 90.300781 90.304688zm-60.289062-96.957032c0-33.246094 27.046874-60.292968 60.289062-60.292968h15.003906v-51.882813c0-30.984375 25.210938-56.191406 56.195313-56.191406h1.417969c30.984374 0 56.191406 25.207031 56.191406 56.191406v15.003906h20.242187c30.703125 0 55.679688 24.976563 55.679688 55.679688v16.285156h29.21875c25.40625 0 46.078125 20.671875 46.078125 46.074219 0 25.40625-20.671875 46.078125-46.078125 46.078125h-233.949219c-33.242188 0-60.289062-27.046875-60.289062-60.292969zm0 0" data-original="#000000" class="active-path" data-old_color="#000000" fill="#FFFFFF"/></g> </svg>
