<?xml version="1.0"?>
<svg xmlns="http://www.w3.org/2000/svg" height="512px" viewBox="-21 -17 545 545.33539" width="512px"><g><path d="m319.398438 374.917969h-251.363282c-37.585937 0-68.167968-30.578125-68.167968-68.164063 0-37.59375 30.582031-68.167968 68.167968-68.167968 6.019532 0 11.945313.789062 17.703125 2.359374 5.140625-39.730468 39.179688-70.527343 80.289063-70.527343 28.476562 0 54.1875 14.566406 68.863281 38.519531 7.96875-2.949219 16.296875-4.4375 24.859375-4.4375 35.769531 0 65.90625 26.253906 71.4375 60.945312 24.949219 5.476563 43.59375 27.992188 43.59375 54.085938 0 30.535156-24.84375 55.386719-55.382812 55.386719zm-251.363282-119.292969c-28.191406 0-51.125 22.9375-51.125 51.128906 0 28.1875 22.933594 51.121094 51.125 51.121094h251.363282c21.148437 0 38.34375-17.199219 38.34375-38.34375 0-19.71875-15.386719-36.484375-35.023438-38.171875-4.203125-.359375-7.503906-3.746094-7.769531-7.957031-1.824219-29.082032-26.070313-51.863282-55.199219-51.863282-8.625 0-16.96875 1.992188-24.777344 5.910157-2.039062 1.027343-4.394531 1.191406-6.558594.457031-2.15625-.734375-3.933593-2.300781-4.925781-4.351562-10.808593-22.269532-32.824219-36.09375-57.460937-36.09375-35.242188 0-63.910156 28.664062-63.910156 63.902343.007812.117188.078124 1.210938.082031 1.328125.09375 2.972656-1.371094 5.777344-3.859375 7.402344-2.480469 1.632812-5.640625 1.835938-8.332032.554688-6.992187-3.335938-14.375-5.023438-21.972656-5.023438zm0 0" data-original="#000000" class="active-path" data-old_color="#000000" fill="#FFFFFF"/><path d="m447.210938 178.9375h-153.375c-35.242188 0-63.90625-28.664062-63.90625-63.90625s28.664062-63.90625 63.90625-63.90625c5.265624 0 10.445312.636719 15.476562 1.894531 8.570312-30.839843 36.945312-53.019531 69.730469-53.019531 38.5625 0 70.179687 30.289062 72.3125 68.316406 28.613281 2.132813 51.242187 26.089844 51.242187 55.238282 0 30.535156-24.847656 55.382812-55.386718 55.382812zm-153.375-110.769531c-25.835938 0-46.863282 21.023437-46.863282 46.863281s21.027344 46.863281 46.863282 46.863281h153.375c21.144531 0 38.347656-17.199219 38.347656-38.339843 0-21.144532-17.203125-38.347657-38.347656-38.347657-1.25 0-2.476563.078125-3.691407.191407-2.496093.222656-4.953125-.644532-6.742187-2.378907-1.789063-1.746093-2.722656-4.191406-2.554688-6.675781.125-1.804688.207032-2.851562.207032-3.914062 0-30.542969-24.84375-55.390626-55.386719-55.390626-27.71875 0-51.296875 20.726563-54.871094 48.214844-.339844 2.652344-1.90625 4.988282-4.230469 6.3125-2.320312 1.324219-5.15625 1.472656-7.582031.417969-5.875-2.53125-12.105469-3.816406-18.523437-3.816406zm0 0" data-original="#000000" class="active-path" data-old_color="#000000" fill="#FFFFFF"/><path d="m281.050781 417.523438c0 9.410156-7.625 17.039062-17.039062 17.039062-9.410157 0-17.039063-7.628906-17.039063-17.039062 0-9.417969 7.628906-17.046876 17.039063-17.046876 9.414062 0 17.039062 7.628907 17.039062 17.046876zm0 0" data-original="#000000" class="active-path" data-old_color="#000000" fill="#FFFFFF"/><path d="m425.90625 230.0625c0 9.410156-7.628906 17.039062-17.039062 17.039062-9.410157 0-17.039063-7.628906-17.039063-17.039062s7.628906-17.039062 17.039063-17.039062c9.410156 0 17.039062 7.628906 17.039062 17.039062zm0 0" data-original="#000000" class="active-path" data-old_color="#000000" fill="#FFFFFF"/><path d="m119.160156 434.5625c0 9.410156-7.628906 17.039062-17.042968 17.039062-9.410157 0-17.042969-7.628906-17.042969-17.039062s7.632812-17.039062 17.042969-17.039062c9.414062 0 17.042968 7.628906 17.042968 17.039062zm0 0" data-original="#000000" class="active-path" data-old_color="#000000" fill="#FFFFFF"/><path d="m221.410156 494.207031c0 9.414063-7.632812 17.042969-17.042968 17.042969-9.414063 0-17.039063-7.628906-17.039063-17.042969 0-9.410156 7.625-17.039062 17.039063-17.039062 9.410156 0 17.042968 7.628906 17.042968 17.039062zm0 0" data-original="#000000" class="active-path" data-old_color="#000000" fill="#FFFFFF"/></g> </svg>
