<svg height="481pt" viewBox="0 -31 481.29999 481" width="481pt" xmlns="http://www.w3.org/2000/svg"><path d="m481.300781 182.515625c0-48.6875-107.742187-88.152344-240.652343-88.152344-132.90625 0-240.648438 39.464844-240.648438 88.152344s107.742188 88.15625 240.648438 88.15625c132.910156 0 240.652343-39.46875 240.652343-88.15625zm0 0" fill="#ffd551"/><path d="m296.648438 258.671875c-132.90625 0-240.648438-39.46875-240.648438-88.15625 0-28.195313 36.136719-53.296875 92.371094-69.4375-87.109375 13.261719-148.371094 44.726563-148.371094 81.4375 0 48.6875 107.742188 88.15625 240.648438 88.15625 55.9375 0 107.414062-6.992187 148.28125-18.71875-28.421876 4.324219-59.585938 6.71875-92.28125 6.71875zm0 0" fill="#ffc34c"/><path d="m389.386719 125.886719c-14.726563-71.863281-75.726563-125.738281-148.738281-125.738281-73.011719 0-134.007813 53.875-148.734376 125.738281-.675781 3.292969-.761718 6.546875-.351562 9.660156-.410156 1.78125-.328125 3.648437.347656 5.527344 14.730469 41.089843 75.726563 71.894531 148.738282 71.894531 73.011718 0 134.011718-30.804688 148.738281-71.894531.675781-1.878907.761719-3.734375.355469-5.519531.40625-3.117188.320312-6.371094-.355469-9.667969zm0 0" fill="#ffd551"/><path d="m147.910156 141.078125c-.675781-1.882813-.757812-3.746094-.347656-5.527344-.410156-3.117187-.324219-6.371093.351562-9.660156 12.796876-62.449219 60.539063-111.289063 120.738282-123.023437-9.078125-1.769532-18.433594-2.714844-28-2.714844-73.011719 0-134.011719 53.875-148.738282 125.738281-.675781 3.289063-.761718 6.542969-.351562 9.660156-.410156 1.78125-.328125 3.644531.347656 5.527344 14.730469 41.089844 75.726563 71.890625 148.738282 71.890625 9.570312 0 18.921874-.539062 28-1.554688-60.195313-6.707031-107.941407-34.628906-120.738282-70.335937zm0 0" fill="#ffc34c"/><path d="m389.386719 125.886719c-1.292969-6.316407-2.964844-12.484375-4.949219-18.496094-20.609375 35.6875-77.195312 61.320313-143.789062 61.320313s-123.175782-25.632813-143.785157-61.316407c-1.988281 6.011719-3.65625 12.179688-4.953125 18.492188-.671875 3.292969-.757812 6.546875-.351562 9.660156-.410156 1.78125-.324219 3.648437.351562 5.527344 14.726563 41.089843 75.726563 71.894531 148.738282 71.894531 73.011718 0 134.007812-30.804688 148.738281-71.894531.671875-1.878907.757812-3.734375.351562-5.519531.410157-3.117188.324219-6.371094-.351562-9.667969zm0 0" fill="#fff4c1"/><path d="m153.132812 152.109375c-25.828124-10.90625-45.746093-26.492187-56.269531-44.714844-.027343.089844-.054687.183594-.085937.277344-.753906 2.300781-1.453125 4.628906-2.113282 6.976563-.300781 1.078124-.597656 2.15625-.878906 3.246093-.191406.742188-.382812 1.484375-.5625 2.230469-.464844 1.910156-.910156 3.828125-1.308594 5.765625-.339843 1.644531-.527343 3.28125-.582031 4.894531-.054687 1.613282.027344 3.207032.230469 4.765625-.203125.890625-.285156 1.800781-.234375 2.726563.054687.921875.246094 1.859375.582031 2.800781 14.730469 41.09375 75.726563 71.890625 148.738282 71.890625.179687 0 .355468-.003906.53125-.003906 2.179687-.003906 4.351562-.03125 6.507812-.089844.363281-.011719.71875-.03125 1.082031-.042969 2.011719-.0625 4.015625-.140625 6.003907-.253906.148437-.007813.292968-.019531.441406-.027344 4.53125-.261719 9.011718-.640625 13.421875-1.128906h.011719c-53.839844-6.007813-97.691407-28.984375-115.515626-59.3125zm0 0" fill="#fce575"/><path d="m196.511719 126.152344c0 9.941406-8.0625 18-18 18-9.941407 0-18-8.058594-18-18s8.058593-18 18-18c9.9375 0 18 8.058594 18 18zm0 0" fill="#ffc34c"/><path d="m446.648438 364.339844h-22v-40h22c3.316406 0 6 2.683594 6 6v28c0 3.3125-2.683594 6-6 6zm0 0" fill="#f9bb32"/><path d="m446.648438 364.339844h-22v-40h22c3.316406 0 6 2.683594 6 6v28c0 3.3125-2.683594 6-6 6zm0 0" fill="#f9bb32"/><path d="m452.648438 330.339844c0-3.316406-2.683594-6-6-6h-22v40h14.109374l13.890626-31.1875zm0 0" fill="#db9c2e"/><path d="m56.648438 364.339844h-22c-3.3125 0-6-2.6875-6-6v-28c0-3.316406 2.6875-6 6-6h22zm0 0" fill="#f9bb32"/><path d="m44.648438 358.339844v-28c0-3.316406 2.6875-6 6-6h-16c-3.3125 0-6 2.683594-6 6v28c0 3.3125 2.6875 6 6 6h16c-3.3125 0-6-2.6875-6-6zm0 0" fill="#db9c2e"/><path d="m32.292969 314.394531 36.847656 82.707031c5.996094 13.457032 20.136719 22.238282 35.816406 22.238282h105.445313c9.515625 0 17.226562-7.164063 17.226562-16v-84c0-8.835938-7.710937-16-17.226562-16h-170.148438c-6.136718 0-10.308594 5.789062-7.960937 11.054687zm0 0" fill="#bf6c0d"/><path d="m210.402344 409.339844c-3.3125 0-6-2.6875-6-6 0-1.371094.457031-2.628906 1.226562-3.636719v-20.933594c-.738281-.992187-1.171875-2.214843-1.171875-3.539062 0-3.3125 2.632813-6 5.945313-6 1.019531 0 1.9375.105469 2.734375.3125 2.644531.6875 4.492187 3.078125 4.492187 5.808593v27.867188c0 2.734375-1.847656 5.121094-4.492187 5.808594-.796875.207031-1.714844.3125-2.734375.3125zm.113281-28.105469h.019531zm0 0" fill="#e58d23"/><path d="m449.007812 314.394531-36.851562 82.707031c-5.996094 13.457032-20.132812 22.238282-35.8125 22.238282h-105.449219c-9.511719 0-17.222656-7.164063-17.222656-16v-84c0-8.835938 7.710937-16 17.222656-16h170.152344c6.140625 0 10.308594 5.789062 7.960937 11.054687zm0 0" fill="#bf6c0d"/><path d="m397.539062 396.59375c-.816406 0-1.644531-.167969-2.4375-.523438-3.027343-1.347656-4.386718-4.894531-3.039062-7.921874l31.746094-71.253907c1.347656-3.027343 4.898437-4.382812 7.921875-3.039062 3.027343 1.347656 4.386719 4.898437 3.039062 7.921875l-31.746093 71.253906c-.992188 2.234375-3.183594 3.5625-5.484376 3.5625zm0 0" fill="#e58d23"/><path d="m125.140625 397.101562-36.847656-82.707031c-2.347657-5.265625 1.820312-11.054687 7.957031-11.054687h-56c-6.136719 0-10.304688 5.789062-7.957031 11.054687l36.847656 82.707031c5.996094 13.457032 20.132813 22.238282 35.816406 22.238282h56c-15.683593 0-29.820312-8.777344-35.816406-22.238282zm0 0" fill="#a56021"/><path d="m309.671875 403.339844v-84c0-8.835938 7.710937-16 17.222656-16h-56c-9.511719 0-17.222656 7.164062-17.222656 16v84c0 8.835937 7.710937 16 17.222656 16h56c-9.511719 0-17.222656-7.164063-17.222656-16zm0 0" fill="#a56021"/><path d="m264.984375 354.339844h-52.667969c-4.230468 0-7.664062-3.433594-7.664062-7.667969v-2.664063c0-4.234374 3.433594-7.667968 7.664062-7.667968h52.667969c4.234375 0 7.664063 3.433594 7.664063 7.667968v2.664063c0 4.234375-3.429688 7.667969-7.664063 7.667969zm0 0" fill="#f9bb32"/><path d="m228.648438 346.671875v-2.667969c0-4.234375 3.433593-7.664062 7.667968-7.664062h-24c-4.234375 0-7.667968 3.429687-7.667968 7.664062v2.667969c0 4.230469 3.433593 7.664063 7.667968 7.664063h24c-4.234375.003906-7.667968-3.429688-7.667968-7.664063zm0 0" fill="#db9c2e"/><path d="m172.050781 390.117188c0 9.941406-8.058593 18-18 18-9.941406 0-18-8.058594-18-18 0-9.941407 8.058594-18 18-18 9.941407 0 18 8.058593 18 18zm0 0" fill="#a56021"/><path d="m465.089844 159.09375c4.824218-.984375 7.828125-6.292969 5.675781-11.105469l-3.84375-8.59375-4.945313-11.042969c-2.132812-4.773437-6.078124-8.503906-10.960937-10.371093l-1.132813-.429688c-7.222656-2.757812-10.839843-10.851562-8.085937-18.074219l.433594-1.128906c1.867187-4.882812 1.714843-10.308594-.421875-15.082031l-8.785156-19.640625c-2.445313-5.464844-9.804688-6.402344-13.546876-1.734375-7.496093 5.609375-39.535156 31.097656-52.808593 66.078125l-.429688.542969 5.820313 13.011719 5.824218 13.015624c39.847657 15.703126 87.199219 4.554688 87.207032 4.554688zm0 0" fill="#ff9079"/><path d="m427.160156 152.925781c-5.152344 0-10.601562-.234375-16.175781-.816406-3.292969-.34375-5.6875-3.292969-5.34375-6.589844s3.3125-5.671875 6.589844-5.34375c15.253906 1.589844 29.574219.359375 38.902343-.957031 3.292969-.457031 6.316407 1.824219 6.78125 5.105469.464844 3.28125-1.820312 6.316406-5.105468 6.78125-6.609375.929687-15.574219 1.820312-25.648438 1.820312zm0 0" fill="#ffd59a"/><path d="m404.691406 155.691406-5.820312-13.015625-5.824219-13.015625.429687-.539062c9.867188-25.996094 30.085938-46.742188 42.90625-57.988282l-3.359374-7.507812c-2.445313-5.464844-9.800782-6.402344-13.542969-1.734375-7.496094 5.609375-39.539063 31.097656-52.808594 66.078125l-.433594.542969 5.824219 13.011719 5.820312 13.015624c18.800782 7.410157 39.269532 8.839844 55.652344 8.285157-9.550781-1.214844-19.40625-3.414063-28.84375-7.132813zm0 0" fill="#ff624b"/><path d="m360.089844 126.324219c-4.261719-1.375-8.570313-2.492188-12.871094-3.359375-.292969-.0625-.585938-.109375-.878906-.164063-.984375-.191406-1.964844-.382812-2.949219-.550781-.132813-.023438-.265625-.039062-.398437-.0625-31.429688-5.28125-61.074219 1.109375-63.746094 1.710938-.125.03125-.214844.050781-.214844.050781-4.824219.984375-7.828125 6.292969-5.675781 11.101562l3.84375 8.59375 4.941406 11.046875c2.136719 4.773438 6.082031 8.503906 10.964844 10.367188l1.128906.433594c7.226563 2.757812 10.84375 10.847656 8.085937 18.070312l-.429687 1.132812c-1.867187 4.882813-1.714844 10.308594.421875 15.082032l8.785156 19.636718c2.445313 5.464844 9.800782 6.40625 13.542969 1.738282 7.496094-5.609375 39.539063-31.101563 52.8125-66.082032l.429687-.539062-5.824218-13.011719-5.820313-13.015625c-2.03125-.800781-4.085937-1.515625-6.148437-2.179687zm0 0" fill="#ff9079"/><path d="m391.410156 162.09375-16.910156 7.566406c-4.148438 1.855469-9.015625-.003906-10.871094-4.148437l-14.652344-32.75c-1.855468-4.148438 0-9.015625 4.148438-10.871094l16.914062-7.566406c4.148438-1.855469 9.015626 0 10.871094 4.148437l14.652344 32.75c1.855469 4.148438-.003906 9.015625-4.152344 10.871094zm0 0" fill="#ff624b"/><path d="m335.230469 200.453125.433593-1.132813c2.757813-7.222656-.863281-15.3125-8.085937-18.070312l-1.128906-.433594c-4.886719-1.863281-8.832031-5.59375-10.964844-10.367187l-4.941406-11.046875-3.84375-8.59375c-2.152344-4.808594.847656-10.121094 5.675781-11.101563 0 0 .085938-.019531.214844-.050781 2.492187-.558594 28.46875-6.160156 57.46875-2.617188l-3.820313-8.535156c-2.03125-.800781-4.085937-1.515625-6.148437-2.183594-4.261719-1.375-8.570313-2.492187-12.871094-3.359374-.292969-.058594-.585938-.105469-.875-.164063-.984375-.191406-1.96875-.382813-2.949219-.550781-.132812-.019532-.265625-.039063-.402343-.058594-31.425782-5.28125-61.070313 1.109375-63.742188 1.710938-.128906.03125-.214844.050781-.214844.050781-4.828125.980469-7.828125 6.289062-5.675781 11.101562l3.84375 8.59375 4.941406 11.046875c2.136719 4.769532 6.078125 8.5 10.964844 10.367188l1.128906.429687c7.222657 2.757813 10.839844 10.851563 8.085938 18.074219l-.433594 1.128906c-1.863281 4.882813-1.710937 10.3125.421875 15.085938l8.789062 19.636718c2.441407 5.464844 9.800782 6.402344 13.542969 1.734376 1.949219-1.457032 5.570313-4.273438 10.078125-8.242188-1.171875-4.074219-1.023437-8.445312.507813-12.453125zm0 0" fill="#ff624b"/><path d="m368.484375 137.179688c-1.855469-4.148438 0-9.015626 4.148437-10.871094l9.820313-4.394532-1.542969-3.441406c-1.855468-4.148437-6.722656-6.003906-10.871094-4.148437l-16.910156 7.566406c-4.148437 1.855469-6.007812 6.722656-4.152344 10.871094l14.652344 32.75c1.855469 4.148437 6.726563 6.007812 10.875 4.148437l7.09375-3.171875zm0 0" fill="#ff4b34"/></svg>