<?xml version="1.0" encoding="iso-8859-1"?>
<!-- Generator: Adobe Illustrator 19.0.0, SVG Export Plug-In . SVG Version: 6.00 Build 0)  -->
<svg version="1.1" id="Capa_1" xmlns="http://www.w3.org/2000/svg" xmlns:xlink="http://www.w3.org/1999/xlink" x="0px" y="0px"
	 viewBox="0 0 497.638 497.638" style="enable-background:new 0 0 497.638 497.638;" xml:space="preserve">
<g transform="matrix(1.25 0 0 -1.25 0 45)">
	<g>
		<g>
			<path style="fill:#2B7BB9;" d="M252.556,0.201c-0.262-5.928-8.431-10.388-18.25-9.956c-9.83,0.432-17.579,5.586-17.317,11.514
				s8.431,10.377,18.25,9.956C245.058,11.283,252.818,6.128,252.556,0.201"/>
			<g>
				<path style="fill:#292F33;" d="M332.417-257.552c0,0,40.084-15.758,58.994-1.013c1.422,13.323-37.672,23.165-37.672,23.165
					L332.417-257.552z"/>
				<path style="fill:#292F33;" d="M78.647-232.623c0,0-59.802-89.042-76.88-73.751c0,0-4.847,15.895,13.995,47.991
					S78.647-232.623,78.647-232.623"/>
			</g>
			<g>
				<path style="fill:#1C6399;" d="M217.9,3.227c0,0-97.132-4.892-156.274-186.004c85.276,0,190.976-6.303,190.976-6.303
					s88.735-45.318,101.137-50.847c12.39-5.541,37.672-18.625,37.672-18.625s12.39,62.919,3.47,110.251
					C385.961-100.982,343.328,1.213,217.9,3.227"/>
				<path style="fill:#1C6399;" d="M31.168-228.277c-20.855-34.611-36.591-66.23-29.4-78.097c0,0-2.31,8.658,8.818,18.58
					c10.149,9.057,31.915,17.328,73.512,17.328c62.965,0,147.979-51.177,183.398-63.295c27.022-9.239,32.711-2.128,47.639,14.222
					c15.94,17.453,42.28,78.564,42.28,78.564s-84.981,46.729-135.054,65.138c-50.074,18.421-60.962,16.236-76.823,15.94
					c-34.77-0.649-60.45-7.623-83.911-22.881C61.626-182.777,44.627-205.953,31.168-228.277"/>
			</g>
			<path style="fill:#50A5E6;" d="M341.03-70.945c-6.94,39.174-45.636,57.754-45.636,57.754
				C273.833-3.144,248.085,3.295,217.297,3.773c0,0-138.718,1.195-155.659-186.539c0,0,28.911,12.686,90.101,9.011
				c83.046-4.972,163.999-46.842,181.897-54.75C343.078-196.874,349.188-117.013,341.03-70.945"/>
		</g>
	</g>
</g>
<g>
</g>
<g>
</g>
<g>
</g>
<g>
</g>
<g>
</g>
<g>
</g>
<g>
</g>
<g>
</g>
<g>
</g>
<g>
</g>
<g>
</g>
<g>
</g>
<g>
</g>
<g>
</g>
<g>
</g>
</svg>
