<?xml version="1.0" encoding="iso-8859-1"?>
<!-- Generator: Adobe Illustrator 19.0.0, SVG Export Plug-In . SVG Version: 6.00 Build 0)  -->
<svg version="1.1" id="Capa_1" xmlns="http://www.w3.org/2000/svg" xmlns:xlink="http://www.w3.org/1999/xlink" x="0px" y="0px"
	 viewBox="0 0 510.128 510.128" style="enable-background:new 0 0 510.128 510.128;" xml:space="preserve">
<g transform="matrix(1.25 0 0 -1.25 0 45)">
	<g>
		<g>
			<path style="fill:#A0041E;" d="M142.981,14.605c-11.378-11.378-29.309-57.23-34.133-91.022
				c-11.378-79.644-11.378-204.8-11.378-204.8s22.756-11.378,45.511-11.378s11.378-11.378,68.267-11.378
				c0,0-21.504,260.779,11.378,307.2C242.764,31.661,154.359,25.983,142.981,14.605"/>
			<path style="fill:#DD2E44;" d="M113.501-27.834C87.719-42.693,79.55-65.381,74.714-99.173
				c-11.378-79.644-11.378-204.8-11.378-204.8s22.756-11.378,45.511-11.378s11.378-11.378,68.267-11.378
				c0,0-22.756,261.689,11.378,307.2S127.439-19.801,113.501-27.834"/>
			<path style="fill:#A0041E;" d="M148.465-11.268c0,0-30.14-13.79-34.975-16.566C97.299-37.164,88.06-49.6,82.223-65.915
				c21.436-8.818,59.221-12.413,90.806-13.528c0.102,1.104,18.068,12.504,18.068,12.504l0.011,51.12L148.465-11.268z"/>
			<path style="fill:#DD2E44;" d="M324.82,18.701c-10.32,31.391-72.272,10.468-113.573,10.468
				c-42.007,0-102.582,20.924-113.084-10.468C87.662-12.701,45.655-44.093,108.665-54.56
				c63.022-10.468,102.582-10.468,102.582-10.468s41.301,0,103.253,10.468C376.441-44.093,335.14-12.701,324.82,18.701"/>
			<path style="fill:#A0041E;" d="M295.272,27.462c-10.502,0-42.018-8.545-84.025-8.545s-73.523,8.545-84.025,8.545
				s10.502-20.161,84.025-20.161S305.774,27.462,295.272,27.462"/>
			<g>
				<path style="fill:#DD2E44;" d="M66.26-357.653c-2.901,0-5.37,2.196-5.655,5.143c-0.66,6.77-0.819,30.447,2.662,43.702
					c0.808,3.049,3.971,4.881,6.952,4.05c3.038-0.796,4.847-3.903,4.05-6.94c-3.106-11.833-2.844-34.475-2.344-39.72
					c0.307-3.129-1.991-5.916-5.12-6.212C66.624-357.642,66.442-357.653,66.26-357.653"/>
				<path style="fill:#DD2E44;" d="M84.112-361.999c-2.89,0-5.37,2.196-5.655,5.143c-0.649,6.645-0.751,28.615,2.799,43.566
					c0.717,3.072,3.789,5.006,6.849,4.221c3.061-0.717,4.949-3.789,4.221-6.838c-3.152-13.267-3.095-34.156-2.549-39.856
					c0.307-3.129-1.991-5.905-5.12-6.212C84.476-361.988,84.294-361.999,84.112-361.999"/>
				<path style="fill:#DD2E44;" d="M103.261-365.959c-2.89,0-5.37,2.196-5.655,5.143c-0.501,5.154-1.126,29.594,2.571,45.249
					c0.717,3.061,3.789,5.006,6.838,4.233c3.061-0.728,4.949-3.777,4.233-6.838c-3.14-13.323-2.844-36.136-2.321-41.552
					c0.307-3.129-1.991-5.905-5.12-6.212C103.625-365.947,103.443-365.959,103.261-365.959"/>
				<path style="fill:#DD2E44;" d="M124.389-367.882c-3.14,0-5.689,2.549-5.689,5.689c0,3.516-0.08,6.679-0.148,9.682
					c-0.262,10.365-0.478,19.308,2.753,33.303c0.717,3.061,3.732,4.961,6.827,4.267c3.061-0.705,4.972-3.766,4.267-6.815
					c-2.913-12.607-2.719-20.491-2.48-30.481c0.08-3.072,0.159-6.349,0.159-9.956C130.078-365.333,127.53-367.882,124.389-367.882"
					/>
				<path style="fill:#DD2E44;" d="M145.7-372.103c-2.89,0-5.37,2.196-5.655,5.143c-0.614,6.383-0.159,26.874,2.435,41.244
					c0.569,3.106,3.55,5.086,6.61,4.585c3.095-0.546,5.143-3.516,4.597-6.61c-2.537-14.04-2.776-33.326-2.321-38.127
					c0.307-3.129-1.991-5.905-5.12-6.212C146.064-372.091,145.882-372.103,145.7-372.103"/>
				<path style="fill:#DD2E44;" d="M170.834-371.033c-2.901,0-5.37,2.196-5.655,5.143c-0.387,3.971-0.25,12.993-0.08,23.438
					c0.08,5.712,0.171,11.628,0.171,16.794c0,3.152,2.549,5.689,5.689,5.689c3.152,0,5.689-2.537,5.689-5.689
					c0-5.222-0.091-11.196-0.171-16.976c-0.148-9.25-0.296-18.83,0.023-22.164c0.307-3.129-1.991-5.916-5.12-6.212
					C171.198-371.022,171.016-371.033,170.834-371.033"/>
			</g>
			<g>
				<path style="fill:#A0041E;" d="M206.685-353.329c-2.89,0-5.37,2.196-5.655,5.143c-0.569,5.939-1.627,25.725-1.627,40.22
					c0,3.152,2.537,5.689,5.689,5.689c3.14,0,5.689-2.537,5.689-5.689c0-13.926,1.035-33.53,1.57-39.128
					c0.296-3.129-1.991-5.905-5.12-6.212C207.049-353.318,206.867-353.329,206.685-353.329"/>
				<path style="fill:#A0041E;" d="M187.968-352.26c-2.89,0-5.37,2.196-5.655,5.143c-0.569,5.939-1.627,25.725-1.627,40.232
					c0,3.152,2.537,5.689,5.689,5.689c3.14,0,5.689-2.537,5.689-5.689c0-13.938,1.035-33.542,1.57-39.14
					c0.307-3.129-1.991-5.905-5.12-6.212C188.333-352.248,188.151-352.26,187.968-352.26"/>
			</g>
		</g>
	</g>
</g>
<g>
</g>
<g>
</g>
<g>
</g>
<g>
</g>
<g>
</g>
<g>
</g>
<g>
</g>
<g>
</g>
<g>
</g>
<g>
</g>
<g>
</g>
<g>
</g>
<g>
</g>
<g>
</g>
<g>
</g>
</svg>
