<svg height="512pt" viewBox="0 -49 512 511" width="512pt" xmlns="http://www.w3.org/2000/svg"><path d="m486.5 35.5h-171c-4.140625 0-7.5 3.359375-7.5 7.5v109c0 25.640625-20.859375 46.5-46.5 46.5h-117c-4.140625 0-7.5 3.359375-7.5 7.5v165c0 4.140625 3.359375 7.5 7.5 7.5h342c4.140625 0 7.5-3.359375 7.5-7.5v-328c0-4.140625-3.359375-7.5-7.5-7.5zm0 0" fill="#dd9300"/><path d="m366.003906 332.746094 41.992188-52.492188c1.898437-2.371094 4.773437-3.753906 7.808594-3.753906h78.195312v35h-55.214844c-3.027344 0-5.890625 1.371094-7.789062 3.726562l-45.328125 56.273438h-235.667969v-35h208.195312c3.035157 0 5.910157-1.382812 7.808594-3.753906zm0 0" fill="#b76206"/><path d="m134.5 183.5h-52c-37.21875 0-67.5 30.28125-67.5 67.5v120c0 4.140625 3.359375 7.5 7.5 7.5h122c4.140625 0 7.5-3.359375 7.5-7.5v-170c0-9.648438-7.851562-17.5-17.5-17.5zm0 0" fill="#ffcc7b"/><path d="m473.363281 40.640625h20.605469v325.539063h-20.605469zm0 0" fill="#ce7409"/><path d="m499.5 363.5h-487c-6.894531 0-12.5 5.605469-12.5 12.5v9c0 15.164062 12.335938 27.5 27.5 27.5h31c7.875 0 14.980469-3.332031 20-8.65625 5.019531 5.324219 12.125 8.65625 20 8.65625h31c7.875 0 14.980469-3.332031 20-8.65625 5.019531 5.324219 12.125 8.65625 20 8.65625h31c7.875 0 14.980469-3.332031 20-8.65625 5.019531 5.324219 12.125 8.65625 20 8.65625h31c7.875 0 14.980469-3.332031 20-8.65625 5.019531 5.324219 12.125 8.65625 20 8.65625h31c7.875 0 14.980469-3.332031 20-8.65625 5.019531 5.324219 12.125 8.65625 20 8.65625h31c7.875 0 14.980469-3.332031 20-8.65625 5.019531 5.324219 12.125 8.65625 20 8.65625h31c15.164062 0 27.5-12.335938 27.5-27.5v-9c0-6.894531-5.605469-12.5-12.5-12.5zm0 0" fill="#916643"/><g fill="#b76206"><path d="m202 223.289062v-26.789062c0-4.140625-3.359375-7.5-7.5-7.5s-7.5 3.359375-7.5 7.5v26.789062c-8.730469 3.097657-15 11.433594-15 21.210938 0 12.40625 10.09375 22.5 22.5 22.5s22.5-10.09375 22.5-22.5c0-9.777344-6.269531-18.113281-15-21.210938zm-7.5 28.710938c-4.136719 0-7.5-3.363281-7.5-7.5s3.363281-7.5 7.5-7.5 7.5 3.363281 7.5 7.5-3.363281 7.5-7.5 7.5zm0 0"/><path d="m267 223.289062v-26.789062c0-4.140625-3.359375-7.5-7.5-7.5s-7.5 3.359375-7.5 7.5v26.789062c-8.730469 3.097657-15 11.433594-15 21.210938 0 12.40625 10.09375 22.5 22.5 22.5s22.5-10.09375 22.5-22.5c0-9.777344-6.269531-18.113281-15-21.210938zm-7.5 28.710938c-4.136719 0-7.5-3.363281-7.5-7.5s3.363281-7.5 7.5-7.5 7.5 3.363281 7.5 7.5-3.363281 7.5-7.5 7.5zm0 0"/><path d="m353.5 135c-9.964844 0-18.429688 6.511719-21.378906 15.5h-27.121094c-4.140625 0-7.5 3.359375-7.5 7.5s3.359375 7.5 7.5 7.5h27.476562c3.230469 8.46875 11.433594 14.5 21.023438 14.5 12.40625 0 22.5-10.09375 22.5-22.5s-10.09375-22.5-22.5-22.5zm0 30c-4.136719 0-7.5-3.363281-7.5-7.5s3.363281-7.5 7.5-7.5 7.5 3.363281 7.5 7.5-3.363281 7.5-7.5 7.5zm0 0"/><path d="m305 100.5h27.476562c3.230469 8.46875 11.433594 14.5 21.023438 14.5 12.40625 0 22.5-10.09375 22.5-22.5s-10.09375-22.5-22.5-22.5c-9.964844 0-18.429688 6.511719-21.378906 15.5h-27.121094c-4.140625 0-7.5 3.359375-7.5 7.5s3.359375 7.5 7.5 7.5zm48.5-15.5c4.136719 0 7.5 3.363281 7.5 7.5s-3.363281 7.5-7.5 7.5-7.5-3.363281-7.5-7.5 3.363281-7.5 7.5-7.5zm0 0"/><path d="m317.488281 197.382812-18.957031-18.960937c-2.929688-2.929687-7.679688-2.929687-10.605469 0-2.929687 2.929687-2.929687 7.679687 0 10.605469l18.957031 18.960937c-3.976562 8.359375-2.535156 18.675781 4.375 25.585938 4.386719 4.386719 10.148438 6.582031 15.910157 6.582031s11.523437-2.191406 15.910156-6.582031c8.773437-8.769531 8.773437-23.046875 0-31.816407-6.914063-6.914062-17.230469-8.355468-25.589844-4.375zm14.984375 25.589844c-2.925781 2.921875-7.683594 2.921875-10.609375 0-2.921875-2.925781-2.921875-7.683594 0-10.609375 1.460938-1.460937 3.382813-2.191406 5.304688-2.191406s3.839843.730469 5.304687 2.191406c2.921875 2.925781 2.921875 7.683594 0 10.609375zm0 0"/></g><path d="m494.5.5h-187c-9.648438 0-17.5 7.851562-17.5 17.5v15c0 9.648438 7.851562 17.5 17.5 17.5h187c9.648438 0 17.5-7.851562 17.5-17.5v-15c0-9.648438-7.851562-17.5-17.5-17.5zm0 0" fill="#ffcc7b"/><path d="m473.363281 276.5h20.605469v34.996094h-20.605469zm0 0" fill="#9b4d00"/></svg>