<?xml version="1.0" encoding="utf-8"?>
<!-- Generator: Adobe Illustrator 19.0.0, SVG Export Plug-In . SVG Version: 6.00 Build 0)  -->
<svg version="1.1" id="Layer_1" xmlns="http://www.w3.org/2000/svg" xmlns:xlink="http://www.w3.org/1999/xlink" x="0px" y="0px"
	 viewBox="-34 36 30 30" style="enable-background:new -34 36 30 30;" xml:space="preserve">
<style type="text/css">
	.st0{fill:#FFFFFF;}
</style>
<path class="st0" d="M-29.6,50.6c0-0.2,0.1-0.5,0.2-0.6c0.2-0.2,0.4-0.2,0.6-0.2h2c0.2,0,0.4,0.1,0.6,0.2c0.1,0.2,0.2,0.4,0.2,0.6
	c0,0.2-0.1,0.4-0.2,0.6c-0.1,0.2-0.4,0.2-0.6,0.2h-2c-0.2,0-0.4-0.1-0.6-0.2C-29.5,51.1-29.6,50.9-29.6,50.6z M-26.8,57.5
	c0-0.2,0.1-0.4,0.2-0.6l1.5-1.4c0.1-0.2,0.4-0.2,0.6-0.2s0.4,0.1,0.6,0.2s0.2,0.3,0.2,0.6c0,0.2-0.1,0.5-0.2,0.6l-1.4,1.4
	c-0.4,0.3-0.8,0.3-1.2,0C-26.7,58-26.8,57.8-26.8,57.5z M-26.8,43.7c0-0.2,0.1-0.4,0.2-0.6c0.2-0.2,0.4-0.2,0.6-0.2
	c0.2,0,0.4,0.1,0.6,0.2l1.4,1.5c0.2,0.2,0.2,0.4,0.2,0.6c0,0.2-0.1,0.4-0.2,0.6s-0.4,0.2-0.6,0.2c-0.2,0-0.4-0.1-0.6-0.2l-1.5-1.4
	C-26.7,44.2-26.8,44-26.8,43.7z M-24.2,50.6c0-0.9,0.2-1.8,0.7-2.6s1.1-1.4,1.9-1.9s1.7-0.7,2.6-0.7c0.7,0,1.4,0.1,2,0.4
	c0.6,0.3,1.2,0.6,1.7,1.1c0.5,0.5,0.8,1,1.1,1.7s0.4,1.3,0.4,2c0,0.9-0.2,1.8-0.7,2.6c-0.5,0.8-1.1,1.4-1.9,1.9
	c-0.8,0.5-1.7,0.7-2.6,0.7c-0.9,0-1.8-0.2-2.6-0.7c-0.8-0.5-1.4-1.1-1.9-1.9C-24,52.4-24.2,51.6-24.2,50.6z M-22.5,50.6
	c0,1,0.3,1.8,1,2.5c0.7,0.7,1.5,1,2.5,1s1.8-0.4,2.5-1s1-1.5,1-2.5c0-1-0.4-1.8-1-2.5c-0.7-0.7-1.5-1-2.5-1c-1,0-1.8,0.3-2.5,1
	C-22.2,48.8-22.5,49.7-22.5,50.6z M-19.9,58.4c0-0.2,0.1-0.4,0.2-0.6c0.2-0.2,0.4-0.2,0.6-0.2c0.2,0,0.4,0.1,0.6,0.2
	s0.2,0.4,0.2,0.6v2c0,0.2-0.1,0.5-0.2,0.6c-0.2,0.2-0.4,0.2-0.6,0.2s-0.4-0.1-0.6-0.2c-0.2-0.2-0.2-0.4-0.2-0.6
	C-19.9,60.4-19.9,58.4-19.9,58.4z M-19.9,42.9v-2c0-0.2,0.1-0.4,0.2-0.6c0.2-0.2,0.4-0.3,0.6-0.3s0.4,0.1,0.6,0.2s0.2,0.4,0.2,0.6
	v2.1c0,0.2-0.1,0.4-0.2,0.6s-0.4,0.2-0.6,0.2s-0.4-0.1-0.6-0.2C-19.8,43.3-19.9,43.1-19.9,42.9z M-14.3,56.1c0-0.2,0.1-0.4,0.2-0.6
	c0.1-0.2,0.3-0.2,0.6-0.2c0.2,0,0.4,0.1,0.6,0.2l1.5,1.4c0.2,0.2,0.2,0.4,0.2,0.6s-0.1,0.4-0.2,0.6c-0.4,0.3-0.8,0.3-1.2,0l-1.4-1.4
	C-14.3,56.5-14.3,56.3-14.3,56.1z M-14.3,45.2c0-0.2,0.1-0.5,0.2-0.6l1.4-1.5c0.2-0.2,0.4-0.2,0.6-0.2c0.2,0,0.4,0.1,0.6,0.2
	c0.2,0.2,0.2,0.4,0.2,0.6c0,0.2-0.1,0.5-0.2,0.6l-1.5,1.4c-0.2,0.2-0.4,0.2-0.6,0.2c-0.2,0-0.4-0.1-0.6-0.2
	C-14.3,45.6-14.3,45.4-14.3,45.2z M-12.1,50.6c0-0.2,0.1-0.4,0.2-0.6c0.2-0.2,0.4-0.2,0.6-0.2h2c0.2,0,0.4,0.1,0.6,0.3
	s0.3,0.4,0.3,0.6c0,0.2-0.1,0.4-0.3,0.6s-0.4,0.2-0.6,0.2h-2c-0.2,0-0.4-0.1-0.6-0.2S-12.1,50.9-12.1,50.6z"/>
</svg>
