<?xml version="1.0"?>
<svg xmlns="http://www.w3.org/2000/svg" viewBox="0 0 64 64" width="512px" height="512px" class=""><g><g id="overcast"><path d="M38.724,16.5a1,1,0,0,0,.5-.134l3.464-2a1,1,0,0,0-1-1.732l-3.464,2a1,1,0,0,0,.5,1.866Z" data-original="#000000" class="active-path" data-old_color="#000000" fill="#FFFFFF"/><path d="M32,10.144a1,1,0,0,0,1.366-.367l2-3.464a1,1,0,1,0-1.732-1l-2,3.464A1,1,0,0,0,32,10.144Z" data-original="#000000" class="active-path" data-old_color="#000000" fill="#FFFFFF"/><path d="M24,8a1,1,0,0,0,1-1V3a1,1,0,0,0-2,0V7A1,1,0,0,0,24,8Z" data-original="#000000" class="active-path" data-old_color="#000000" fill="#FFFFFF"/><path d="M14.634,9.777a1,1,0,1,0,1.732-1l-2-3.464a1,1,0,1,0-1.732,1Z" data-original="#000000" class="active-path" data-old_color="#000000" fill="#FFFFFF"/><path d="M5.313,14.366l3.464,2a1,1,0,1,0,1-1.732l-3.464-2a1,1,0,0,0-1,1.732Z" data-original="#000000" class="active-path" data-old_color="#000000" fill="#FFFFFF"/><path d="M3,25H7a1,1,0,0,0,0-2H3a1,1,0,0,0,0,2Z" data-original="#000000" class="active-path" data-old_color="#000000" fill="#FFFFFF"/><path d="M4.947,35a1,1,0,0,0,1.366.366l3.464-2a1,1,0,1,0-1-1.732l-3.464,2A1,1,0,0,0,4.947,35Z" data-original="#000000" class="active-path" data-old_color="#000000" fill="#FFFFFF"/><path d="M55.973,24.3a10.67,10.67,0,0,0-5.491-1.283,13.913,13.913,0,0,0-13.175-5.906A14.987,14.987,0,1,0,13.013,34.184,9.933,9.933,0,0,0,14.09,38.5,9.849,9.849,0,0,0,11,38,9.994,9.994,0,0,0,5.515,56.353,16.048,16.048,0,0,0,16.849,61H40a.922.922,0,0,0,.385-.084A11.917,11.917,0,0,0,50.819,47H52a.92.92,0,0,0,.384-.084A11.928,11.928,0,0,0,62.974,35.8,12.051,12.051,0,0,0,55.973,24.3ZM24,11a13.016,13.016,0,0,1,11.254,6.517,14.058,14.058,0,0,0-8.729,7.128A9.887,9.887,0,0,0,23,24a10.013,10.013,0,0,0-9.661,7.415A12.982,12.982,0,0,1,24,11ZM39.91,58.954A.858.858,0,0,0,39.7,59H16.849a14.067,14.067,0,0,1-10-4.137,1.07,1.07,0,0,0-.166-.134,7.992,7.992,0,0,1,7.883-13.88,1,1,0,0,0,1.369-.506A11.992,11.992,0,0,1,37.13,38.587a1,1,0,0,0,.936.46c.308-.028.619-.047.934-.047a10,10,0,0,1,.91,19.954ZM60.978,35.665a9.939,9.939,0,0,1-9.068,9.289A.948.948,0,0,0,51.7,45H50.3A12.01,12.01,0,0,0,39,37c-.173,0-.345,0-.516.013a13.988,13.988,0,0,0-22.914-.1A7.948,7.948,0,0,1,15,34c0-.151,0-.3.008-.453a8,8,0,0,1,11.568-6.7,1,1,0,0,0,1.365-.508,12.051,12.051,0,0,1,7.882-6.906A11.644,11.644,0,0,1,39,19a11.935,11.935,0,0,1,10.125,5.585,1,1,0,0,0,.933.461A8.442,8.442,0,0,1,55.1,26.093,10.061,10.061,0,0,1,60.978,35.665Z" data-original="#000000" class="active-path" data-old_color="#000000" fill="#FFFFFF"/><path d="M13.674,42.638A5.913,5.913,0,0,0,11,42,5.995,5.995,0,0,0,7.768,53.047a1,1,0,0,0,1.081-1.683A3.995,3.995,0,0,1,11,44a3.932,3.932,0,0,1,1.778.426,1,1,0,0,0,.9-1.788Z" data-original="#000000" class="active-path" data-old_color="#000000" fill="#FFFFFF"/><path d="M27,35a1,1,0,0,0,0,2,7.967,7.967,0,0,1,6.752,3.73,1,1,0,0,0,.846.465.988.988,0,0,0,.534-.156,1,1,0,0,0,.309-1.38A9.957,9.957,0,0,0,27,35Z" data-original="#000000" class="active-path" data-old_color="#000000" fill="#FFFFFF"/><path d="M38,20a1,1,0,0,0,0,2,7.967,7.967,0,0,1,6.752,3.73,1,1,0,0,0,.846.465.988.988,0,0,0,.534-.156,1,1,0,0,0,.309-1.38A9.957,9.957,0,0,0,38,20Z" data-original="#000000" class="active-path" data-old_color="#000000" fill="#FFFFFF"/></g></g> </svg>
