<?xml version="1.0" encoding="utf-8"?>
<!-- Generator: Adobe Illustrator 19.0.0, SVG Export Plug-In . SVG Version: 6.00 Build 0)  -->
<svg version="1.1" id="Layer_1" xmlns="http://www.w3.org/2000/svg" xmlns:xlink="http://www.w3.org/1999/xlink" x="0px" y="0px"
	 viewBox="-34 36 30 30" style="enable-background:new -34 36 30 30;" xml:space="preserve">
<style type="text/css">
	.st0{fill:#FFFFFF;}
</style>
<path class="st0" d="M-30.1,53.6c0-1,0.3-1.9,0.9-2.6c0.6-0.8,1.4-1.3,2.4-1.5c0.3-1.2,0.8-2.1,1.8-2.9c0.9-0.8,2-1.1,3.2-1.1
	c1.2,0,2.2,0.4,3.2,1.1c0.9,0.7,1.5,1.7,1.8,2.8h0.3c1.2,0,2.2,0.4,3,1.2c0.8,0.8,1.2,1.8,1.2,3c0,1.2-0.4,2.2-1.2,3
	c-0.8,0.8-1.8,1.2-3,1.2h-9.3c-0.6,0-1.1-0.1-1.6-0.3c-0.5-0.2-1-0.5-1.4-0.9c-0.4-0.4-0.7-0.8-0.9-1.4
	C-30,54.7-30.1,54.2-30.1,53.6z M-28.7,53.6c0,0.8,0.3,1.4,0.8,2c0.5,0.5,1.2,0.8,2,0.8h9.3c0.8,0,1.4-0.3,2-0.8s0.8-1.2,0.8-2
	s-0.3-1.4-0.8-2c-0.5-0.5-1.2-0.8-2-0.8H-18c-0.1,0-0.1,0-0.1-0.2l-0.1-0.5c-0.1-0.9-0.5-1.7-1.2-2.4c-0.7-0.6-1.5-0.9-2.5-0.9
	c-0.9,0-1.8,0.3-2.5,0.9c-0.7,0.6-1.1,1.4-1.2,2.3l-0.1,0.4c0,0.1,0,0.2-0.2,0.2l-0.5,0.1c-0.7,0.1-1.3,0.4-1.8,0.9
	C-28.4,52.2-28.7,52.9-28.7,53.6z M-19.8,44.9c-0.1,0.1-0.1,0.2,0.1,0.2c0.4,0.2,0.8,0.4,1.1,0.5c0.1,0,0.2,0,0.2,0
	c0.6-0.6,1.3-0.9,2.1-0.9c0.8,0,1.5,0.3,2.1,0.8c0.6,0.5,0.9,1.2,1,2l0.1,0.6h1.4c0.6,0,1.2,0.2,1.7,0.7s0.7,1,0.7,1.7
	c0,0.6-0.2,1.1-0.6,1.6s-0.9,0.7-1.5,0.8c-0.1,0-0.1,0-0.1,0.2v1.1c0,0.1,0,0.2,0.1,0.2c1-0.1,1.9-0.5,2.5-1.2s1-1.6,1-2.6
	c0-1.1-0.4-2-1.1-2.7c-0.8-0.8-1.6-1.1-2.7-1.1h-0.1c-0.3-1-0.8-1.8-1.6-2.5c-0.8-0.7-1.8-1-2.8-1C-17.7,43.3-18.9,43.8-19.8,44.9z"
	/>
</svg>
