<?xml version="1.0" encoding="utf-8"?>
<!-- Generator: Adobe Illustrator 19.0.0, SVG Export Plug-In . SVG Version: 6.00 Build 0)  -->
<svg version="1.1" id="Layer_1" xmlns="http://www.w3.org/2000/svg" xmlns:xlink="http://www.w3.org/1999/xlink" x="0px" y="0px"
	 viewBox="-34 36 30 30" style="enable-background:new -34 36 30 30;" xml:space="preserve">
<style type="text/css">
	.st0{fill:#FFFFFF;}
</style>
<path class="st0" d="M-29.9,53c0-1.2,0.4-2.2,1.1-3.1s1.6-1.5,2.7-1.7c0.3-1.4,1-2.5,2.1-3.4c1.1-0.9,2.4-1.3,3.8-1.3
	c0.8,0,1.6,0.1,2.2,0.4c0,0,0,0,0,0c0.8,0.3,1.6,0.8,2.2,1.5h0c0.7,0.7,1.1,1.6,1.4,2.6h0.3c1.1,0,2,0.3,2.8,0.9v0
	c0.5,0.4,1,0.8,1.3,1.3c0.4,0.5,0.6,1.1,0.7,1.7c0,0.2,0.1,0.4,0.1,0.5v0.1c0,0,0,0.1,0,0.2s0,0.2,0,0.2v0c0,0.9-0.2,1.7-0.6,2.5
	c-0.4,0.8-1,1.4-1.7,1.8c-0.7,0.4-1.5,0.7-2.4,0.7c-0.1,0-0.2-0.1-0.2-0.2v-1.3c0-0.1,0.1-0.2,0.2-0.2c0.9,0,1.6-0.4,2.2-1
	c0.6-0.6,0.9-1.4,0.9-2.3c0-0.9-0.3-1.7-1-2.3c-0.6-0.6-1.4-1-2.3-1h-1.6c-0.1,0-0.2-0.1-0.2-0.2l-0.1-0.6c-0.1-1-0.5-1.9-1.3-2.6
	c0,0,0,0,0,0s0,0,0,0c0,0,0,0,0,0c0,0,0,0,0,0c-0.7-0.7-1.6-1-2.6-1.1c-0.1,0-0.2,0-0.3,0c-1.1,0-2,0.4-2.9,1.1
	c-0.8,0.7-1.3,1.6-1.4,2.7l-0.1,0.6c0,0.1-0.1,0.1-0.2,0.1l-0.5,0c-0.8,0.1-1.5,0.5-2.1,1.1c-0.6,0.6-0.8,1.3-0.8,2.2v0h0
	c0,0.5,0.1,0.9,0.3,1.4c0.2,0.4,0.5,0.8,0.8,1.1c0.2,0.2,0.5,0.3,0.7,0.5v0c0.4,0.2,0.8,0.3,1.2,0.3c0.1,0,0.2,0.1,0.2,0.2v1.3
	c0,0.1-0.1,0.2-0.2,0.2c-0.5,0-1-0.1-1.5-0.3v0c-0.8-0.3-1.5-0.8-2.1-1.4c-0.6-0.7-1-1.4-1.1-2.3v0c0,0,0,0,0,0
	C-29.9,53.6-29.9,53.3-29.9,53z M-24.4,60.1c0,0,0-0.1,0-0.1c0,0,0-0.1,0-0.1l0.1-0.6c0.1-0.2,0.2-0.4,0.4-0.5s0.4-0.1,0.7-0.1
	c0.2,0.1,0.4,0.2,0.5,0.4c0.1,0.2,0.1,0.4,0.1,0.6l-0.1,0.6c-0.1,0.4-0.3,0.7-0.8,0.7c0,0-0.1,0-0.1,0c-0.1,0-0.1,0-0.1,0
	c-0.2-0.1-0.4-0.2-0.5-0.3C-24.4,60.5-24.4,60.3-24.4,60.1z M-23.7,57.2c0-0.2,0.1-0.4,0.2-0.6s0.4-0.2,0.6-0.2s0.4,0.1,0.6,0.2
	s0.2,0.4,0.2,0.6c0,0.2-0.1,0.4-0.2,0.6c-0.1,0.2-0.4,0.2-0.6,0.2c-0.2,0-0.4-0.1-0.6-0.2C-23.6,57.6-23.7,57.4-23.7,57.2z
	 M-22,63.2c0,0,0-0.1,0-0.2l0.1-0.6c0.1-0.2,0.2-0.4,0.4-0.5c0.2-0.1,0.4-0.1,0.6-0.1c0.2,0,0.4,0.2,0.5,0.4
	c0.1,0.2,0.2,0.4,0.1,0.7l-0.1,0.6c-0.1,0.4-0.4,0.6-0.8,0.6c-0.1,0-0.2,0-0.2,0c-0.2-0.1-0.4-0.2-0.5-0.3C-22,63.5-22,63.3-22,63.2
	z M-21.2,60.3c0-0.2,0.1-0.4,0.2-0.6c0.2-0.2,0.4-0.2,0.6-0.2s0.4,0.1,0.6,0.2c0.2,0.2,0.2,0.3,0.2,0.6c0,0.2-0.1,0.4-0.2,0.6
	c-0.2,0.2-0.4,0.2-0.6,0.2c-0.2,0-0.4-0.1-0.6-0.2S-21.2,60.5-21.2,60.3z M-20.6,58c0-0.1,0-0.2,0-0.3l0.2-0.9
	c0.1-0.2,0.2-0.4,0.4-0.5c0.2-0.1,0.4-0.2,0.6-0.1c0.2,0.1,0.4,0.2,0.5,0.4c0.1,0.2,0.1,0.4,0.1,0.6l-0.3,0.9
	c-0.1,0.3-0.2,0.5-0.4,0.6s-0.4,0.1-0.6,0.1c-0.2,0-0.4-0.1-0.5-0.3C-20.6,58.3-20.6,58.1-20.6,58z M-17.9,60.1c0,0,0-0.1,0-0.1
	s0-0.1,0-0.1l0.1-0.6c0.1-0.2,0.2-0.4,0.4-0.5c0.2-0.1,0.4-0.1,0.7-0.1c0.2,0.1,0.4,0.2,0.5,0.4c0.1,0.2,0.1,0.4,0.1,0.6l-0.1,0.6
	c-0.1,0.4-0.4,0.7-0.8,0.7c0,0-0.1,0-0.1,0s-0.1,0-0.1,0c-0.2-0.1-0.4-0.2-0.5-0.3C-17.8,60.5-17.9,60.3-17.9,60.1z M-17.1,57.2
	c0-0.2,0.1-0.4,0.2-0.6c0.2-0.2,0.4-0.2,0.6-0.2s0.4,0.1,0.6,0.2c0.2,0.2,0.2,0.4,0.2,0.6c0,0.2-0.1,0.4-0.2,0.6S-16,58-16.3,58
	c-0.2,0-0.4-0.1-0.6-0.2C-17,57.6-17.1,57.4-17.1,57.2z"/>
</svg>
