<?xml version="1.0" encoding="utf-8"?>
<!-- Generator: Adobe Illustrator 19.0.0, SVG Export Plug-In . SVG Version: 6.00 Build 0)  -->
<svg version="1.1" id="Layer_1" xmlns="http://www.w3.org/2000/svg" xmlns:xlink="http://www.w3.org/1999/xlink" x="0px" y="0px"
	 viewBox="-34 36 30 30" style="enable-background:new -34 36 30 30;" xml:space="preserve">
<style type="text/css">
	.st0{fill:#FFFFFF;}
</style>
<path class="st0" d="M-26.7,52.6c0-0.2,0.1-0.4,0.2-0.6c0.2-0.1,0.4-0.2,0.6-0.2h5.7c0.3,0,0.5,0.1,0.6,0.2c0.2,0.1,0.2,0.3,0.2,0.6
	c0,0.3-0.1,0.5-0.2,0.6c-0.1,0.1-0.4,0.2-0.6,0.2h-5.7c-0.3,0-0.5-0.1-0.6-0.2C-26.6,53.1-26.7,52.9-26.7,52.6z M-26.7,46.7
	c0-0.2,0.1-0.4,0.2-0.5c0.2-0.1,0.4-0.2,0.6-0.2h3c0.3,0,0.5,0.1,0.6,0.2c0.2,0.1,0.2,0.3,0.2,0.5c0,0.3-0.1,0.5-0.2,0.6
	s-0.4,0.2-0.6,0.2h-3c-0.3,0-0.5-0.1-0.6-0.2C-26.6,47.2-26.7,46.9-26.7,46.7z M-25.7,55.5c0-0.2,0.1-0.4,0.3-0.6
	c0.2-0.2,0.4-0.3,0.6-0.3c0.3,0,0.5,0.1,0.6,0.3s0.2,0.4,0.2,0.6c0,0.3-0.1,0.5-0.2,0.7c-0.1,0.2-0.4,0.2-0.6,0.2
	c-0.2,0-0.4-0.1-0.6-0.2C-25.6,56-25.7,55.8-25.7,55.5z M-24.3,49.6c0-0.2,0.1-0.4,0.2-0.6c0.2-0.2,0.3-0.3,0.5-0.3
	c0.3,0,0.5,0.1,0.6,0.3s0.2,0.4,0.2,0.6c0,0.3-0.1,0.5-0.2,0.6c-0.2,0.2-0.4,0.2-0.7,0.2c-0.2,0-0.4-0.1-0.5-0.2
	S-24.3,49.9-24.3,49.6z M-23.3,55.5c0-0.2,0.1-0.4,0.2-0.6s0.4-0.3,0.6-0.3h3.8l0.9,0.9c0,0.3-0.1,0.5-0.3,0.6
	c-0.2,0.2-0.4,0.2-0.6,0.2h-3.8c-0.3,0-0.5-0.1-0.7-0.2C-23.2,56-23.3,55.8-23.3,55.5z M-22,49.6c0-0.2,0.1-0.4,0.3-0.6
	c0.2-0.2,0.4-0.3,0.6-0.3h3.8c0.3,0,0.5,0.1,0.6,0.3s0.2,0.4,0.2,0.6c0,0.3-0.1,0.5-0.2,0.6c-0.2,0.2-0.4,0.2-0.6,0.2h-3.8
	c-0.2,0-0.4-0.1-0.6-0.2C-21.9,50.1-22,49.9-22,49.6z M-21.2,46.7c0-0.2,0.1-0.4,0.2-0.5c0.2-0.1,0.4-0.2,0.6-0.2h5.7
	c0.2,0,0.4,0.1,0.6,0.2c0.2,0.2,0.3,0.3,0.3,0.5c0,0.3-0.1,0.5-0.3,0.6c-0.2,0.2-0.4,0.2-0.6,0.2h-5.7c-0.3,0-0.5-0.1-0.7-0.2
	C-21.1,47.2-21.2,46.9-21.2,46.7z M-18.6,52.6c0-0.2,0.1-0.4,0.3-0.6c0.2-0.1,0.4-0.2,0.6-0.2s0.4,0.1,0.6,0.2
	c0.2,0.2,0.3,0.3,0.3,0.6c0,0.3-0.1,0.5-0.3,0.6s-0.4,0.2-0.6,0.2c-0.2,0-0.4-0.1-0.6-0.2C-18.5,53.1-18.6,52.8-18.6,52.6z
	 M-17,55.5c0-0.2,0.1-0.4,0.2-0.6c0.2-0.2,0.4-0.3,0.6-0.3h1.9c0.3,0,0.5,0.1,0.6,0.3c0.2,0.2,0.2,0.4,0.2,0.6
	c0,0.3-0.1,0.5-0.2,0.7c-0.1,0.2-0.4,0.2-0.6,0.2h-1.9c-0.3,0-0.5-0.1-0.6-0.2C-16.9,56-17,55.8-17,55.5z M-16.1,52.6
	c0-0.2,0.1-0.4,0.3-0.6c0.2-0.1,0.4-0.2,0.6-0.2h3.1c0.2,0,0.4,0.1,0.5,0.2c0.1,0.2,0.2,0.3,0.2,0.6c0,0.3-0.1,0.5-0.2,0.6
	c-0.1,0.2-0.3,0.2-0.5,0.2h-3.1c-0.2,0-0.4-0.1-0.6-0.2C-16.1,53.1-16.1,52.8-16.1,52.6z M-15.7,49.6c0-0.2,0.1-0.4,0.3-0.6
	c0.2-0.2,0.4-0.3,0.6-0.3h2c0.2,0,0.4,0.1,0.5,0.3c0.1,0.2,0.2,0.4,0.2,0.6c0,0.3-0.1,0.5-0.2,0.6c-0.1,0.2-0.3,0.2-0.5,0.2h-2
	c-0.2,0-0.4-0.1-0.6-0.2C-15.6,50.1-15.7,49.9-15.7,49.6z M-13,46.7c0-0.2,0.1-0.4,0.2-0.5c0.1-0.1,0.3-0.2,0.5-0.2
	c0.3,0,0.5,0.1,0.6,0.2c0.2,0.1,0.2,0.3,0.2,0.5c0,0.3-0.1,0.5-0.2,0.6s-0.4,0.2-0.6,0.2c-0.2,0-0.4-0.1-0.5-0.2
	C-12.9,47.2-13,46.9-13,46.7z"/>
</svg>
