<?xml version="1.0" encoding="iso-8859-1"?>
<!-- Generator: Adobe Illustrator 19.0.0, SVG Export Plug-In . SVG Version: 6.00 Build 0)  -->
<svg version="1.1" id="Capa_1" xmlns="http://www.w3.org/2000/svg" xmlns:xlink="http://www.w3.org/1999/xlink" x="0px" y="0px"
	 viewBox="0 0 512 512" style="enable-background:new 0 0 512 512;" xml:space="preserve">
<path style="fill:#CA80DE;" d="M355.768,100L256,187.999L156.232,100H69v369c0,23.71,19.589,43,43.667,43
	c10.96,0,20.99-3.997,28.666-10.589C149.009,508.003,159.04,512,170,512s20.991-3.997,28.667-10.589
	c7.676,6.592,17.706,10.589,28.666,10.589c10.965,0,20.99-4.009,28.667-10.605c7.677,6.596,17.702,10.605,28.667,10.605
	c10.96,0,20.99-3.997,28.666-10.589C321.009,508.003,331.04,512,342,512s20.991-3.997,28.667-10.589
	c7.676,6.592,17.706,10.589,28.666,10.589C423.411,512,443,492.71,443,469V100H355.768z"/>
<path style="fill:#AB3CCC;" d="M355.768,100L256,187.999v313.396c7.677,6.596,17.702,10.605,28.667,10.605
	c10.96,0,20.99-3.997,28.666-10.589C321.009,508.003,331.04,512,342,512s20.991-3.997,28.667-10.589
	c7.676,6.592,17.706,10.589,28.666,10.589C423.411,512,443,492.71,443,469V100H355.768z"/>
<g>
	<path style="fill:#EDCFF4;" d="M227.333,343c-10.96,0-20.99-3.997-28.666-10.589C190.991,339.003,180.96,343,170,343
		c-24.078,0-43.667-19.29-43.667-43h30c0,7.168,6.131,13,13.667,13s13.667-5.832,13.667-13h30c0,7.168,6.131,13,13.666,13
		c7.536,0,13.667-5.832,13.667-13h30C271,323.71,251.411,343,227.333,343z"/>
	<path style="fill:#EDCFF4;" d="M170,260c-10.96,0-20.991-3.997-28.667-10.589C133.657,256.003,123.627,260,112.667,260
		C88.589,260,69,240.71,69,217h30c0,7.168,6.131,13,13.667,13c7.535,0,13.666-5.832,13.666-13h30c0,7.168,6.131,13,13.667,13
		s13.667-5.832,13.667-13h30C213.667,240.71,194.078,260,170,260z"/>
	<path style="fill:#EDCFF4;" d="M170,426c-10.96,0-20.991-3.997-28.667-10.589C133.657,422.003,123.627,426,112.667,426
		C88.589,426,69,406.71,69,383h30c0,7.168,6.131,13,13.667,13c7.535,0,13.666-5.832,13.666-13h30c0,7.168,6.131,13,13.667,13
		s13.667-5.832,13.667-13h30C213.667,406.71,194.078,426,170,426z"/>
	<path style="fill:#EDCFF4;" d="M342,393c-10.96,0-20.991-3.997-28.667-10.589C305.657,389.003,295.627,393,284.667,393
		C260.589,393,241,373.71,241,350h30c0,7.168,6.131,13,13.667,13c7.535,0,13.666-5.832,13.666-13h30c0,7.168,6.131,13,13.667,13
		s13.667-5.832,13.667-13h30C385.667,373.71,366.078,393,342,393z"/>
</g>
<path style="fill:#E1B5EC;" d="M399.333,310c-10.96,0-20.99-3.997-28.666-10.589C362.991,306.003,352.96,310,342,310
	c-24.078,0-43.667-19.29-43.667-43h30c0,7.168,6.131,13,13.667,13s13.667-5.832,13.667-13h30c0,7.168,6.131,13,13.666,13
	c7.536,0,13.667-5.832,13.667-13h30C443,290.71,423.411,310,399.333,310z"/>
<path style="fill:#FF3C62;" d="M99,354H0V165c0-35.841,29.159-65,65-65h34V354z"/>
<path style="fill:#E70020;" d="M512,354h-99V100h34c35.841,0,65,29.159,65,65V354z"/>
<path style="fill:#FFB74F;" d="M256,223.074l-5.393-2.077c-1.787-0.688-44.254-17.114-87.479-39.388
	C78.758,138.133,69,111.929,69,96c0-27.772,20.948-52.933,58.987-70.847C162.431,8.933,207.894,0,256,0s93.569,8.933,128.013,25.153
	C422.052,43.067,443,68.228,443,96c0,15.929-9.758,42.133-94.129,85.609c-43.225,22.273-85.691,38.699-87.479,39.388L256,223.074z"
	/>
<path style="fill:#FF9A00;" d="M384.013,25.153C349.569,8.933,304.106,0,256,0v223.074l5.393-2.077
	c1.787-0.688,44.254-17.114,87.479-39.388C433.242,138.133,443,111.929,443,96C443,68.228,422.052,43.067,384.013,25.153z"/>
<path style="fill:#E67500;" d="M256,223.744l-6.666-3.307c-1.015-0.504-25.125-12.513-49.628-28.772
	C162.383,166.898,145,146.42,145,127.219C145,86.161,193.757,54,256,54s111,32.161,111,73.219c0,19.201-17.383,39.68-54.706,64.446
	c-24.503,16.26-48.613,28.269-49.628,28.772L256,223.744z"/>
<path style="fill:#C06100;" d="M256,54v169.744l6.666-3.307c1.015-0.504,25.125-12.513,49.628-28.772
	C349.617,166.898,367,146.42,367,127.219C367,86.161,318.243,54,256,54z"/>
<g>
	<path style="fill:#E1B5EC;" d="M355.667,350c0,7.168-6.131,13-13.667,13s-13.667-5.832-13.667-13h-30c0,7.168-6.131,13-13.666,13
		c-7.536,0-13.667-5.832-13.667-13h-15v32.395c7.677,6.596,17.702,10.605,28.667,10.605c10.96,0,20.99-3.997,28.666-10.589
		C321.009,389.003,331.04,393,342,393c24.078,0,43.667-19.29,43.667-43H355.667z"/>
	<path style="fill:#E1B5EC;" d="M256,300v32.395c9.181-7.889,15-19.482,15-32.395H256z"/>
</g>
<g>
</g>
<g>
</g>
<g>
</g>
<g>
</g>
<g>
</g>
<g>
</g>
<g>
</g>
<g>
</g>
<g>
</g>
<g>
</g>
<g>
</g>
<g>
</g>
<g>
</g>
<g>
</g>
<g>
</g>
</svg>
