<?xml version="1.0" encoding="iso-8859-1"?>
<!-- Generator: Adobe Illustrator 19.0.0, SVG Export Plug-In . SVG Version: 6.00 Build 0)  -->
<svg version="1.1" id="Layer_1" xmlns="http://www.w3.org/2000/svg" xmlns:xlink="http://www.w3.org/1999/xlink" x="0px" y="0px"
	 viewBox="0 0 493.016 493.016" style="enable-background:new 0 0 493.016 493.016;" xml:space="preserve">
<rect x="115.304" y="54.508" style="fill:#AF360B;" width="264" height="256"/>
<polygon style="fill:#E8621F;" points="198.232,470.508 0,470.508 11.328,22.508 254.856,22.508 "/>
<polygon style="fill:#D3520B;" points="198.232,470.508 40,470.508 11.328,22.508 254.856,22.508 "/>
<polygon style="fill:#E8621F;" points="294.784,470.508 493.016,470.508 481.688,22.508 238.152,22.508 "/>
<g>
	<polygon style="fill:#D3520B;" points="294.784,470.508 453.016,470.508 481.688,22.508 238.152,22.508 	"/>
	<rect x="115.304" y="22.508" style="fill:#D3520B;" width="264" height="256"/>
</g>
<g>
	<polygon style="fill:#AF360B;" points="0.488,454.508 0,470.508 198.232,470.508 200.688,454.508 	"/>
	<polygon style="fill:#AF360B;" points="292.328,454.508 294.784,470.508 493.016,470.508 492.52,454.508 	"/>
</g>
<g>
	<polygon style="fill:#C64106;" points="0.488,462.508 199.312,462.508 200.688,454.508 0.488,454.508 0,470.508 0.28,470.508 	"/>
	<polygon style="fill:#C64106;" points="492.52,462.508 492.736,470.508 493.016,470.508 492.52,454.508 292.328,454.508 
		293.704,462.508 	"/>
	<path style="fill:#C64106;" d="M9.824,81.804l-3.168,126c0.544,0.248,1.048,0.128,1.624,0.296
		c19.032,5.752,48-32.832,64.688-88.176c4.528-15.048,7.64-33.416,9.464-41.416H11.736C11.08,78.508,10.472,80.084,9.824,81.804z"/>
</g>
<path style="fill:#AF360B;" d="M9.824,116.1l-3.168,90.768c0.544,0.248,1.048,0.592,1.624,0.768
	c19.032,5.752,48-34.472,64.688-89.816c4.528-15.048,7.64-25.88,9.464-39.312"/>
<path style="fill:#D3520B;" d="M61.824,118.508h-42.52v70.032C35.304,174.18,51.44,150.508,61.824,118.508z"/>
<g>
	<path style="fill:#C64106;" d="M61.824,118.508L35.496,125.1l-16.192,63.44C35.344,174.468,51.44,150.716,61.824,118.508z"/>
	<path style="fill:#C64106;" d="M483.264,81.804l3.168,126c-0.544,0.248-1.048,0.128-1.624,0.296
		c-19.032,5.752-48-32.832-64.68-88.176c-4.536-15.048-7.648-33.416-9.464-41.416h70.696
		C482.016,78.508,482.624,80.084,483.264,81.804z"/>
</g>
<path style="fill:#AF360B;" d="M483.264,116.1l3.168,90.768c-0.544,0.248-1.048,0.592-1.624,0.768
	c-19.032,5.752-48-34.472-64.68-89.816c-4.536-15.048-7.648-25.88-9.472-39.312"/>
<path style="fill:#D3520B;" d="M431.264,118.508h36.04v70.032C459.304,174.18,441.656,150.508,431.264,118.508z"/>
<path style="fill:#C64106;" d="M431.264,118.508l26.328,6.592l9.712,63.44C453.68,166.108,441.656,150.716,431.264,118.508z"/>
<g>
	<rect x="243.304" y="38.508" style="fill:#AF360B;" width="8" height="264"/>
	<rect x="19.304" y="30.508" style="fill:#AF360B;" width="448" height="24"/>
</g>
<g>
	<rect x="83.304" y="22.508" style="fill:#D3520B;" width="16" height="48"/>
	<rect x="347.304" y="22.508" style="fill:#D3520B;" width="16" height="48"/>
	<rect x="163.304" y="22.508" style="fill:#D3520B;" width="8" height="48"/>
</g>
<path style="fill:#C64106;" d="M236.496,81.004c0,7.672-6.232,35.096-13.904,35.096c-7.68,0-13.904-27.424-13.904-35.096
	c0-7.68,6.224-13.904,13.904-13.904C230.264,67.1,236.496,73.332,236.496,81.004z"/>
<circle style="fill:#EFE3DC;" cx="222.592" cy="81.004" r="13.904"/>
<path style="fill:#D6CEC9;" d="M222.592,67.1c7.672,0,13.904,6.224,13.904,13.904c0,7.672-6.232,13.904-13.904,13.904"/>
<g>
</g>
<g>
</g>
<g>
</g>
<g>
</g>
<g>
</g>
<g>
</g>
<g>
</g>
<g>
</g>
<g>
</g>
<g>
</g>
<g>
</g>
<g>
</g>
<g>
</g>
<g>
</g>
<g>
</g>
</svg>
