<?xml version="1.0" encoding="iso-8859-1"?>
<!-- Generator: Adobe Illustrator 19.0.0, SVG Export Plug-In . SVG Version: 6.00 Build 0)  -->
<svg xmlns="http://www.w3.org/2000/svg" xmlns:xlink="http://www.w3.org/1999/xlink" version="1.1" id="Layer_1" x="0px" y="0px" viewBox="0 0 512 512" style="enable-background:new 0 0 512 512;" xml:space="preserve" width="512" height="512">
<g>
	<polygon style="fill:#5A5A5A;" points="75,466 30,466 0,160 105,190  "/>
	<path style="fill:#FF637B;" d="M512,428.8c0,20.4-16.8,37.2-37.2,37.2H258.3c-1.199,0-2.1,0-3.3-0.3   c-28.5-0.901-54.6-16.199-68.401-40.8C136.199,337,108.6,247.299,32.401,209.5C12.599,199.6,0,179.5,0,158.5   C0,87.7,55.499,71.499,91.199,46l155.101,286.199c2.399,4.501,5.4,8.699,8.699,12.599C270.601,364.3,294.3,376,319.799,376H362   c16.8,0,30.3-13.2,30.901-30l98.699,49.799C504.2,402.1,512,414.699,512,428.8z"/>
	<path style="fill:#E63950;" d="M512,428.8c0,20.4-16.8,37.2-37.2,37.2H258.3c-1.199,0-2.1,0-3.3-0.3V344.799   C270.601,364.3,294.3,376,319.799,376H362c16.8,0,30.3-13.2,30.901-30l98.699,49.799C504.2,402.1,512,414.699,512,428.8z"/>
</g>















</svg>
