<svg height="464pt" viewBox="-112 0 464 464" width="464pt" xmlns="http://www.w3.org/2000/svg"><path d="m16 0h208v16h-208zm0 0"/><path d="m36.601562 295.910156-21.074218-21.070312 15.710937 157.160156h16.105469zm0 0"/><path d="m32 448h48v16h-48zm0 0"/><path d="m24.199219 138.839844-24.152344-33.808594c-.0078125.679688-.046875 1.359375-.046875 2.046875v1.769531c0 7.128906.359375 14.351563 1.070312 21.464844l5.722657 57.167969 23.070312 23.070312zm0 0"/><path d="m31.800781 235.113281-22.496093-22.496093 3.703124 37.085937 21.648438 21.648437zm0 0"/><path d="m160 448h48v16h-48zm0 0"/><path d="m192.65625 432h16.105469l15.8125-158.160156-21.09375 21.097656zm0 0"/><path d="m200.199219 133.160156 38.039062-53.257812c-2.070312-16.335938-6.015625-32.359375-11.789062-47.902344h-89.800781l1.617187 2.015625c14.015625 17.527344 21.734375 39.535156 21.734375 61.984375h-16c0-18.832031-6.480469-37.289062-18.230469-51.984375l-5.769531-7.207031-5.769531 7.207031c-11.75 14.695313-18.230469 33.152344-18.230469 51.984375h-16c0-22.449219 7.71875-44.457031 21.742188-61.984375l1.609374-2.015625h-89.800781c-5.773437 15.542969-9.71875 31.566406-11.789062 47.902344l38.039062 53.257812 23.589844 298.839844h17.257813l22.6875-264.710938c.761718-8.722656 7.921874-15.289062 16.664062-15.289062s15.902344 6.566406 16.65625 15.28125l22.6875 264.71875h17.257812zm-104.199219-5.160156h-16v-16h16zm64 0h-16v-16h16zm0 0"/><path d="m205.414062 270.375 21.675782-21.679688 3.710937-37.078124-22.519531 22.519531zm0 0"/><path d="m239.953125 105.03125-24.152344 33.808594-5.585937 70.726562 23.097656-23.09375 5.617188-56.167968c.710937-7.113282 1.070312-14.335938 1.070312-21.464844v-1.769532c0-.679687-.039062-1.359374-.046875-2.039062zm0 0"/></svg>