<?xml version="1.0"?>
<svg xmlns="http://www.w3.org/2000/svg" viewBox="0 0 64 64" width="512" height="512"><g id="flat"><path d="M44,7H20s-4.347,5-1,25c1.165,6.962,3,29,3,29h7s-1-35,3-39c4,4,3,39,3,39h7s1.835-22.038,3-29C48.347,12,44,7,44,7Z" style="fill:#3b73a5"/><rect x="20" y="3" width="24" height="4" style="fill:#394d5c"/><path d="M17.785,20.978A89.161,89.161,0,0,0,19,32c.281,1.678.6,4.235.924,7.145a36.017,36.017,0,0,0,9.111,2.717c.119-3.789.327-7.6.674-10.879C24.909,30.766,20.5,25.258,17.785,20.978Z" style="fill:#7fcac9"/><path d="M46.169,20.978A89.161,89.161,0,0,1,44.954,32c-.281,1.678-.6,4.235-.924,7.145a36.029,36.029,0,0,1-9.111,2.717c-.119-3.789-.327-7.6-.675-10.879C39.045,30.766,43.455,25.258,46.169,20.978Z" style="fill:#7fcac9"/><path d="M44,7H20a9.239,9.239,0,0,0-1.448,3.551c3.5,5.761,11.008,10.872,12.967,12.142A3.163,3.163,0,0,1,32,22a3.29,3.29,0,0,1,.533.793c4.4-1.774,9.15-7.369,12.829-12.579A8.711,8.711,0,0,0,44,7Z" style="fill:#7fcac9"/></g></svg>
