<svg height="512pt" viewBox="-27 0 512 512.00046" width="512pt" xmlns="http://www.w3.org/2000/svg"><path d="m71.589844 0-6 53 64.421875 20.621094 55.359375-20.621094 31.554687-29.480469v-23.519531zm0 0" fill="#b1785d"/><path d="m387.824219 0 6.003906 53-64.421875 20.621094-55.359375-20.621094-31.558594-29.480469v-23.519531zm0 0" fill="#b1785d"/><path d="m117.285156 93.949219-5.34375-40.949219h-46.351562l-7.105469 62.753906c1.546875-.519531 3.070313-1.089844 4.574219-1.699218zm0 0" fill="#96ccec"/><path d="m400.933594 115.753906-7.105469-62.753906h-46.351563l-2.863281 38.546875 44.222657 19.003906c3.851562 2.046875 7.890624 3.792969 12.097656 5.203125zm0 0" fill="#96ccec"/><path d="m437.980469 442.882812-39.929688 34.410157-50.433593-15.285157-100.699219-318.851562h-34.417969l-100.703125 318.851562-50.429687 15.285157-39.929688-34.410157 37.046875-327.128906c27.871094-9.328125 48.609375-33.355468 53.457031-62.753906v-53h31.359375v53h42.070313l31.554687-29.480469v-23.519531h25.5625v23.519531l31.558594 29.480469h42.066406v-53h31.359375v53c4.847656 29.398438 25.585938 53.425781 53.460938 62.753906zm0 0" fill="#75b8db"/><path d="m52.125 450.613281c-.289062 0-.582031-.015625-.878906-.046875-4.238282-.480468-7.289063-4.308594-6.808594-8.546875l1.625-14.332031c.476562-4.238281 4.304688-7.289062 8.546875-6.808594 4.238281.480469 7.289063 4.308594 6.804687 8.546875l-1.621093 14.332031c-.445313 3.945313-3.789063 6.855469-7.667969 6.855469zm4.519531-39.921875c-.289062 0-.582031-.015625-.878906-.050781-4.238281-.476563-7.285156-4.304687-6.804687-8.542969l1.621093-14.332031c.480469-4.242187 4.308594-7.289063 8.546875-6.808594 4.238282.480469 7.289063 4.304688 6.808594 8.546875l-1.625 14.332032c-.445312 3.941406-3.789062 6.855468-7.667969 6.855468zm4.523438-39.921875c-.292969 0-.585938-.015625-.878907-.046875-4.242187-.480468-7.289062-4.308594-6.808593-8.546875l1.621093-14.332031c.480469-4.242188 4.316407-7.289062 8.546876-6.808594 4.242187.480469 7.289062 4.304688 6.808593 8.546875l-1.621093 14.332031c-.449219 3.941407-3.792969 6.855469-7.667969 6.855469zm4.519531-39.921875c-.292969 0-.582031-.015625-.878906-.046875-4.242188-.480469-7.289063-4.308593-6.808594-8.546875l1.625-14.332031c.476562-4.238281 4.300781-7.289063 8.542969-6.808594 4.242187.480469 7.289062 4.304688 6.808593 8.546875l-1.621093 14.332032c-.445313 3.941406-3.792969 6.855468-7.667969 6.855468zm4.519531-39.921875c-.289062 0-.582031-.015625-.878906-.050781-4.238281-.476562-7.289063-4.304688-6.808594-8.542969l1.625-14.332031c.480469-4.238281 4.304688-7.292969 8.546875-6.808594 4.238282.480469 7.285156 4.308594 6.804688 8.546875l-1.621094 14.332031c-.445312 3.941407-3.789062 6.855469-7.667969 6.855469zm4.519531-39.921875c-.289062 0-.582031-.015625-.878906-.046875-4.238281-.480469-7.289062-4.308593-6.804687-8.546875l1.621093-14.332031c.480469-4.242187 4.304688-7.289063 8.546876-6.808594 4.238281.480469 7.289062 4.304688 6.808593 8.546875l-1.625 14.332032c-.445312 3.941406-3.789062 6.855468-7.667969 6.855468zm4.523438-39.921875c-.292969 0-.585938-.015625-.878906-.046875-4.242188-.480468-7.289063-4.308594-6.808594-8.546875l1.621094-14.332031c.480468-4.238281 4.316406-7.289062 8.546875-6.808594 4.242187.480469 7.289062 4.304688 6.808593 8.546875l-1.625 14.332031c-.445312 3.941407-3.789062 6.855469-7.664062 6.855469zm4.519531-39.921875c-.292969 0-.585937-.015625-.878906-.050781-4.242187-.476563-7.289063-4.304687-6.808594-8.542969l1.621094-14.332031c.480469-4.242187 4.304687-7.289063 8.546875-6.808594s7.289062 4.304688 6.808594 8.546875l-1.621094 14.328125c-.449219 3.945313-3.789062 6.859375-7.667969 6.859375zm0 0" fill="#b4dbf3"/><path d="m407.289062 450.613281c-3.875 0-7.21875-2.910156-7.664062-6.855469l-1.625-14.332031c-.480469-4.238281 2.570312-8.066406 6.808594-8.546875 4.238281-.480468 8.066406 2.570313 8.546875 6.808594l1.621093 14.332031c.480469 4.238281-2.566406 8.066407-6.808593 8.546875-.292969.03125-.585938.046875-.878907.046875zm-4.519531-39.921875c-3.875 0-7.21875-2.914062-7.667969-6.855468l-1.621093-14.332032c-.480469-4.242187 2.566406-8.066406 6.808593-8.546875 4.234376-.480469 8.066407 2.566407 8.542969 6.808594l1.625 14.332031c.480469 4.238282-2.566406 8.066406-6.808593 8.542969-.292969.035156-.585938.050781-.878907.050781zm-4.519531-39.921875c-3.878906 0-7.21875-2.914062-7.667969-6.855469l-1.621093-14.332031c-.480469-4.242187 2.566406-8.066406 6.804687-8.546875 4.238281-.480468 8.066406 2.566406 8.546875 6.808594l1.625 14.332031c.480469 4.238281-2.570312 8.066407-6.808594 8.546875-.296875.03125-.589844.046875-.878906.046875zm-4.519531-39.921875c-3.878907 0-7.222657-2.914062-7.667969-6.855468l-1.625-14.332032c-.476562-4.242187 2.570312-8.066406 6.808594-8.546875 4.242187-.480469 8.066406 2.566407 8.546875 6.808594l1.621093 14.332031c.480469 4.238282-2.566406 8.066406-6.804687 8.546875-.296875.03125-.589844.046875-.878906.046875zm-4.523438-39.921875c-3.875 0-7.21875-2.914062-7.664062-6.859375l-1.625-14.328125c-.480469-4.242187 2.566406-8.066406 6.808593-8.546875 4.238282-.484375 8.066407 2.566406 8.546876 6.808594l1.621093 14.328125c.480469 4.242187-2.566406 8.066406-6.808593 8.546875-.292969.035156-.585938.050781-.878907.050781zm-4.519531-39.921875c-3.875 0-7.21875-2.914062-7.667969-6.855468l-1.621093-14.332032c-.480469-4.242187 2.566406-8.066406 6.808593-8.546875 4.238281-.480469 8.066407 2.566407 8.546875 6.808594l1.621094 14.332031c.480469 4.238282-2.570312 8.066406-6.808594 8.546875-.292968.03125-.585937.046875-.878906.046875zm-4.519531-39.921875c-3.878907 0-7.21875-2.910156-7.667969-6.855469l-1.625-14.332031c-.476562-4.242187 2.570312-8.066406 6.808594-8.546875 4.238281-.480468 8.066406 2.570313 8.546875 6.808594l1.625 14.332031c.480469 4.238281-2.570313 8.066407-6.808594 8.546875-.292969.03125-.589844.046875-.878906.046875zm-4.519531-39.921875c-3.878907 0-7.222657-2.914062-7.667969-6.859375l-1.621094-14.328125c-.480469-4.242187 2.566406-8.066406 6.804687-8.546875 4.234376-.480469 8.066407 2.566407 8.546876 6.808594l1.621093 14.332031c.480469 4.238282-2.566406 8.066406-6.804687 8.542969-.296875.035156-.589844.050781-.878906.050781zm0 0" fill="#b4dbf3"/><path d="m212.496094 73.621094v69.535156h34.425781s12.269531-16.359375 12.269531-69.535156zm0 0" fill="#96ccec"/><path d="m264.15625 0h-68.894531c-11.390625 0-20.625 9.234375-20.625 20.625v32.371094c0 11.390625 9.234375 20.625 20.625 20.625h68.894531c11.390625 0 20.625-9.234375 20.625-20.625v-32.371094c0-11.390625-9.234375-20.625-20.625-20.625zm0 0" fill="#fed994"/><path d="m206.191406 23.519531h47.035156v26.585938h-47.035156zm0 0" fill="#b1785d"/><g fill="#96ccec"><path d="m459.113281 476.253906-4.808593-22.742187c-1.574219-7.441407-8.886719-12.199219-16.328126-10.625l-90.363281 19.117187c-7.441406 1.574219-12.199219 8.882813-10.625 16.328125l4.8125 22.742188c1.574219 7.441406 8.886719 12.199219 16.328125 10.625l90.363282-19.117188c7.441406-1.574219 12.195312-8.882812 10.621093-16.328125zm0 0"/><path d="m.300781 476.253906 4.8125-22.742187c1.574219-7.441407 8.882813-12.199219 16.328125-10.625l90.359375 19.117187c7.441407 1.574219 12.199219 8.882813 10.625 16.328125l-4.8125 22.742188c-1.574219 7.441406-8.882812 12.199219-16.324219 10.625l-90.363281-19.117188c-7.441406-1.574219-12.199219-8.882812-10.625-16.328125zm0 0"/></g></svg>