<?xml version="1.0" encoding="iso-8859-1"?>
<!-- Generator: Adobe Illustrator 18.0.0, SVG Export Plug-In . SVG Version: 6.00 Build 0)  -->
<!DOCTYPE svg PUBLIC "-//W3C//DTD SVG 1.1//EN" "http://www.w3.org/Graphics/SVG/1.1/DTD/svg11.dtd">
<svg version="1.1" id="Capa_1" xmlns="http://www.w3.org/2000/svg" xmlns:xlink="http://www.w3.org/1999/xlink" x="0px" y="0px"
	 viewBox="0 0 432.986 432.986" style="enable-background:new 0 0 432.986 432.986;" xml:space="preserve">
<g>
	<path d="M430.687,243.296c-1.411-0.905-3.177-1.039-4.708-0.366c-1.018-4.424-3.157-8.341-6.414-11.695
		c-14.532-14.969-48.398-14.852-73.134-14.768c-6.851,0.022-12.766,0.044-17.231-0.254c-20.151-1.343-49.976-18.27-58.833-23.547
		l0.403-4.84c0.139-1.67-0.567-3.298-1.882-4.337c-48.684-38.494-88.554-49.458-90.228-49.905c-2.031-0.543-4.001,0.384-5.389,1.963
		c-12.406,14.114-31.429,28.613-31.535,28.691c-21.793,16.069-47.884,20.527-77.55,13.253
		c-22.544-5.528-38.779-16.111-38.937-16.215c-1.575-1.041-3.601-1.105-5.237-0.171c-1.572,0.898-5.747,3.283-16.427,42.764
		c-7.123,26.33-2.161,42.928,2.223,51.365c-0.298,0.182-2.396,1.669-2.396,4.264v34.986c0,2.762,2.239,5,5,5h112.074
		c2.761,0,5-2.238,5-5v-7.592c36.833,0.53,62.02,3.401,86.393,6.342c42.501,5.128,82.378,6.324,84.347,6.324
		c58.628,0,123.278-21.853,134.873-31.078c1.192-0.949,1.887-2.39,1.887-3.913v-17.064
		C432.986,245.801,432.119,244.215,430.687,243.296z M265.489,231.9c1.098-0.858,1.788-2.136,1.904-3.524l2.053-24.653
		c12.495,7.159,39.174,21.142,59.088,22.469c4.815,0.32,10.893,0.297,17.93,0.275c21.641-0.078,54.352-0.187,65.925,11.734
		c2.357,2.427,3.712,5.29,4.132,8.68c-15.052,5.971-46.542,17.196-82.143,22.443c-10.565,1.557-22.965,2.346-36.853,2.346
		c-26.278,0-52.046-2.726-69.097-4.531c-2.784-0.295-66.145-7.144-88.084-8.522c19.744-41.647,120.204-25.892,121.262-25.72
		C262.985,233.121,264.39,232.759,265.489,231.9z M13.239,206.48c5.487-20.283,9.067-29.82,11.005-34.15
		c6.646,3.76,20.124,10.554,37.243,14.795c32.279,7.998,62.023,2.905,86.031-14.725c2.089-1.318,11.44-8.456,31.766-28.162
		c3.233,1.065,8.789,3.05,16.091,6.219l-4.33,8.211c-1.288,2.442-0.352,5.467,2.091,6.755c0.744,0.392,1.541,0.578,2.328,0.578
		c1.796,0,3.531-0.97,4.427-2.669l4.59-8.705c4.161,2.003,8.685,4.313,13.509,6.96l-4.293,8.889
		c-1.201,2.486-0.159,5.476,2.328,6.677c0.701,0.339,1.441,0.499,2.171,0.499c1.858,0,3.643-1.04,4.506-2.826l3.995-8.271
		c4.109,2.436,8.386,5.1,12.795,8.005l-3.701,9.169c-1.033,2.561,0.205,5.475,2.765,6.509c0.613,0.247,1.247,0.364,1.87,0.364
		c1.979,0,3.852-1.182,4.638-3.129l2.883-7.143c4.128,2.91,8.343,6.016,12.632,9.352l-2.713,32.578
		c-23.015-2.993-111.093-11.181-128.105,35.76c-8.44-0.423-17.398-0.746-27.033-0.933c-47.126-0.911-73.146-1.751-85.306-2.213
		C16.066,253.348,4.427,239.054,13.239,206.48z M422.986,261.926c-6.577,3.928-23.289,10.397-45.032,16.084
		c-28.478,7.447-57.503,11.549-81.728,11.549c-1.882,0-45.513-2.196-83.183-6.256c-25.772-2.777-52.366-6.141-92.517-6.466
		c-0.014,0-0.027,0-0.041,0c-2.669,0-5,0.816-5,5v7.647H13.412v-24.76c10.262,0.418,36.687,0.749,89.125,2.36
		c57.842,1.777,122.077,9.705,124.84,9.997c17.26,1.828,43.343,4.588,70.149,4.588c14.374,0,27.264-0.824,38.311-2.453
		c39.281-5.789,72.984-18.332,87.149-24.135V261.926z"/>
</g>
<g>
</g>
<g>
</g>
<g>
</g>
<g>
</g>
<g>
</g>
<g>
</g>
<g>
</g>
<g>
</g>
<g>
</g>
<g>
</g>
<g>
</g>
<g>
</g>
<g>
</g>
<g>
</g>
<g>
</g>
</svg>
