<svg height="512pt" viewBox="0 -78 512 512" width="512pt" xmlns="http://www.w3.org/2000/svg"><path d="m408.425781 244.15625-77.6875 30.4375v58.011719c0 13.160156 10.664063 23.824219 23.820313 23.824219h116.777344c13.15625 0 23.824218-10.664063 23.824218-23.824219v-88.449219zm0 0" fill="#8bbe59"/><path d="m361.640625 332.605469v-58.011719l77.691406-30.4375h-30.90625l-77.6875 30.4375v58.011719c0 13.160156 10.664063 23.824219 23.820313 23.824219h30.90625c-13.15625 0-23.824219-10.664063-23.824219-23.824219zm0 0" fill="#7aa544"/><path d="m512 94.664062v-4.035156c0-50.058594-40.582031-90.628906-90.636719-90.628906-50.046875 0-90.628906 40.570312-90.628906 90.628906v4.035156l19.53125 11.941407 35 14.203125 36.101563-15.980469 34.914062 15.21875 35-15.21875zm0 0" fill="#8bbe59"/><path d="m381.179688 270.046875c-8.886719 2-18.539063.707031-26.738282-4.488281l-67.652344-51.386719c-16.5625-10.5-21.476562-32.4375-10.976562-49s32.4375-21.476563 49-10.976563c0 0 67.589844 51.34375 67.652344 51.382813 25.835937 16.378906 19.046875 57.640625-11.285156 64.46875zm0 0" fill="#d64655"/><path d="m512 134.128906v80.816406c0 32.941407-26.703125 59.644532-59.644531 59.644532h-121.617188v-140.460938l19.527344-27.523437 35 14.203125 36.101563-15.980469 34.914062 15.21875 35-15.21875zm0 0" fill="#e95666"/><path d="m361.640625 111.222656v-20.59375c0-44.789062 32.488281-81.976562 75.175781-89.3125-2.433594-.417968-4.90625-.734375-7.40625-.957031-2.675781-.238281-5.363281-.35546875-8.046875-.359375-22.679687 0-43.410156 8.328125-59.308593 22.097656-3.832032 3.324219-7.390626 6.96875-10.621094 10.878906-12.929688 15.667969-20.699219 35.75-20.699219 57.652344v4.035156l19.53125 11.941407zm0 0" fill="#7aa544"/><path d="m350.265625 106.605469-19.527344 27.523437v140.460938h30.902344v-163.367188zm0 0" fill="#d64655"/><path d="m512 94.664062v39.464844l-20.523438-9.953125-27.300781 13.25c-4.902343 2.375-10.613281 2.375-15.503906 0l-27.308594-13.25-27.300781 13.25c-4.902344 2.375-10.613281 2.375-15.503906 0l-27.308594-13.25-20.515625 9.953125v-39.464844l12.761719-6.199218c4.902344-2.371094 10.613281-2.371094 15.503906 0l27.3125 13.25 27.300781-13.25c4.898438-2.371094 10.609375-2.371094 15.5 0l27.3125 13.25 27.308594-13.25c4.890625-2.371094 10.601563-2.371094 15.492187 0zm0 0" fill="#e4e7eb"/><path d="m103.574219 244.15625 77.6875 30.4375v58.011719c0 13.160156-10.664063 23.824219-23.820313 23.824219h-116.777344c-13.15625 0-23.824218-10.664063-23.824218-23.824219v-88.449219zm0 0" fill="#8bbe59"/><path d="m47.746094 332.605469v-88.449219h-30.90625v88.449219c0 13.160156 10.667968 23.824219 23.824218 23.824219h30.90625c-13.15625 0-23.824218-10.664063-23.824218-23.824219zm0 0" fill="#7aa544"/><path d="m0 94.664062v-4.035156c0-50.058594 40.582031-90.628906 90.636719-90.628906 50.046875 0 90.628906 40.570312 90.628906 90.628906v4.035156l-19.53125 11.941407-35 14.203125-36.101563-15.980469-34.914062 15.21875-35-15.214844zm0 0" fill="#8bbe59"/><path d="m130.820312 270.046875c8.886719 2 18.539063.707031 26.738282-4.488281l67.652344-51.386719c16.5625-10.5 21.476562-32.4375 10.976562-49s-32.4375-21.476563-49-10.976563c0 0-67.589844 51.34375-67.652344 51.382813-25.835937 16.378906-19.046875 57.640625 11.285156 64.46875zm0 0" fill="#d64655"/><path d="m0 134.128906v80.816406c0 32.941407 26.703125 59.644532 59.644531 59.644532h121.617188v-140.460938l-19.527344-27.523437-35 14.203125-36.101563-15.980469-34.914062 15.21875-35-15.214844zm0 0" fill="#e95666"/><path d="m30.90625 214.945312v-105.683593l-10.191406-4.429688-20.714844 29.296875v80.816406c0 16.699219 7.1875 32.921876 19.539062 44.152344 10.917969 9.921875 25.355469 15.492188 40.105469 15.492188h30.902344c-32.9375 0-59.640625-26.703125-59.640625-59.644532zm0 0" fill="#d64655"/><path d="m0 94.664062v39.464844l20.523438-9.953125 27.300781 13.25c4.902343 2.375 10.613281 2.375 15.503906 0l27.308594-13.25 27.300781 13.25c4.902344 2.375 10.613281 2.375 15.503906 0l27.308594-13.25 20.515625 9.953125v-39.464844l-12.761719-6.199218c-4.902344-2.371094-10.613281-2.371094-15.503906 0l-27.3125 13.25-27.300781-13.25c-4.898438-2.371094-10.609375-2.371094-15.5 0l-27.3125 13.25-27.308594-13.25c-4.890625-2.371094-10.601563-2.371094-15.492187 0zm0 0" fill="#e4e7eb"/><path d="m20.71875 104.832031 10.1875 4.429688v-18.632813c0-44.789062 32.488281-81.976562 75.183594-89.3125-5.097656-.875-10.277344-1.31249975-15.453125-1.316406-26.695313-.0234375-52.859375 12.292969-69.9375 32.976562-12.933594 15.667969-20.699219 35.75-20.699219 57.652344v4.035156zm0 0" fill="#7aa544"/><g fill="#cacfd7"><path d="m30.90625 129.214844v-38.585938c0-.292968.015625-.582031.019531-.871094l-2.660156-1.292968c-4.890625-2.375-10.601563-2.375-15.492187 0l-12.773438 6.199218v39.464844l20.523438-9.953125zm0 0"/><path d="m361.640625 129.21875v-38.589844c0-.292968.019531-.582031.019531-.871094l-2.660156-1.292968c-4.890625-2.375-10.601562-2.375-15.5 0l-12.765625 6.199218v39.464844l20.515625-9.953125zm0 0"/></g></svg>