<?xml version="1.0" encoding="iso-8859-1"?>
<!-- Generator: Adobe Illustrator 19.0.0, SVG Export Plug-In . SVG Version: 6.00 Build 0)  -->
<svg version="1.1" id="Capa_1" xmlns="http://www.w3.org/2000/svg" xmlns:xlink="http://www.w3.org/1999/xlink" x="0px" y="0px"
	 viewBox="0 0 512 512" style="enable-background:new 0 0 512 512;" xml:space="preserve">
<path style="fill:#ACABB1;" d="M6.458,505.543L6.458,505.543c-8.61-8.61-8.61-22.7,0-31.31l237.293-237.293
	c8.61-8.61,22.7-8.61,31.31,0l0,0c8.61,8.61,8.61,22.7,0,31.31L37.767,505.543C29.157,514.153,15.068,514.153,6.458,505.543z"/>
<path style="fill:#898890;" d="M275.06,236.94L275.06,236.94c-8.61-8.61-22.7-8.61-31.31,0L113.367,367.323
	c6.099,12.384,14.552,24.891,26.206,36.414L275.06,268.25C283.67,259.64,283.67,245.55,275.06,236.94z"/>
<path style="fill:#FFCD00;" d="M405.189,57.378L156.746,0.834c-14.134-3.216-28.729,3.057-36.12,15.525L86.628,73.708
	c-17.892,30.182-18.675,67.53-2.063,98.436l74.994,139.519c9.297,17.298,23.479,31.478,40.777,40.777l139.519,74.994
	c30.905,16.613,68.254,15.83,98.437-2.063l57.348-33.997c12.469-7.392,18.742-21.986,15.526-36.12L454.623,106.81
	C449.02,82.198,429.801,62.979,405.189,57.378z"/>
<path style="fill:#FFEB99;" d="M429.877,68.785L72.749,120.192c-0.811,17.781,3.109,35.752,11.817,51.953l74.994,139.519
	c4.649,8.649,10.518,16.519,17.388,23.388L437.034,74.965C434.805,72.736,432.409,70.676,429.877,68.785z"/>
<g>
	<path style="fill:#FFDE55;" d="M443.214,82.123l-51.407,357.128c-17.781,0.811-35.752-3.109-51.953-11.817l-139.519-74.994
		c-8.648-4.649-16.519-10.518-23.388-17.388L437.034,74.965C439.264,77.194,441.324,79.591,443.214,82.123z"/>
	<path style="fill:#FFDE55;" d="M429.877,68.785L72.749,120.192c-0.811,17.781,3.109,35.752,11.817,51.953l26.05,48.464
		C243.997,136.351,437.034,74.965,437.034,74.965C434.805,72.736,432.409,70.676,429.877,68.785z"/>
</g>
<g>
</g>
<g>
</g>
<g>
</g>
<g>
</g>
<g>
</g>
<g>
</g>
<g>
</g>
<g>
</g>
<g>
</g>
<g>
</g>
<g>
</g>
<g>
</g>
<g>
</g>
<g>
</g>
<g>
</g>
</svg>
