<?xml version="1.0"?>
<svg xmlns="http://www.w3.org/2000/svg" height="512px" viewBox="1 0 511.999 511" width="512px" class=""><g><path d="m386.976562 88.535156c-9.035156 0-17.972656.960938-26.710937 2.867188-9.691406-23.976563-25.859375-45.320313-46.519531-61.125-25.464844-19.480469-55.910156-29.777344-88.046875-29.777344-31.382813 0-61.253907 9.863281-86.382813 28.527344-22.335937 16.585937-39.148437 38.726562-49.003906 64.40625-24.21875 7.007812-46.042969 21.375-62.132812 41.054687-18.171876 22.230469-28.179688 50.308594-28.179688 79.070313 0 68.9375 56.085938 125.023437 125.023438 125.023437h261.953124c68.9375 0 125.023438-56.085937 125.023438-125.023437s-56.085938-125.023438-125.023438-125.023438zm0 220.046875h-261.953124c-52.394532 0-95.023438-42.625-95.023438-95.023437 0-21.859375 7.601562-43.195313 21.40625-60.085938 13.625-16.664062 32.640625-28.3125 53.542969-32.808594 5.253906-1.128906 9.503906-4.984374 11.136719-10.109374 7.25-22.734376 21.851562-43.136719 41.117187-57.441407 19.917969-14.792969 43.601563-22.613281 68.496094-22.613281 25.488281 0 49.632812 8.164062 69.816406 23.605469 19.558594 14.964843 34.039063 36.160156 40.777344 59.683593 1.136719 3.96875 3.855469 7.292969 7.519531 9.1875 3.664062 1.898438 7.949219 2.207032 11.84375.847657 10.050781-3.507813 20.589844-5.289063 31.320312-5.289063 52.394532 0 95.023438 42.628906 95.023438 95.023438 0 52.398437-42.628906 95.023437-95.023438 95.023437zm0 0" data-original="#000000" class="active-path" data-old_color="#000000" fill="#FFFFFF"/><path d="m55.886719 410.949219c-8.28125 0-15 6.714843-15 15v70.015625c0 8.285156 6.71875 15 15 15 8.285156 0 15-6.714844 15-15v-70.015625c0-8.285157-6.714844-15-15-15zm0 0" data-original="#000000" class="active-path" data-old_color="#000000" fill="#FFFFFF"/><path d="m135.90625 370.941406c-8.285156 0-15 6.714844-15 15v50.011719c0 8.285156 6.714844 15 15 15s15-6.714844 15-15v-50.011719c0-8.285156-6.714844-15-15-15zm0 0" data-original="#000000" class="active-path" data-old_color="#000000" fill="#FFFFFF"/><path d="m215.925781 410.949219c-8.285156 0-15 6.714843-15 15v70.015625c0 8.285156 6.714844 15 15 15 8.28125 0 15-6.714844 15-15v-70.015625c0-8.285157-6.71875-15-15-15zm0 0" data-original="#000000" class="active-path" data-old_color="#000000" fill="#FFFFFF"/><path d="m295.941406 370.941406c-8.285156 0-15 6.714844-15 15v50.011719c0 8.285156 6.714844 15 15 15s15-6.714844 15-15v-50.011719c0-8.285156-6.714844-15-15-15zm0 0" data-original="#000000" class="active-path" data-old_color="#000000" fill="#FFFFFF"/><path d="m375.960938 410.949219c-8.285157 0-15 6.714843-15 15v70.015625c0 8.285156 6.714843 15 15 15 8.28125 0 15-6.714844 15-15v-70.015625c0-8.285157-6.71875-15-15-15zm0 0" data-original="#000000" class="active-path" data-old_color="#000000" fill="#FFFFFF"/><path d="m455.976562 370.941406c-8.285156 0-15 6.714844-15 15v50.011719c0 8.285156 6.714844 15 15 15 8.285157 0 15-6.714844 15-15v-50.011719c0-8.285156-6.714843-15-15-15zm0 0" data-original="#000000" class="active-path" data-old_color="#000000" fill="#FFFFFF"/></g> </svg>
