<?xml version="1.0" encoding="utf-8"?>
<!-- Generator: Adobe Illustrator 19.0.0, SVG Export Plug-In . SVG Version: 6.00 Build 0)  -->
<svg version="1.1" id="Layer_1" xmlns="http://www.w3.org/2000/svg" xmlns:xlink="http://www.w3.org/1999/xlink" x="0px" y="0px"
	 viewBox="-34 36 30 30" style="enable-background:new -34 36 30 30;" xml:space="preserve">
<style type="text/css">
	.st0{fill:#FFFFFF;}
</style>
<path class="st0" d="M-29.4,52.9c0-1.1,0.4-2.2,1.1-3.1s1.6-1.5,2.7-1.7c0.3-1.4,1-2.5,2.1-3.4c1.1-0.9,2.3-1.3,3.8-1.3
	c1.4,0,2.6,0.4,3.7,1.3s1.8,2,2.1,3.3h0.3c0.9,0,1.7,0.2,2.5,0.6c0.8,0.4,1.4,1,1.8,1.8c0.4,0.8,0.7,1.6,0.7,2.5
	c0,0.9-0.2,1.7-0.6,2.4s-1,1.4-1.7,1.8c-0.7,0.4-1.5,0.7-2.4,0.7c-0.1,0-0.2-0.1-0.2-0.2v-1.3c0-0.1,0.1-0.2,0.2-0.2
	c0.9,0,1.6-0.4,2.2-1c0.6-0.6,0.9-1.4,0.9-2.3s-0.3-1.6-1-2.3c-0.6-0.6-1.4-1-2.3-1h-1.6c-0.1,0-0.2-0.1-0.2-0.2l-0.1-0.6
	c-0.1-1.1-0.6-2-1.4-2.7c-0.8-0.7-1.8-1.1-2.9-1.1s-2,0.4-2.9,1.1c-0.8,0.7-1.3,1.6-1.4,2.7l-0.1,0.5c0,0.1-0.1,0.2-0.2,0.2l-0.5,0
	c-0.8,0.1-1.5,0.5-2.1,1.1c-0.6,0.6-0.9,1.3-0.9,2.2c0,0.9,0.3,1.6,0.9,2.3s1.3,1,2.2,1c0.1,0,0.2,0.1,0.2,0.2v1.3
	c0,0.1-0.1,0.2-0.2,0.2c-1.3-0.1-2.5-0.6-3.4-1.5S-29.4,54.2-29.4,52.9z M-24,59.6c0,0,0-0.1,0-0.2l1.6-5.8c0.1-0.2,0.2-0.3,0.3-0.4
	s0.3-0.1,0.5-0.1c0.1,0,0.2,0,0.2,0c0.2,0,0.4,0.2,0.5,0.4c0.1,0.2,0.1,0.4,0.1,0.7l-1.6,5.7c-0.1,0.4-0.4,0.6-0.8,0.6
	c0,0-0.1,0-0.1,0c-0.1,0-0.1,0-0.1,0c-0.2-0.1-0.4-0.2-0.5-0.3C-24,59.9-24,59.8-24,59.6z M-21.4,62.4l2.4-8.8
	c0-0.2,0.1-0.3,0.3-0.4c0.2-0.1,0.3-0.1,0.5-0.1c0.1,0,0.2,0,0.3,0c0.2,0.1,0.4,0.2,0.5,0.4c0.1,0.2,0.1,0.4,0.1,0.6l-2.4,8.8
	c0,0.2-0.1,0.3-0.3,0.4s-0.3,0.2-0.5,0.2c-0.1,0-0.2,0-0.2,0c-0.2,0-0.4-0.2-0.5-0.4C-21.4,62.9-21.5,62.7-21.4,62.4z M-17.3,59.6
	c0,0,0-0.1,0-0.2l1.6-5.8c0.1-0.2,0.2-0.3,0.3-0.4c0.1-0.1,0.3-0.2,0.5-0.2c0.1,0,0.2,0,0.3,0c0.2,0.1,0.4,0.2,0.5,0.3
	c0.1,0.1,0.1,0.3,0.1,0.5c0,0,0,0.1,0,0.1s0,0.1,0,0.1l-1.6,5.7c0,0.2-0.1,0.3-0.3,0.5c-0.2,0.1-0.3,0.2-0.5,0.2l-0.2,0
	c-0.2-0.1-0.4-0.2-0.5-0.3C-17.2,59.9-17.3,59.8-17.3,59.6z"/>
</svg>
