<?xml version="1.0" encoding="utf-8"?>
<!-- Generator: Adobe Illustrator 19.0.0, SVG Export Plug-In . SVG Version: 6.00 Build 0)  -->
<svg version="1.1" id="Layer_1" xmlns="http://www.w3.org/2000/svg" xmlns:xlink="http://www.w3.org/1999/xlink" x="0px" y="0px"
	 viewBox="-34 36 30 30" style="enable-background:new -34 36 30 30;" xml:space="preserve">
<style type="text/css">
	.st0{fill:#FFFFFF;}
</style>
<path class="st0" d="M-29.4,53c0-1.2,0.4-2.2,1.1-3.1c0.7-0.9,1.6-1.5,2.7-1.8c0.3-1.4,1-2.5,2.1-3.4c1.1-0.9,2.3-1.3,3.8-1.3
	c1.4,0,2.6,0.4,3.7,1.3s1.8,2,2.1,3.3h0.3c0.9,0,1.7,0.2,2.5,0.7s1.4,1,1.8,1.8c0.4,0.8,0.7,1.6,0.7,2.5c0,1.3-0.5,2.5-1.4,3.4
	c-0.9,1-2,1.5-3.4,1.5c-0.1,0-0.2-0.1-0.2-0.2v-1.3c0-0.1,0.1-0.2,0.2-0.2c0.9,0,1.6-0.4,2.2-1c0.6-0.6,0.9-1.4,0.9-2.2
	c0-0.9-0.3-1.7-1-2.3s-1.4-1-2.3-1h-1.6c-0.1,0-0.2-0.1-0.2-0.2l-0.1-0.6c-0.1-1.1-0.6-2-1.4-2.7c-0.8-0.7-1.8-1.1-2.9-1.1
	c-1.1,0-2,0.4-2.9,1.1c-0.8,0.7-1.3,1.7-1.4,2.8l-0.1,0.5c0,0.1-0.1,0.2-0.2,0.2l-0.5,0.1c-0.8,0.1-1.5,0.4-2.1,1s-0.9,1.4-0.9,2.2
	c0,0.9,0.3,1.6,0.9,2.2c0.6,0.6,1.3,1,2.2,1c0.1,0,0.2,0.1,0.2,0.2v1.3c0,0.1-0.1,0.2-0.2,0.2c-1.3,0-2.5-0.5-3.4-1.5
	C-28.9,55.4-29.4,54.3-29.4,53z M-23,57c0-0.2,0.1-0.4,0.2-0.6c0.2-0.2,0.4-0.2,0.6-0.2c0.2,0,0.4,0.1,0.6,0.2
	c0.2,0.2,0.2,0.4,0.2,0.6c0,0.2-0.1,0.4-0.2,0.6c-0.2,0.2-0.4,0.2-0.6,0.2c-0.2,0-0.4-0.1-0.6-0.2C-22.9,57.5-23,57.3-23,57z
	 M-23,60.7c0-0.2,0.1-0.4,0.2-0.6c0.2-0.1,0.4-0.2,0.6-0.2s0.4,0.1,0.6,0.2c0.2,0.2,0.2,0.4,0.2,0.6s-0.1,0.4-0.2,0.6
	s-0.4,0.2-0.6,0.2c-0.2,0-0.4-0.1-0.6-0.2C-22.9,61.1-23,60.9-23,60.7z M-19.8,59c0-0.2,0.1-0.4,0.2-0.6c0.2-0.2,0.4-0.2,0.6-0.2
	c0.2,0,0.4,0.1,0.6,0.3c0.2,0.2,0.3,0.4,0.3,0.6s-0.1,0.4-0.2,0.6c-0.2,0.2-0.4,0.2-0.6,0.2c-0.2,0-0.4-0.1-0.6-0.2
	C-19.7,59.4-19.8,59.2-19.8,59z M-19.8,55.3c0-0.2,0.1-0.4,0.2-0.6c0.2-0.2,0.4-0.2,0.6-0.2c0.2,0,0.4,0.1,0.6,0.2
	c0.2,0.2,0.2,0.4,0.2,0.6c0,0.2-0.1,0.4-0.2,0.6s-0.4,0.2-0.6,0.2c-0.2,0-0.4-0.1-0.6-0.2C-19.7,55.8-19.8,55.6-19.8,55.3z
	 M-19.8,62.6c0-0.2,0.1-0.4,0.2-0.6c0.2-0.2,0.4-0.2,0.6-0.2c0.2,0,0.4,0.1,0.6,0.2c0.2,0.2,0.2,0.4,0.2,0.6s-0.1,0.4-0.2,0.6
	s-0.4,0.2-0.6,0.2c-0.2,0-0.4-0.1-0.6-0.2C-19.7,63-19.8,62.8-19.8,62.6z M-16.6,57c0-0.2,0.1-0.4,0.2-0.6c0.2-0.2,0.4-0.2,0.6-0.2
	s0.4,0.1,0.6,0.2s0.2,0.4,0.2,0.6c0,0.2-0.1,0.4-0.2,0.6c-0.2,0.2-0.4,0.2-0.6,0.2s-0.4-0.1-0.6-0.2C-16.5,57.5-16.6,57.2-16.6,57z
	 M-16.6,60.7c0-0.2,0.1-0.4,0.2-0.6c0.2-0.1,0.4-0.2,0.6-0.2s0.4,0.1,0.6,0.2s0.2,0.4,0.2,0.6s-0.1,0.4-0.2,0.6
	c-0.2,0.2-0.4,0.2-0.6,0.2s-0.4-0.1-0.6-0.2C-16.5,61.1-16.6,60.9-16.6,60.7z"/>
</svg>
