<?xml version="1.0"?>
<svg xmlns="http://www.w3.org/2000/svg" height="512px" viewBox="0 0 512 512" width="512px"><g><path d="m486.261719 152.539062c-13.988281-14.273437-31.9375-23.199218-51.453125-25.769531-3.777344-70.539062-62.441406-126.769531-134.011719-126.769531-33.398437 0-65.398437 12.355469-90.109375 34.789062-21.148438 19.203126-35.476562 44.410157-41.1875 72.039063-18.726562 5.691406-36.117188 15.433594-50.910156 28.761719-20.773438 18.710937-35.003906 43.15625-40.992188 70.007812-19.332031 4.699219-36.925781 15.050782-50.644531 30-17.382813 18.945313-26.953125 43.585938-26.953125 69.378906 0 56.253907 45.730469 102.023438 101.945312 102.023438v-40c-34.15625 0-61.945312-27.824219-61.945312-62.023438 0-32.25 24.859375-59.5 56.597656-62.039062l16.597656-1.332031 1.699219-16.566407c4.917969-47.910156 45.285157-84.039062 93.902344-84.039062 51.941406 0 94.203125 41.71875 94.203125 93v33h27c27.570312 0 50 22.441406 50 50.023438 0 27.558593-22.382812 49.976562-49.894531 49.976562v40c49.570312 0 89.894531-40.363281 89.894531-89.976562 0-3.734376-.25-7.40625-.691406-11.023438h2.691406c49.625 0 90-40.363281 90-89.976562 0-23.996094-9.140625-46.542969-25.738281-63.484376zm-64.261719 113.460938h-17.914062c-13.9375-20.1875-35.886719-34.4375-61.222657-38.082031-1.492187-33.496094-15.316406-64.65625-39.300781-88.289063-24.371094-24.015625-56.527344-37.625-90.917969-38.570312 13.386719-36.03125 47.933594-61.058594 88.152344-61.058594 51.941406 0 94.203125 42.167969 94.203125 94v32h28c27.476562 0 49 21.972656 49 50.023438 0 27.558593-22.429688 49.976562-50 49.976562zm-202 101h76l-105 145 20-105h-74l108-155zm0 0" data-original="#000000" class="active-path" data-old_color="#F4E5E5" fill="#FFFFFF"/></g> </svg>
