<?xml version="1.0" encoding="utf-8"?>
<!-- Generator: Adobe Illustrator 19.0.0, SVG Export Plug-In . SVG Version: 6.00 Build 0)  -->
<svg version="1.1" id="Layer_1" xmlns="http://www.w3.org/2000/svg" xmlns:xlink="http://www.w3.org/1999/xlink" x="0px" y="0px"
	 viewBox="-34 36 30 30" style="enable-background:new -34 36 30 30;" xml:space="preserve">
<style type="text/css">
	.st0{fill:#FFFFFF;}
</style>
<path class="st0" d="M-29.4,52.9c0,1.1,0.3,2.1,1,3c0.7,0.9,1.5,1.5,2.6,1.8l-0.7,1.7c0,0.1,0,0.2,0.1,0.2h2.1l-1,4.3h0.3l3.9-5.8
	c0,0,0-0.1,0-0.1c0,0-0.1-0.1-0.2-0.1h-2.2l2.5-4.6c0.1-0.1,0-0.2-0.1-0.2h-2.9c-0.1,0-0.2,0-0.2,0.1l-1.1,2.9
	c-0.7-0.2-1.3-0.6-1.8-1.2c-0.5-0.6-0.7-1.3-0.7-2c0-0.8,0.3-1.6,0.9-2.2c0.6-0.6,1.3-1,2.1-1.1l0.5-0.1c0.1,0,0.2-0.1,0.2-0.2
	l0.1-0.5c0.1-1.1,0.6-2,1.4-2.7c0.8-0.7,1.8-1.1,2.9-1.1c1.1,0,2,0.4,2.9,1.1c0.8,0.7,1.3,1.6,1.4,2.7l0.1,0.6
	c0,0.1,0.1,0.2,0.2,0.2h1.6c0.9,0,1.7,0.3,2.3,0.9c0.6,0.6,1,1.4,1,2.3c0,0.9-0.3,1.6-0.9,2.2s-1.3,1-2.2,1c-0.1,0-0.2,0.1-0.2,0.2
	v1.4c0,0.1,0.1,0.2,0.2,0.2c1.3,0,2.5-0.5,3.4-1.5c0.9-1,1.4-2.1,1.4-3.5c0-0.9-0.2-1.7-0.7-2.5c-0.4-0.8-1-1.4-1.8-1.8
	c-0.8-0.4-1.6-0.7-2.5-0.7h-0.3c-0.3-1.3-1-2.4-2.1-3.3s-2.3-1.3-3.7-1.3c-1.4,0-2.7,0.4-3.8,1.3s-1.8,2-2.1,3.4
	c-1.1,0.3-2,0.8-2.7,1.7S-29.4,51.8-29.4,52.9z M-21.2,62.6c0,0.4,0.2,0.6,0.6,0.8c0,0,0.1,0,0.1,0c0.1,0,0.1,0,0.1,0
	c0.2,0,0.3-0.1,0.5-0.2s0.3-0.3,0.3-0.5l2.2-8.7c0.1-0.2,0-0.5-0.1-0.7c-0.1-0.2-0.3-0.3-0.5-0.4c-0.2,0-0.3,0-0.3,0
	c-0.2,0-0.3,0-0.5,0.2c-0.2,0.1-0.3,0.2-0.3,0.4l-2.3,8.7C-21.2,62.4-21.2,62.5-21.2,62.6z M-17.1,59.6c0,0.1,0,0.3,0.1,0.4
	c0.1,0.2,0.3,0.4,0.5,0.4c0.1,0,0.2,0.1,0.3,0.1s0.2,0,0.3-0.1c0.2-0.1,0.4-0.3,0.4-0.6l1.4-5.7c0-0.1,0-0.2,0-0.3
	c0-0.1,0-0.3-0.2-0.4s-0.3-0.3-0.5-0.3c-0.2,0-0.3,0-0.3,0c-0.2,0-0.3,0-0.5,0.1c-0.1,0.1-0.2,0.2-0.3,0.5l-1.5,5.7c0,0,0,0,0,0.1
	C-17.1,59.5-17.1,59.5-17.1,59.6z"/>
</svg>
