<?xml version="1.0" encoding="iso-8859-1"?>
<!-- Generator: Adobe Illustrator 19.0.0, SVG Export Plug-In . SVG Version: 6.00 Build 0)  -->
<svg version="1.1" id="Capa_1" xmlns="http://www.w3.org/2000/svg" xmlns:xlink="http://www.w3.org/1999/xlink" x="0px" y="0px"
	 viewBox="0 0 512.403 512.403" style="enable-background:new 0 0 512.403 512.403;" xml:space="preserve">
<path style="fill:#F44336;" d="M288.201,0.403c-18.849-2.047-37.709,3.764-52.139,16.064c-2.983,3.42-7.324,5.349-11.861,5.269
	c-5.216,0.029-10.159-2.328-13.419-6.4c-10.575-10.429-25.091-15.86-39.915-14.933c-40,0-128,67.051-128,138.667
	c0,5.891,4.776,10.667,10.667,10.667h42.667c2.831,0.005,5.548-1.115,7.552-3.115c3.543-3.251,7.452-6.079,11.648-8.427
	c-4.672,14.507-7.573,27.136-8.213,30.016l-20.715,62.336c-10.896,21.563-18.408,44.674-22.272,68.523
	c-0.003,0.871,0.104,1.738,0.32,2.581c0.96,3.819,25.152,93.419,181.013,93.419c154.155,0,199.68-87.467,201.536-91.221
	c0.743-1.483,1.131-3.12,1.131-4.779C448.201,113.79,344.607,0.403,288.201,0.403z"/>
<path style="fill:#CFD8DC;" d="M448.201,288.403c-19.095,1.296-37.956,4.958-56.149,10.901
	c-44.062,13.405-89.799,20.509-135.851,21.099c-46.052-0.59-91.789-7.693-135.851-21.099c-18.193-5.943-37.054-9.605-56.149-10.901
	c-48.363,0-64,79.061-64,117.333c0,51.371,80.107,106.667,256,106.667s256-55.296,256-106.667
	C512.201,367.464,496.564,288.403,448.201,288.403z"/>
<path style="fill:#D32F2F;" d="M74.868,171.07c-5.891,0.011-10.675-4.757-10.686-10.648c-0.005-2.84,1.123-5.565,3.134-7.571
	c42.292-40.858,98.128-64.745,156.885-67.115c5.891,0,10.667,4.776,10.667,10.667c0,5.891-4.776,10.667-10.667,10.667
	c-53.02,2.689-103.321,24.29-141.781,60.885C80.416,169.954,77.699,171.075,74.868,171.07z"/>
<circle style="fill:#FFC107;" cx="64.201" cy="192.403" r="64"/>
<g>
</g>
<g>
</g>
<g>
</g>
<g>
</g>
<g>
</g>
<g>
</g>
<g>
</g>
<g>
</g>
<g>
</g>
<g>
</g>
<g>
</g>
<g>
</g>
<g>
</g>
<g>
</g>
<g>
</g>
</svg>
