<svg height="512pt" viewBox="-4 0 512 512.00034" width="512pt" xmlns="http://www.w3.org/2000/svg"><path d="m275.507812 31.4375v-10.375c0-11.585938-9.476562-21.0625-21.0625-21.0625h-4.746093c-11.582031 0-21.058594 9.476562-21.058594 21.0625v10.375c15.375-1.433594 30.621094-1.515625 46.867187 0zm0 0" fill="#525468"/><path d="m249.246094 21.796875c0-8.789063 4.796875-16.507813 11.898437-20.679687-2.105469-.714844-4.355469-1.117188-6.699219-1.117188h-4.746093c-11.582031 0-21.058594 9.476562-21.058594 21.0625v10.375c6.796875-.632812 13.667969-.992188 20.605469-1.074219zm0 0" fill="#3e4151"/><path d="m161.808594 286.65625h180.53125c68.59375 0 128.914062 37.199219 161.808594 92.414062v-99.757812c0-138.570312-113.363282-252.074219-252.074219-252.074219-138.640625 0-252.074219 113.433594-252.074219 252.074219v99.757812c32.894531-55.214843 93.214844-92.414062 161.808594-92.414062zm0 0" fill="#72bdf6"/><path d="m20.605469 272.101562c0-105.835937 66.105469-196.96875 159.058593-234.179687-103.636718 31.304687-179.664062 127.894531-179.664062 241.390625v99.757812c5.996094-10.058593 12.90625-19.511718 20.605469-28.257812zm0 0" fill="#4b98d4"/><path d="m342.339844 286.65625h-180.53125c-68.59375 0-128.914063 37.199219-161.808594 92.414062v101.902344c0 .226563 0 .453125.00390625.679688.06640625 24.90625 28.78124975 39.25 48.63671875 24.21875 31.550781-23.882813 70.78125-38.085938 113.167969-38.085938h180.53125c42.386718 0 81.617187 14.203125 113.167968 38.085938 19.855469 15.03125 48.570313.6875 48.636719-24.21875.003907-.226563.003907-.453125.003907-.679688v-101.902344c-32.894532-55.214843-93.214844-92.414062-161.808594-92.414062zm0 0" fill="#e4e3e1"/><path d="m20.605469 481.484375c0-.226563 0-.457031 0-.683594v-130.160156c-7.699219 8.75-14.609375 18.203125-20.605469 28.261719v101.898437c0 .226563 0 .457031.00390625.683594.05859375 21.796875 22.05468775 35.5 40.85937475 28.507813-11.3125-4.078126-20.21875-14.652344-20.257812-28.507813zm0 0" fill="#d1d0cf"/><path d="m476.109375 505.699219c-31.550781-23.878907-70.777344-38.082031-113.164063-38.082031h-20.605468c42.386718 0 81.617187 14.203124 113.167968 38.082031 8.808594 6.671875 19.359376 7.546875 28.382813 4.292969-2.683594-.996094-5.300781-2.414063-7.78125-4.292969zm0 0" fill="#d1d0cf"/><path d="m125.390625 133.238281v156.996094c11.792969-2.335937 23.964844-3.578125 36.417969-3.578125h180.53125c12.453125 0 24.625 1.242188 36.417968 3.578125v-156.996094c0-45.308593-28.816406-84.203125-69.023437-99.292969-37.832031-8.9375-77.453125-8.949218-115.320313 0-40.207031 15.089844-69.023437 53.984376-69.023437 99.292969zm0 0" fill="#4b98d4"/><path d="m145.996094 133.238281c0-45.308593 28.816406-84.203125 69.019531-99.292969 15.308594-3.617187 31.144531-5.808593 47.359375-6.472656-22.652344-.925781-45.234375 1.101563-67.960938 6.472656-40.207031 15.089844-69.023437 53.984376-69.023437 99.292969v156.996094c6.75-1.335937 13.625-2.300781 20.605469-2.894531zm0 0" fill="#2472b2"/><path d="m318.914062 192.664062h-133.679687c-7.832031 0-14.238281 6.40625-14.238281 14.238282v26.101562c0 7.832032 6.40625 14.238282 14.238281 14.238282h133.679687c7.832032 0 14.238282-6.40625 14.238282-14.238282v-26.101562c0-7.832032-6.40625-14.238282-14.238282-14.238282zm0 0" fill="#e4e3e1"/><path d="m318.914062 226.636719h-133.679687c-7.832031 0-14.238281-6.40625-14.238281-14.238281v20.605468c0 7.832032 6.40625 14.238282 14.238281 14.238282h133.679687c7.832032 0 14.238282-6.40625 14.238282-14.238282v-20.605468c0 7.832031-6.40625 14.238281-14.238282 14.238281zm0 0" fill="#d1d0cf"/><path d="m342.339844 286.65625h-180.53125c-43.339844 0-83.367188 14.863281-115.269532 39.730469v102.992187c0 9.894532 10.207032 16.53125 19.222657 12.457032 29.964843-13.558594 62.472656-20.585938 96.046875-20.585938h180.53125c33.394531 0 65.730468 6.949219 95.5625 20.363281 9.25 4.164063 19.707031-2.621093 19.707031-12.765625v-102.464844c-31.902344-24.863281-71.929687-39.726562-115.269531-39.726562zm0 0" fill="#d1d0cf"/><path d="m67.140625 429.378906v-116.972656c-7.179687 4.214844-14.066406 8.882812-20.601563 13.976562v102.996094c0 9.894532 10.207032 16.535156 19.222657 12.457032 1.886719-.855469 3.789062-1.683594 5.695312-2.488282-2.617187-2.445312-4.316406-5.9375-4.316406-9.96875zm0 0" fill="#c1c1c1"/></svg>