<?xml version="1.0" encoding="iso-8859-1"?>
<!-- Generator: Adobe Illustrator 19.0.0, SVG Export Plug-In . SVG Version: 6.00 Build 0)  -->
<svg version="1.1" id="Layer_1" xmlns="http://www.w3.org/2000/svg" xmlns:xlink="http://www.w3.org/1999/xlink" x="0px" y="0px"
	 viewBox="0 0 464.716 464.716" style="enable-background:new 0 0 464.716 464.716;" xml:space="preserve">
<g>
	<path style="fill:#A9D856;" d="M120.031,232.913c0,1.369,0.009,2.72,0.039,4.069c0.671,39.33,10.691,72.021,2.48,113.701
		c-3.649,18.51-10.89,38.79-24.139,62.22L67.5,390.132c3.61-6.03,6.66-11.93,9.229-17.729c19.821-44.61,11.22-82.751,7.451-119.76
		c-0.85-8.221-1.45-16.4-1.45-24.571c0-58.84,61.65-77.53,61.65-77.53h50.579C194.959,150.542,120.031,174.072,120.031,232.913"/>
	<path style="fill:#A9D856;" d="M175.99,209.372c4.02,18.65,10,35.19,15.339,51.94c7.27,22.771,13.34,45.92,11.69,75.3h-0.009
		c-0.87,15.679-3.95,33.14-10.231,53.26l-35.009-15.75c2.48-7.32,4.34-14.36,5.66-21.15c6.989-35.689-0.731-64.51-9.82-91.66
		c-5.521-16.501-11.551-32.391-15.091-48.82c-12.4-57.52,43.93-88.78,43.93-88.78l49.45-10.649
		C231.9,113.062,163.601,151.852,175.99,209.372"/>
	<path style="fill:#E5C74A;" d="M445.618,256.851c32.478,9.127,22.148,56.088-20.491,56.088
		c-56.693,0-130.533-43.785-255.392-14.921c-101.677,23.504-51.978-54.355-30.02-84.076c5.061-6.849,13.473-10.357,21.906-9.167
		l228.562,32.278c1.623,0.229,3.217,0.629,4.756,1.195L445.618,256.851"/>
	<path style="fill:#FFDE55;" d="M236.071,51.812h-5.84c-54.529,0-98.734,44.205-98.734,98.734v31.829h203.306v-31.829
		C334.804,96.017,290.599,51.812,236.071,51.812"/>
	<path style="fill:#A0C858;" d="M200.861,298.436c-11.394,3.854-23.053,7.227-35.751,9.749c0.656,5.551,1.025,11.253,1.027,17.133
		c0.004,8.781-0.809,17.964-2.707,27.653l39.58-16.359h0.009c0.187-3.328,0.275-6.577,0.273-9.753
		C203.287,316.753,202.375,307.37,200.861,298.436"/>
	<path style="fill:#A0C858;" d="M89.305,311.848c-0.076,19.081-3.029,39.069-12.575,60.554v0.02l45.821-21.74
		c2.357-11.967,3.212-23.192,3.216-34.047c0-1.304-0.011-2.605-0.034-3.898c-3.574,0.135-7.247,0.206-11.022,0.206
		C105.538,312.942,97.087,312.554,89.305,311.848"/>
	<path style="fill:#FFDE55;" d="M447.96,257.852c-1.08-0.23-34.8-7.339-63.731-5.53c-142.219,8.889-166.93,60.62-269.52,60.62
		C12.13,312.942,0,264.442,0,264.442c3.01-1.151,5.99-2.36,8.97-3.63c64.57-27.3,122.531-78.44,122.531-78.44H334.8
		C334.8,182.372,394.92,238.231,447.96,257.852"/>
	<polyline style="fill:#A9D856;" points="334.804,146.004 131.498,146.004 131.498,182.375 334.804,182.375 334.804,146.004 	"/>
	<path style="fill:#E9E9E9;" d="M144.985,100.701c-7.854,13.404-12.639,28.83-13.385,45.303l0,0
		C132.346,129.528,137.129,114.107,144.985,100.701 M145.069,100.558c-0.012,0.021-0.027,0.046-0.04,0.068
		C145.043,100.602,145.055,100.582,145.069,100.558 M236.404,51.812c7.323,0.024,14.451,0.844,21.316,2.38
		C250.856,52.654,243.722,51.836,236.404,51.812 M236.079,51.812h-5.841l0,0h5.833c0.1,0,0.203,0,0.303,0
		C236.276,51.812,236.177,51.812,236.079,51.812"/>
	<path style="fill:#E9CD57;" d="M236.071,51.812h-5.833c-36.291,0-68.01,19.575-85.169,48.746c-0.014,0.024-0.026,0.043-0.04,0.068
		c-0.016,0.026-0.028,0.048-0.044,0.075c-7.856,13.406-12.639,28.827-13.385,45.303h55.5c1.987-43.947,32.694-80.396,73.798-91.042
		c-1.053-0.273-2.113-0.53-3.179-0.769c-6.865-1.536-13.993-2.356-21.316-2.38c-0.01,0-0.02,0-0.03,0
		C236.275,51.812,236.171,51.812,236.071,51.812"/>
	<path style="fill:#A0C858;" d="M187.101,146.004h-55.5c-0.068,1.504-0.103,3.017-0.103,4.538v31.831h0.003l0,0H187l-0.001-31.831
		C186.999,149.021,187.033,147.508,187.101,146.004"/>
	<path style="fill:#E9CD57;" d="M131.498,182.375c-0.443,0.391-58.206,51.243-122.528,78.438c-2.98,1.27-5.96,2.479-8.97,3.63
		c0,0,12.13,48.5,114.71,48.5c74.795-66.725,72.31-130.104,72.291-130.567h-55.503"/>
	<polyline style="fill:#A0C858;" points="187,182.372 187,182.372 186.999,182.372 131.501,182.372 131.498,182.375 
		131.498,182.375 187,182.375 187,182.372 	"/>
	<polyline style="fill:#98BA5A;" points="187,182.372 131.501,182.372 131.501,182.372 186.999,182.372 	"/>
</g>
<g>
</g>
<g>
</g>
<g>
</g>
<g>
</g>
<g>
</g>
<g>
</g>
<g>
</g>
<g>
</g>
<g>
</g>
<g>
</g>
<g>
</g>
<g>
</g>
<g>
</g>
<g>
</g>
<g>
</g>
</svg>
