<?xml version="1.0" encoding="iso-8859-1"?>
<!-- Generator: Adobe Illustrator 19.0.0, SVG Export Plug-In . SVG Version: 6.00 Build 0)  -->
<svg xmlns="http://www.w3.org/2000/svg" xmlns:xlink="http://www.w3.org/1999/xlink" version="1.1" id="Layer_1" x="0px" y="0px" viewBox="0 0 512 512" style="enable-background:new 0 0 512 512;" xml:space="preserve" width="512" height="512">
<g id="XMLID_184_">
	<path id="XMLID_185_" style="fill:#FAB03C;" d="M382.032,10.302v31.225H101.27V10.302C101.27,4.612,105.882,0,111.571,0H371.73   C377.419,0,382.032,4.612,382.032,10.302z"/>
	<rect id="XMLID_186_" x="101.27" y="15.699" style="fill:#FD8F3E;" width="280.762" height="25.828"/>
	<path id="XMLID_187_" style="fill:#82807F;" d="M380.043,228.904c-4.034,0-7.305,3.27-7.305,7.305v10.915l-15.126-15.126   c-1.737-1.737-4.13-2.409-6.382-2.031c-2.251-0.379-4.645,0.294-6.382,2.031l-18.996,18.996l-18.996-18.996   c-1.737-1.736-4.13-2.409-6.381-2.031c-2.251-0.379-4.645,0.294-6.382,2.031l-15.126,15.126v-10.916   c0-4.035-3.27-7.305-7.305-7.305c-4.034,0-7.305,3.27-7.305,7.305V400.71c0,8.201,5.824,15.066,13.553,16.682   c3.723,13.948,16.461,24.254,31.566,24.254h32.752c15.105,0,27.843-10.306,31.566-24.254c7.728-1.616,13.552-8.48,13.552-16.681   V236.209C387.347,232.174,384.077,228.904,380.043,228.904z M372.738,348.634l-11.177-11.177l11.177-11.177V348.634z    M361.561,388.211l11.177-11.177v22.353L361.561,388.211z M325.966,403.145h-0.225l-14.934-14.934l15.047-15.047l15.047,15.046   L325.966,403.145z M278.968,399.388v-22.354l11.177,11.177L278.968,399.388z M285.429,362.834l15.047-15.047l15.047,15.046   l-15.047,15.047L285.429,362.834z M336.184,362.834l15.046-15.046l15.047,15.047l-15.046,15.046L336.184,362.834z M351.23,327.126   l-15.046-15.046l15.047-15.046l15.046,15.046L351.23,327.126z M340.899,337.457l-15.046,15.046l-15.047-15.046l15.046-15.046   L340.899,337.457z M300.476,327.126l-15.047-15.046l15.046-15.046l15.047,15.046L300.476,327.126z M290.145,337.457l-11.177,11.177   v-22.354L290.145,337.457z M300.476,398.542l4.603,4.603h-9.206L300.476,398.542z M351.23,398.542l4.603,4.603h-9.206   L351.23,398.542z M372.738,297.879l-11.177-11.177l11.177-11.177V297.879z M351.23,246.277l15.047,15.047l-15.047,15.047   l-15.047-15.047L351.23,246.277z M340.9,286.702l-15.047,15.047l-15.047-15.047l15.047-15.047L340.9,286.702z M300.476,246.278   l15.047,15.047l-15.047,15.047l-15.047-15.047L300.476,246.278z M290.145,286.702l-11.177,11.177v-22.354L290.145,286.702z    M342.229,427.036h-32.752c-6.772,0-12.679-3.752-15.77-9.282h64.293C354.908,423.284,349.002,427.036,342.229,427.036z"/>
	<path id="XMLID_207_" style="fill:#6D6D6D;" d="M391.18,38.158v188.925c0,5.594-4.533,10.127-10.127,10.127H270.659   c-5.604,0-10.127-4.533-10.127-10.127v-78.222c0-5.223-2.122-9.941-5.532-13.351c-0.598-0.598-1.236-1.154-1.906-1.648   c-3.235-2.483-7.273-3.935-11.662-3.884c-1.298,0.01-2.575,0.165-3.791,0.443c-8.561,1.906-14.865,9.807-14.865,18.924v352.518   c0,5.594-4.543,10.137-10.137,10.137H102.255c-5.594,0-10.127-4.533-10.127-10.127V38.158c0-5.687,4.615-10.302,10.302-10.302   h278.448C386.564,27.856,391.18,32.471,391.18,38.158z"/>
	<path id="XMLID_208_" style="fill:#565656;" d="M391.178,47.655V208.1c-1.428,0.192-2.887,0.294-4.365,0.294   c-18.079,0-32.786-14.707-32.786-32.786v-71.507c-2.34-3.525-3.697-7.738-3.697-12.276V69.937c0-12.286,9.997-22.283,22.283-22.283   H391.178z"/>
	<path id="XMLID_209_" style="fill:#565656;" d="M167.919,27.856V512h-65.664c-5.593,0-10.127-4.534-10.127-10.127V38.158   c0-5.69,4.612-10.302,10.302-10.302H167.919z"/>
	<path id="XMLID_210_" style="fill:#F1EDED;" d="M155.558,27.853V512h-53.306c-5.594,0-10.129-4.535-10.129-10.129V38.155   c0-5.69,4.612-10.302,10.302-10.302H155.558z"/>
	<path id="XMLID_211_" style="fill:#FAB03C;" d="M125.177,27.856V512h-22.922c-5.594,0-10.127-4.533-10.127-10.127V38.158   c0-5.697,4.605-10.302,10.302-10.302H125.177z"/>
	<g id="XMLID_212_">
		<path id="XMLID_213_" style="fill:#82807F;" d="M407.446,86.144v89.461c0,11.404-9.241,20.635-20.635,20.635    s-20.634-9.23-20.634-20.635V86.144H407.446z"/>
		<path id="XMLID_214_" style="fill:#6D6D6D;" d="M407.446,86.144v26.661c-3.214,0.989-6.634,1.514-10.168,1.514h-24.673    c-2.235,0-4.389-0.33-6.428-0.937V86.144H407.446z"/>
		<path id="XMLID_1616_" style="fill:#FAB03C;" d="M397.276,101.957H372.61c-5.594,0-10.129-4.535-10.129-10.129V69.937    c0-5.594,4.535-10.129,10.129-10.129h37.138c5.594,0,10.129,4.535,10.129,10.129v9.42    C419.877,91.839,409.758,101.957,397.276,101.957z"/>
	</g>
	<path id="XMLID_215_" style="fill:#565656;" d="M253.094,27.856v106.006c-3.235-2.483-7.273-3.935-11.662-3.884   c-1.298,0.01-2.575,0.165-3.791,0.443V92.314c-14.938-1.968-26.507-14.773-26.507-30.236V27.856h15.453v34.223   c0,6.912,4.687,12.733,11.054,14.495V27.856H253.094z"/>
	<path id="XMLID_216_" style="fill:#F1EDED;" d="M112.083,430.348c0,4.265-3.451,7.726-7.726,7.726H92.128v-15.453h12.228   C108.632,422.621,112.083,426.083,112.083,430.348z"/>
	<path id="XMLID_217_" style="fill:#F1EDED;" d="M112.083,405.541c0,4.265-3.451,7.726-7.726,7.726H92.128v-15.453h12.228   C108.632,397.815,112.083,401.276,112.083,405.541z"/>
	<path id="XMLID_218_" style="fill:#F1EDED;" d="M112.083,380.734c0,4.275-3.451,7.726-7.726,7.726H92.128v-15.453h12.228   C108.632,373.008,112.083,376.469,112.083,380.734z"/>
	<path id="XMLID_219_" style="fill:#F1EDED;" d="M112.083,355.938c0,4.265-3.451,7.726-7.726,7.726H92.128v-15.453h12.228   C108.632,348.212,112.083,351.662,112.083,355.938z"/>
	<path id="XMLID_220_" style="fill:#F1EDED;" d="M112.083,331.131c0,4.265-3.451,7.726-7.726,7.726H92.128v-15.453h12.228   C108.632,323.405,112.083,326.866,112.083,331.131z"/>
	<path id="XMLID_221_" style="fill:#F1EDED;" d="M112.083,306.324c0,4.265-3.451,7.726-7.726,7.726H92.128v-15.453h12.228   C108.632,298.598,112.083,302.059,112.083,306.324z"/>
</g>















</svg>
