<?xml version="1.0" encoding="iso-8859-1"?>
<!-- Generator: Adobe Illustrator 19.0.0, SVG Export Plug-In . SVG Version: 6.00 Build 0)  -->
<svg xmlns="http://www.w3.org/2000/svg" xmlns:xlink="http://www.w3.org/1999/xlink" version="1.1" id="Layer_1" x="0px" y="0px" viewBox="0 0 512 512" style="enable-background:new 0 0 512 512;" xml:space="preserve" width="512" height="512">
<g>
	<polygon style="fill:#61729B;" points="487.899,270 451,285 483.401,300 451,512 61,512 0,120 121,60 391,60 512,120  "/>
	<polygon style="fill:#47568C;" points="487.899,270 451,285 483.401,300 451,512 256,512 256,60 391,60 512,120  "/>
	<rect x="151" style="fill:#EFE2DD;" width="210" height="90"/>
	<rect x="256" style="fill:#CDBFBA;" width="105" height="90"/>
	<rect x="391" y="240" style="fill:#EFE2DD;" width="30" height="45"/>
	<polygon style="fill:#25D9F8;" points="316,421 256,512 196,421 226,210 256,180 286,210  "/>
	<polygon style="fill:#00C0F1;" points="286,210 316,421 256,512 256,180  "/>
	<polygon style="fill:#00C0F1;" points="331,90 331,180 286,210 226,210 181,180 181,90  "/>
	<polygon style="fill:#009AE4;" points="331,90 331,180 286,210 256,210 256,90  "/>
	<polygon style="fill:#FFF5F5;" points="181,180 121,60 151,0 256,90  "/>
	<polygon style="fill:#EFE2DD;" points="331,180 391,60 361,0 256,90  "/>
	<polygon style="fill:#2C3B73;" points="361,270 361,300 483.307,300 487.923,270  "/>
</g>















</svg>
