<?xml version="1.0" encoding="iso-8859-1"?>
<!-- Generator: Adobe Illustrator 19.0.0, SVG Export Plug-In . SVG Version: 6.00 Build 0)  -->
<svg version="1.1" id="Layer_1" xmlns="http://www.w3.org/2000/svg" xmlns:xlink="http://www.w3.org/1999/xlink" x="0px" y="0px"
	 viewBox="0 0 511.997 511.997" style="enable-background:new 0 0 511.997 511.997;" xml:space="preserve">
<g>
	<polygon style="fill:#7F8C8D;" points="255.998,511.997 97.101,511.997 35.308,158.894 97.101,52.963 255.998,52.963 	"/>
	<polygon style="fill:#C0CCCC;" points="97.101,52.966 255.998,52.966 255.998,0 97.101,0 	"/>
	<g>
		<polygon style="fill:#95A5A5;" points="141.239,52.966 158.894,52.966 158.894,0 141.239,0 		"/>
		<polygon style="fill:#95A5A5;" points="194.205,52.966 211.86,52.966 211.86,0 194.205,0 		"/>
		<polygon style="fill:#95A5A5;" points="255.998,509.595 476.687,288.906 364.33,176.548 255.998,284.88 		"/>
	</g>
	<polygon style="fill:#C0CCCC;" points="334.689,206.191 447.046,318.549 476.689,288.906 364.332,176.548 	"/>
	<polygon style="fill:#95A5A5;" points="132.412,194.207 203.032,194.207 203.032,141.241 132.412,141.241 	"/>
	<polygon style="fill:#C0CCCC;" points="132.412,141.241 203.032,141.241 203.032,105.931 132.412,105.931 	"/>
</g>
<g>
</g>
<g>
</g>
<g>
</g>
<g>
</g>
<g>
</g>
<g>
</g>
<g>
</g>
<g>
</g>
<g>
</g>
<g>
</g>
<g>
</g>
<g>
</g>
<g>
</g>
<g>
</g>
<g>
</g>
</svg>
