<?xml version="1.0" encoding="iso-8859-1"?>
<!-- Generator: Adobe Illustrator 19.0.0, SVG Export Plug-In . SVG Version: 6.00 Build 0)  -->
<svg xmlns="http://www.w3.org/2000/svg" xmlns:xlink="http://www.w3.org/1999/xlink" version="1.1" id="Layer_1" x="0px" y="0px" viewBox="0 0 512 512" style="enable-background:new 0 0 512 512;" xml:space="preserve" width="512" height="512">
<g>
	<path style="fill:#008ADF;" d="M431.666,124.255c0-25.989-21.145-47.133-47.135-47.133c-6.04,0-11.819,1.143-17.132,3.222   l0.001-7.502c0-25.989-21.144-47.133-47.133-47.133c-7.243,0-14.109,1.642-20.247,4.573C293.225,12.591,276.056,0,256,0   c-20.055,0-37.225,12.59-44.02,30.282c-6.138-2.932-13.004-4.573-20.246-4.573c-25.99,0-47.134,21.144-47.134,47.133v71.77   c-5.313-2.08-11.093-3.223-17.134-3.223c-25.989,0-47.133,21.144-47.133,47.133v73.907c0,43.643,15.93,85.086,44.989,117.387   v77.019c0,30.419,24.748,55.166,55.167,55.166h151.02c30.42,0,55.168-24.747,55.168-55.166v-77.018   c29.059-32.301,44.988-73.743,44.988-117.388V124.255z"/>
	<path style="fill:#0065A3;" d="M431.666,124.255c0-25.989-21.145-47.133-47.135-47.133c-6.04,0-11.819,1.143-17.132,3.222   l0.001-7.502c0-25.989-21.144-47.133-47.133-47.133c-7.243,0-14.109,1.642-20.247,4.573C293.225,12.591,276.056,0,256,0v512h75.51   c30.42,0,55.168-24.747,55.168-55.166v-77.018c29.059-32.301,44.988-73.743,44.988-117.388V124.255z"/>
	<g>
		<path style="fill:#FEF4F5;" d="M288.133,126.4h-64.266c-8.285,0-15-6.716-15-15s6.715-15,15-15h64.266c8.285,0,15,6.716,15,15    S296.418,126.4,288.133,126.4z"/>
	</g>
	<path style="fill:#D5EDED;" d="M288.133,96.4H256v30h32.133c8.285,0,15-6.716,15-15S296.418,96.4,288.133,96.4z"/>
	<g>
		<g>
			<g>
				<path style="fill:#FEF4F5;" d="M223.867,103.908H159.6c-8.284,0-14.999-6.716-14.999-15c0-8.284,6.716-15,14.999-15h64.268      c8.283,0,15,6.716,15,15C238.867,97.192,232.151,103.908,223.867,103.908z"/>
			</g>
			<g>
				<path style="fill:#FEF4F5;" d="M288.133,78.2h-64.266c-8.285,0-15-6.716-15-15c0-8.284,6.715-15,15-15h64.266      c8.285,0,15,6.716,15,15C303.133,71.484,296.418,78.2,288.133,78.2z"/>
			</g>
			<path style="fill:#D5EDED;" d="M303.133,63.2c0-8.284-6.715-15-15-15H256v30h32.133C296.418,78.2,303.133,71.484,303.133,63.2z"/>
			<g>
				<path style="fill:#D5EDED;" d="M352.399,103.908h-64.266c-8.283,0-15-6.716-15-15c0-8.284,6.717-15,15-15h64.266      c8.285,0,15,6.716,15,15C367.399,97.192,360.684,103.908,352.399,103.908z"/>
			</g>
			<g>
				<path style="fill:#D5EDED;" d="M416.666,155.322h-64.268c-8.283,0-15-6.716-15-15c0-8.284,6.717-15,15-15h64.268      c8.285,0,15,6.716,15,15C431.666,148.606,424.951,155.322,416.666,155.322z"/>
			</g>
			<g>
				<path style="fill:#FEF4F5;" d="M159.6,219.589H95.334c-8.284,0-15-6.716-15-15c0-8.284,6.716-15,15-15H159.6      c8.285,0,15,6.716,15,15C174.6,212.873,167.885,219.589,159.6,219.589z"/>
			</g>
			<g>
				<path style="fill:#FEF4F5;" d="M223.867,152.108H159.6c-8.284,0-14.999-6.716-14.999-15c0-8.284,6.716-15,14.999-15h64.268      c8.283,0,15,6.716,15,15C238.867,145.393,232.151,152.108,223.867,152.108z"/>
			</g>
			<g>
				<path style="fill:#D5EDED;" d="M352.399,152.108h-64.266c-8.283,0-15-6.716-15-15c0-8.284,6.717-15,15-15h64.266      c8.285,0,15,6.716,15,15C367.399,145.393,360.684,152.108,352.399,152.108z"/>
			</g>
			<g>
				<path style="fill:#D5EDED;" d="M416.666,203.522h-64.268c-8.283,0-15-6.716-15-15c0-8.284,6.717-15,15-15h64.268      c8.285,0,15,6.716,15,15C431.666,196.806,424.951,203.522,416.666,203.522z"/>
			</g>
			<g>
				<path style="fill:#FEF4F5;" d="M159.6,267.788H95.334c-8.284,0-15-6.716-15-15c0-8.284,6.716-15,15-15H159.6      c8.285,0,15,6.716,15,15C174.6,261.072,167.885,267.788,159.6,267.788z"/>
			</g>
		</g>
		<g>
			<path style="fill:#FEF4F5;" d="M371.678,431.667H140.323c-8.284,0-15-6.716-15-15c0-8.284,6.716-15,15-15h231.355     c8.283,0,15,6.716,15,15C386.678,424.951,379.961,431.667,371.678,431.667z"/>
		</g>
	</g>
	<g>
		<path style="fill:#3D5959;" d="M159.6,57.842c-8.284,0-14.999,6.716-14.999,15v179.946c0,8.284,6.716,15,14.999,15    c8.285,0,15-6.716,15-15V72.842C174.6,64.558,167.885,57.842,159.6,57.842z"/>
		<path style="fill:#3D5959;" d="M223.867,32.134c-8.285,0-15,6.716-15,15v25.708V111.4v54.627c0,8.284,6.715,15,15,15    c8.283,0,15-6.716,15-15V111.4V72.842V47.134C238.867,38.85,232.151,32.134,223.867,32.134z"/>
		<path style="fill:#293939;" d="M288.133,32.134c-8.283,0-15,6.716-15,15v25.708V111.4v54.627c0,8.284,6.717,15,15,15    c8.285,0,15-6.716,15-15V111.4V72.842V47.134C303.133,38.85,296.418,32.134,288.133,32.134z"/>
		<path style="fill:#293939;" d="M352.399,57.842c-8.283,0-15,6.716-15,15v51.413v12.853v67.482c0,8.284,6.717,15,15,15    c8.285,0,15-6.716,15-15v-67.482v-12.853V72.842C367.399,64.558,360.684,57.842,352.399,57.842z"/>
	</g>
	<path style="fill:#D5EDED;" d="M371.678,401.667H256v30h115.678c8.283,0,15-6.716,15-15   C386.678,408.383,379.961,401.667,371.678,401.667z"/>
</g>















</svg>
