<svg height="464pt" viewBox="0 -144 464 464" width="464pt" xmlns="http://www.w3.org/2000/svg"><path d="m232 0c-128.160156 0-232 57.28125-232 128 .261719 16.847656 5.863281 33.179688 16 46.640625.320312.480469.640625.878906.960938 1.359375 16.324218-20.769531 37.46875-37.246094 61.597656-48 48.140625-21.917969 100.554687-32.847656 153.441406-32 52.886719-.847656 105.300781 10.082031 153.441406 32 24.128906 10.753906 45.273438 27.230469 61.597656 48 .320313-.480469.640626-.878906.960938-1.359375 10.136719-13.460937 15.738281-29.792969 16-46.640625 0-70.71875-103.839844-128-232-128zm0 72c-22.089844 0-40-10.742188-40-24s17.910156-24 40-24 40 10.742188 40 24-17.910156 24-40 24zm0 0" fill="#f490c0"/><path d="m409.441406 128c-48.140625-21.917969-100.554687-32.847656-153.441406-32-4.046875 0-8 .191406-12 .304688 48.839844.601562 97.015625 11.398437 141.441406 31.695312 24.128906 10.753906 45.273438 27.230469 61.597656 48 .320313-.480469.640626-.878906.960938-1.359375 3.34375-4.660156 6.246094-9.625 8.671875-14.824219-14.003906-12.984375-29.9375-23.71875-47.230469-31.816406zm0 0" fill="#ed539d"/><path d="m24 128c0-68.496094 97.425781-124.390625 220-127.832031-3.972656-.1132815-7.972656-.167969-12-.167969-128.160156 0-232 57.28125-232 128 .261719 16.847656 5.863281 33.179688 16 46.640625.320312.480469.640625.878906.960938 1.359375 4.300781-5.820312 9.117187-11.238281 14.398437-16.183594-4.769531-9.933594-7.285156-20.796875-7.359375-31.816406zm0 0" fill="#ed539d"/><path d="m447.039062 176h-430.078124c16.324218-20.769531 37.46875-37.246094 61.597656-48h306.882812c24.128906 10.753906 45.273438 27.230469 61.597656 48zm0 0" fill="#ea348b"/><path d="m110.558594 128c-5.039063 2.480469-9.917969 5.039062-14.558594 7.761719-5.542969 3.101562-10.886719 6.546875-16 10.316406-11.933594 8.1875-22.421875 18.296875-31.039062 29.921875h-32c16.324218-20.769531 37.46875-37.246094 61.597656-48zm0 0" fill="#c61469"/><path d="m272 48c0-13.253906-17.910156-24-40-24s-40 10.746094-40 24 17.910156 24 40 24 40-10.746094 40-24zm0 0" fill="#c61469"/><g fill="#971051"><path d="m240 128v24c0 4.417969-3.582031 8-8 8s-8-3.582031-8-8v-24zm0 0"/><path d="m288 128v24c0 4.417969-3.582031 8-8 8s-8-3.582031-8-8v-24zm0 0"/><path d="m336 128v24c0 4.417969-3.582031 8-8 8s-8-3.582031-8-8v-24zm0 0"/><path d="m384 128v24c0 4.417969-3.582031 8-8 8s-8-3.582031-8-8v-24zm0 0"/><path d="m192 128v24c0 4.417969-3.582031 8-8 8s-8-3.582031-8-8v-24zm0 0"/><path d="m144 128v24c0 4.417969-3.582031 8-8 8s-8-3.582031-8-8v-24zm0 0"/><path d="m96 128v24c0 4.417969-3.582031 8-8 8s-8-3.582031-8-8v-24zm0 0"/></g></svg>