<?xml version="1.0" encoding="iso-8859-1"?>
<!-- Generator: Adobe Illustrator 21.0.0, SVG Export Plug-In . SVG Version: 6.00 Build 0)  -->
<svg version="1.1" id="Capa_1" xmlns="http://www.w3.org/2000/svg" xmlns:xlink="http://www.w3.org/1999/xlink" x="0px" y="0px"
	 viewBox="0 0 512.001 512.001" style="enable-background:new 0 0 512.001 512.001;" xml:space="preserve">
<path style="fill:#FF8C4F;" d="M9.179,408.123V105.564h198.518l3.531,14.865c15.316,64.478,65.693,114.801,130.188,130.048
	l145.337,34.357C501.549,288.333,512,301.543,512,316.746v91.377l-38.875,18.178H43.728L9.179,408.123z"/>
<path style="fill:#EE6B28;" d="M40.084,173.748h193.652c-10.242-16.151-17.944-34.098-22.509-53.318l-3.531-14.865H40.084H9.179
	v68.184v234.375l34.549,18.177h30.905l-34.549-18.178C40.084,408.122,40.084,173.748,40.084,173.748z"/>
<path style="fill:#3A484A;" d="M110.744,185.343v-79.778H9.179v179.89l67.392-40.049
	C97.758,232.813,110.744,209.989,110.744,185.343z"/>
<polygon style="fill:#313D40;" points="110.744,105.564 40.084,105.564 9.179,105.564 9.179,173.748 9.179,285.454 40.084,267.087 
	40.084,173.748 110.744,173.748 "/>
<path style="fill:#C86D5C;" d="M43.728,426.301h429.397L512,408.123v-65.53H399.003c-7.706,0-15.316,1.709-22.282,5.004
	L321.3,373.809c-6.966,3.295-14.576,5.004-22.282,5.004H107.744c-13.822,0-27.077-5.491-36.851-15.264l0,0
	c-9.773-9.773-23.029-15.264-36.851-15.264H9.179v59.839L43.728,426.301z"/>
<path style="fill:#AD5645;" d="M40.084,348.65c-1.997-0.233-4.012-0.366-6.042-0.366H9.179v59.839l34.549,18.178h30.905
	l-34.549-18.178C40.084,408.122,40.084,348.65,40.084,348.65z"/>
<path style="fill:#3A484A;" d="M476.714,385.31l-9.189,11.591c-5.621,7.09-14.172,11.223-23.219,11.223H9.179l-9.046,33.784
	c-1.306,10.856,7.169,20.412,18.103,20.412h86.082c6.31,0,11.756-4.424,13.049-10.6l1.314-6.28c1.293-6.176,6.738-10.6,13.049-10.6
	h75.982c6.31,0,11.756,4.424,13.049,10.601l1.314,6.279c1.293,6.176,6.738,10.601,13.049,10.601h258.643
	c10.07,0,18.234-8.164,18.234-18.234v-17.786v-18.178v-34.037h-12.067C490.886,374.087,482.334,378.22,476.714,385.31z"/>
<path style="fill:#313D40;" d="M31.039,441.908l9.046-33.784H9.179l-9.046,33.784c-1.306,10.856,7.169,20.412,18.103,20.412h30.905
	C38.208,462.32,29.732,452.763,31.039,441.908z"/>
<path style="fill:#AD5645;" d="M227.932,147.993H7.244c-4.001,0-7.244-3.243-7.244-7.244V56.926c0-4.001,3.243-7.244,7.244-7.244
	h220.688c4.001,0,7.244,3.243,7.244,7.244v83.823C235.176,144.75,231.933,147.993,227.932,147.993z"/>
<path style="fill:#993F33;" d="M30.905,140.749V56.926c0-4.001,3.243-7.244,7.244-7.244H7.244C3.243,49.682,0,52.925,0,56.926
	v83.823c0,4.001,3.243,7.244,7.244,7.244h30.905C34.149,147.993,30.905,144.75,30.905,140.749z"/>
<path style="fill:#C86D5C;" d="M230.492,147.993h-44.494c-27.148,0-49.156-22.008-49.156-49.156l0,0
	c0-27.148,22.008-49.156,49.156-49.156h44.494c2.587,0,4.684,2.097,4.684,4.684v88.943
	C235.176,145.896,233.079,147.993,230.492,147.993z"/>
<path style="fill:#AD5645;" d="M167.748,98.838L167.748,98.838c0-27.148,22.008-49.156,49.156-49.156h-30.905
	c-27.148,0-49.156,22.008-49.156,49.156l0,0c0,27.148,22.008,49.156,49.156,49.156h30.905
	C189.756,147.993,167.748,125.986,167.748,98.838z"/>
<circle style="fill:#3A484A;" cx="172.56" cy="205.521" r="19.573"/>
<path style="fill:#313D40;" d="M168.435,205.522c0-8.065,4.881-14.986,11.847-17.983c-2.371-1.02-4.981-1.59-7.726-1.59
	c-10.81,0-19.573,8.763-19.573,19.573s8.763,19.573,19.573,19.573c2.745,0,5.355-0.57,7.726-1.59
	C173.315,220.508,168.435,213.587,168.435,205.522z"/>
<circle style="fill:#3A484A;" cx="239.3" cy="271.081" r="19.573"/>
<path style="fill:#313D40;" d="M235.176,271.084c0-8.065,4.881-14.986,11.847-17.983c-2.371-1.02-4.981-1.59-7.726-1.59
	c-10.81,0-19.573,8.763-19.573,19.573s8.763,19.573,19.573,19.573c2.745,0,5.355-0.57,7.726-1.59
	C240.057,286.07,235.176,279.149,235.176,271.084z"/>
<g>
	<path style="fill:#3A484A;" d="M192.132,204.359c-2.877,0-5.622-1.666-6.862-4.466c-1.677-3.788,0.034-8.217,3.822-9.894
		l54.895-24.301c3.788-1.677,8.217,0.034,9.894,3.822c1.677,3.788-0.034,8.217-3.822,9.894l-54.895,24.301
		C194.177,204.152,193.146,204.359,192.132,204.359z"/>
	<path style="fill:#3A484A;" d="M251.932,263.502c-1.593,0-3.197-0.505-4.559-1.549c-3.287-2.521-3.908-7.229-1.387-10.515
		l32.393-42.238c2.521-3.286,7.229-3.909,10.516-1.387c3.286,2.521,3.907,7.229,1.387,10.515l-32.393,42.238
		C256.412,262.491,254.185,263.502,251.932,263.502z"/>
</g>
<g>
</g>
<g>
</g>
<g>
</g>
<g>
</g>
<g>
</g>
<g>
</g>
<g>
</g>
<g>
</g>
<g>
</g>
<g>
</g>
<g>
</g>
<g>
</g>
<g>
</g>
<g>
</g>
<g>
</g>
</svg>
