<?xml version="1.0" encoding="iso-8859-1"?>
<!-- Generator: Adobe Illustrator 19.0.0, SVG Export Plug-In . SVG Version: 6.00 Build 0)  -->
<svg version="1.1" id="Layer_1" xmlns="http://www.w3.org/2000/svg" xmlns:xlink="http://www.w3.org/1999/xlink" x="0px" y="0px"
	 viewBox="0 0 512 512" style="enable-background:new 0 0 512 512;" xml:space="preserve">
<path style="fill:#7F8499;" d="M123.586,467.862v35.31c0,4.875,3.953,8.828,8.828,8.828h247.172c4.875,0,8.828-3.953,8.828-8.828
	v-35.31H123.586z"/>
<path style="fill:#959CB5;" d="M397.241,406.069h61.793l1.41,29.621c0.332,6.975-3.477,13.49-9.718,16.62l-34.306,17.21
	c-8.806,4.417-19.179-1.984-19.179-11.836V406.069z"/>
<path style="fill:#7F8499;" d="M416.42,469.521c-8.806,4.417-19.179-1.985-19.179-11.836v-51.616h24.414l1.763,59.941
	L416.42,469.521z"/>
<path style="fill:#959CB5;" d="M114.759,406.069H52.966l-1.41,29.621c-0.332,6.975,3.477,13.49,9.719,16.62l34.306,17.21
	c8.806,4.417,19.179-1.984,19.179-11.836v-51.616H114.759z"/>
<g>
	<path style="fill:#7F8499;" d="M95.58,469.521c8.806,4.417,19.179-1.985,19.179-11.836v-51.616H90.345l-1.763,59.941L95.58,469.521
		z"/>
	<path style="fill:#7F8499;" d="M397.241,70.621L358.29,8.298C355.063,3.136,349.406,0,343.318,0H168.682
		c-6.088,0-11.745,3.136-14.972,8.298l-38.952,62.323L256,123.586L397.241,70.621z"/>
</g>
<path style="fill:#707487;" d="M350.791,1.779C348.474,0.689,345.959,0,343.318,0H168.682c-2.642,0-5.156,0.69-7.473,1.779
	l73.945,56.881c3.215,2.474,3.215,7.322,0,9.795l-41.35,31.807l19.467,7.3L256,74.695l0,0L350.791,1.779z"/>
<path style="fill:#959CB5;" d="M460.189,122.283c-0.703-20.718-13.428-39.122-32.564-47.095l-66.022-27.509
	c-5.326-2.219-11.401-1.696-16.269,1.402L256,105.931l-89.334-56.85c-4.868-3.098-10.943-3.622-16.269-1.402l-66.022,27.51
	c-19.135,7.974-31.861,26.377-32.564,47.095l-9.216,271.571c-0.249,7.349,4.082,14.082,10.872,16.903l53.761,21.794l-0.497,16.876
	c-0.438,14.925,11.541,27.262,26.472,27.262h245.591c14.931,0,26.911-12.337,26.472-27.262l-0.495-16.876l53.761-21.794
	c6.791-2.822,11.122-9.555,10.872-16.903L460.189,122.283z"/>
<rect x="247.172" y="97.103" style="fill:#7F8499;" width="17.655" height="379.586"/>
<polygon style="fill:#F5DCB4;" points="398.28,211.862 113.72,211.862 112.682,247.172 399.318,247.172 "/>
<g>
	<path style="fill:#7F8499;" d="M150.069,441.379c-0.922,0-1.863-0.147-2.793-0.457c-4.621-1.535-7.121-6.535-5.578-11.164
		l26.483-79.448c1.543-4.621,6.5-7.138,11.164-5.578c4.621,1.535,7.121,6.535,5.578,11.164l-26.483,79.448
		C157.207,439.043,153.768,441.379,150.069,441.379z"/>
	<path style="fill:#7F8499;" d="M361.931,441.379c-3.699,0-7.138-2.336-8.371-6.035l-26.483-79.448
		c-1.543-4.629,0.957-9.63,5.578-11.164c4.655-1.56,9.63,0.957,11.164,5.578l26.483,79.448c1.543,4.629-0.957,9.63-5.578,11.164
		C363.794,441.233,362.854,441.379,361.931,441.379z"/>
	<path style="fill:#7F8499;" d="M53.468,410.758l53.761,21.794l0,0l7.53-256v-9.715c0-16.388-6.51-32.106-18.099-43.694
		l-32.68-32.68c-7.286,8.839-11.765,19.908-12.169,31.82l-9.216,271.571C42.346,401.203,46.677,407.936,53.468,410.758z"/>
</g>
<path style="fill:#707487;" d="M105.802,176.419c-4.825-0.072-8.812,3.744-8.954,8.567l-7.073,240.49l17.454,7.075l4.577-155.637
	l2.689-91.41C114.641,180.582,110.728,176.492,105.802,176.419z"/>
<path style="fill:#7F8499;" d="M458.532,410.758l-53.761,21.794l0,0l-7.53-256v-9.715c0-16.388,6.51-32.106,18.099-43.694
	l32.68-32.68c7.286,8.839,11.765,19.908,12.169,31.82l9.216,271.571C469.654,401.203,465.323,407.936,458.532,410.758z"/>
<path style="fill:#707487;" d="M406.198,176.419c4.825-0.072,8.812,3.744,8.954,8.567l7.073,240.49l-17.454,7.075l-4.577-155.637
	l-2.689-91.41C397.359,180.582,401.272,176.492,406.198,176.419z"/>
<path style="fill:#F5DCB4;" d="M51.463,132.565l-1.781,52.483c1.088,0.136,2.158,0.331,3.284,0.331
	c14.626,0,26.483-11.857,26.483-26.483c0-14.626-11.857-26.483-26.483-26.483C52.45,132.414,51.97,132.536,51.463,132.565z"/>
<rect x="247.172" y="476.69" style="fill:#707487;" width="17.655" height="35.31"/>
<rect x="247.172" y="211.862" style="fill:#EBC9A0;" width="17.655" height="35.31"/>
<g>
</g>
<g>
</g>
<g>
</g>
<g>
</g>
<g>
</g>
<g>
</g>
<g>
</g>
<g>
</g>
<g>
</g>
<g>
</g>
<g>
</g>
<g>
</g>
<g>
</g>
<g>
</g>
<g>
</g>
</svg>
