<svg height="511pt" viewBox="1 -24 511.99929 511" width="511pt" xmlns="http://www.w3.org/2000/svg"><path d="m37.019531 380.289062-36.257812 21.660157c-.386719 13.496093-.644531 27.542969-.761719 42.125-.0859375 10.207031 8.144531 18.523437 18.347656 18.523437h33.601563c9.644531 0 17.644531-7.480468 18.308593-17.105468.742188-10.804688 1.945313-26.015626 3.785157-43.542969zm0 0" fill="#75b8db"/><path d="m.09375 435.175781c.035156 0 .070312.007813.105469.007813h70.8125c.363281-4.691406.792969-9.859375 1.292969-15.417969-.222657-.019531-.441407-.035156-.667969-.035156h-71.296875c-.101563 5.078125-.183594 10.222656-.246094 15.445312zm0 0" fill="#efedee"/><path d="m474.980469 380.289062 36.257812 21.660157c.386719 13.496093.644531 27.542969.761719 42.125.085938 10.207031-8.144531 18.523437-18.351562 18.523437h-33.597657c-9.644531 0-17.644531-7.480468-18.308593-17.105468-.742188-10.804688-1.945313-26.015626-3.785157-43.542969zm0 0" fill="#75b8db"/><path d="m439.695312 419.765625c.5 5.558594.929688 10.730469 1.292969 15.417969h70.8125c.035157 0 .070313-.007813.105469-.007813-.0625-5.222656-.148438-10.367187-.246094-15.445312h-71.296875c-.226562 0-.449219.015625-.667969.035156zm0 0" fill="#efedee"/><path d="m143.363281 94.847656v141.515625h-30.082031c-22.230469 37.769531-33.675781 112.375-39.242188 165.585938h-73.277343c7.824219-277.132813 68.476562-330.207031 68.476562-330.207031zm0 0" fill="#efedee"/><path d="m368.632812 94.847656v141.515625h30.085938c22.226562 37.769531 33.675781 112.375 39.238281 165.585938h73.28125c-7.828125-277.132813-68.476562-330.207031-68.476562-330.207031zm0 0" fill="#efedee"/><path d="m442.761719 71.742188c-28.878907-29.839844-88.074219-33.472657-88.074219-33.472657h-69.914062l-28.773438 15.664063-28.773438-15.664063h-69.914062s-59.195312 3.632813-88.074219 33.472657c0 0 64.972657 55.835937 44.042969 164.621093l1.183594 165.585938 62.273437 30.324219 50.488281-30.324219h57.546876l55.59375 30.324219 57.167968-30.324219 1.183594-165.585938c-20.929688-108.78125 44.042969-164.621093 44.042969-164.621093zm0 0" fill="#75b8db"/><path d="m227.226562 401.949219h-112.761718l.210937 29.234375c.125 17.386718 14.257813 31.414062 31.644531 31.414062h80.90625l28.773438-30.324218zm0 0" fill="#efedee"/><path d="m284.773438 401.949219-28.773438 30.324219 28.773438 30.324218h80.90625c17.386718 0 31.519531-14.027344 31.644531-31.414062l.210937-29.234375zm0 0" fill="#efedee"/><path d="m227.226562 38.269531h57.546876v424.328125h-57.546876zm0 0" fill="#96ccec"/><g fill="#efedee"><path d="m265.625 152.609375c0 5.316406-4.308594 9.628906-9.625 9.628906s-9.628906-4.3125-9.628906-9.628906 4.3125-9.625 9.628906-9.625 9.625 4.308594 9.625 9.625zm0 0"/><path d="m265.625 218.664062c0 5.316407-4.308594 9.628907-9.625 9.628907s-9.628906-4.3125-9.628906-9.628907c0-5.316406 4.3125-9.625 9.628906-9.625s9.625 4.308594 9.625 9.625zm0 0"/><path d="m265.625 284.71875c0 5.316406-4.308594 9.625-9.625 9.625s-9.628906-4.308594-9.628906-9.625 4.3125-9.628906 9.628906-9.628906 9.625 4.3125 9.625 9.628906zm0 0"/><path d="m265.625 350.769531c0 5.316407-4.308594 9.628907-9.625 9.628907s-9.628906-4.3125-9.628906-9.628907c0-5.316406 4.3125-9.625 9.628906-9.625s9.625 4.308594 9.625 9.625zm0 0"/></g><path d="m203.050781 5.320312s13.714844-4.820312 52.949219-4.820312 52.949219 4.820312 52.949219 4.820312l31.417969 31.417969-14.324219 39.605469-70.042969 25.246094-75.585938-24.71875v-35.289063zm0 0" fill="#66a9cc"/><path d="m285.210938 38.269531c-.300782 1.800781-.796876 3.296875-1.308594 4.539063-4.550782 11.03125-17.800782 19.902344-27.902344 25.101562-10.105469-5.199218-23.351562-14.070312-27.902344-25.101562-.515625-1.242188-1.011718-2.738282-1.3125-4.539063h-69.472656s-15.410156.949219-34.339844 5.835938c-1.191406 5.886719-1.851562 12.199219-1.851562 18.972656 0 16.21875 5.988281 30.859375 17.308594 42.339844 8.265624 8.378906 19.332031 14.953125 32.902343 19.539062 16.683594 5.636719 37.554688 8.496094 62.03125 8.496094h.003907c10.230468 0 18.378906-.507813 22.632812-.84375 4.253906.335937 12.402344.84375 22.636719.84375 24.472656 0 45.34375-2.859375 62.03125-8.496094 13.566406-4.585937 24.636719-11.160156 32.898437-19.535156 11.324219-11.484375 17.3125-26.121094 17.3125-42.34375 0-6.773437-.660156-13.085937-1.851562-18.972656-18.929688-4.886719-34.339844-5.835938-34.339844-5.835938zm0 0" fill="#66a9cc"/><path d="m227.226562 97.886719v35.5c2.019532.039062 4.058594.066406 6.136719.066406h.003907c10.230468 0 18.378906-.507813 22.632812-.84375 4.253906.335937 12.402344.84375 22.636719.84375 2.074219 0 4.113281-.027344 6.136719-.066406v-35.5l-28.773438 3.703125zm0 0" fill="#75b8db"/><path d="m256 101.589844s-85.679688-28.882813-52.949219-96.269532c0 0-51.023437 8.664063-51.023437 57.757813 0 49.097656 103.972656 38.511719 103.972656 38.511719zm0 0" fill="#efedee"/><path d="m256 101.589844s85.679688-28.882813 52.949219-96.269532c0 0 51.019531 8.664063 51.019531 57.757813 0 49.097656-103.96875 38.511719-103.96875 38.511719zm0 0" fill="#efedee"/></svg>