<?xml version="1.0" encoding="iso-8859-1"?>
<!-- Generator: Adobe Illustrator 19.0.0, SVG Export Plug-In . SVG Version: 6.00 Build 0)  -->
<svg version="1.1" id="Capa_1" xmlns="http://www.w3.org/2000/svg" xmlns:xlink="http://www.w3.org/1999/xlink" x="0px" y="0px"
	 viewBox="0 0 512 512" style="enable-background:new 0 0 512 512;" xml:space="preserve">
<path style="fill:#CE795F;" d="M490.333,160.3c-59.435,28.236-128.347,30.717-190.124,6.006l-24.714-9.886
	c-11.24-4.496-24.015-1.425-32.177,7.516c-38.823,42.523-93.962,67.101-152.146,67.101H72.113C32.286,231.037,0,263.323,0,303.15
	v10.303c0,17.069,13.836,30.905,30.905,30.905h465.984c8.458-25.421,15.11-52.608,15.11-80.87
	C512,226.77,504.254,191.868,490.333,160.3z"/>
<path style="fill:#A05A4B;" d="M30.905,344.357H496.89c8.458-25.421,15.11-52.608,15.11-80.87c0-36.717-7.746-71.62-21.667-103.188
	c-9.366,4.449-18.969,8.257-28.74,11.422l0.463,1.049c12.633,28.648,19.039,59.169,19.039,90.718c0,0.093,0,0.186,0,0.279
	c-0.031,16.11-13.278,29.081-29.388,29.081h-59.115l-180.589,20.605H0C0,330.521,13.837,344.357,30.905,344.357z"/>
<path style="fill:#F7A16E;" d="M197.133,236.928c45.481-22.74,69.827-51.852,88.784-76.338l-11.091-4.437
	c-10.817-4.327-23.16-1.431-30.983,7.203c-31.921,35.228-74.998,58.247-121.767,65.341v31.199
	C148.134,256.445,173.641,248.673,197.133,236.928z"/>
<path style="fill:#CE795F;" d="M507.462,153.06c-5.925-13.71-21.843-20.018-35.552-14.095
	c-51.085,22.079-110.007,22.893-161.659,2.232c-13.863-5.545-29.604,1.197-35.151,15.065l0,0
	c-5.548,13.866,1.197,29.604,15.064,35.151c65.412,26.165,138.518,25.154,203.202-2.802
	C507.005,182.718,513.41,166.823,507.462,153.06z"/>
<path style="fill:#A05A4B;" d="M507.462,153.06c-5.925-13.71-21.843-20.018-35.552-14.095c-1.183,0.511-2.376,0.999-3.566,1.488l0,0
	c5.166,11.952-1.283,25.722-13.763,29.435c-50.192,14.937-103.565,12.579-152.939-7.17l-24.849-9.939
	c-0.637,1.104-1.206,2.264-1.694,3.483l0,0c-5.548,13.866,1.197,29.604,15.064,35.151c65.412,26.165,138.518,25.154,203.202-2.802
	C507.005,182.718,513.411,166.823,507.462,153.06z"/>
<g>
	<path style="fill:#81493B;" d="M394.348,323.753l-180.589,20.605H30.905H15.452C6.918,344.357,0,351.276,0,359.809l0,0
		c0,8.534,6.918,15.452,15.452,15.452h63.35h134.958l177.663-20.605l0,0c0,11.379,9.225,20.605,20.605,20.605h77.054
		c11.379,0,20.605-9.225,20.605-20.605v-23.177c0-4.267-3.459-7.726-7.726-7.726H394.348z"/>
	<path style="fill:#81493B;" d="M148.818,212.503c-4.267,0-7.726,3.459-7.726,7.726v43.576c0,4.267,3.459,7.726,7.726,7.726
		s7.726-3.459,7.726-7.726V220.23C156.544,215.962,153.086,212.503,148.818,212.503z"/>
	<path style="fill:#81493B;" d="M200.333,195.529c-1.843-3.849-6.457-5.474-10.305-3.631l0,0c-3.849,1.843-5.474,6.457-3.631,10.306
		l20.112,42c1.843,3.849,6.457,5.474,10.305,3.631l0,0c3.849-1.843,5.474-6.457,3.631-10.306L200.333,195.529z"/>
	<path style="fill:#81493B;" d="M269.789,200.859l-30.723-33.255c-2.896-3.134-7.784-3.327-10.918-0.432s-3.327,7.784-0.432,10.918
		l30.723,33.255c2.896,3.134,7.784,3.327,10.918,0.432C272.491,208.881,272.684,203.993,269.789,200.859z"/>
</g>
<g>
</g>
<g>
</g>
<g>
</g>
<g>
</g>
<g>
</g>
<g>
</g>
<g>
</g>
<g>
</g>
<g>
</g>
<g>
</g>
<g>
</g>
<g>
</g>
<g>
</g>
<g>
</g>
<g>
</g>
</svg>
