<svg height="511pt" viewBox="0 -24 511.99997 511" width="511pt" xmlns="http://www.w3.org/2000/svg"><path d="m508 388.265625c1.324219 10.730469 2.621094 21.75 3.886719 33.085937.90625 8.117188-3.726563 15.84375-11.320313 18.859376-9.625 3.804687-25.140625 7.816406-47.886718 7.855468-9.019532.011719-16.667969-6.660156-17.921876-15.59375-1.195312-8.480468-2.875-20.125-4.964843-33.785156zm0 0" fill="#e95666"/><path d="m82.207031 398.683594c-2.089843 13.664062-3.769531 25.308594-4.964843 33.789062-1.253907 8.929688-8.902344 15.601563-17.921876 15.59375-22.746093-.042968-38.261718-4.050781-47.886718-7.859375-7.59375-3.011719-12.226563-10.738281-11.320313-18.859375 1.265625-11.332031 2.5625-22.351562 3.886719-33.082031zm0 0" fill="#e95666"/><path d="m256.503906 381.171875-125.007812 20.09375.542968 36.640625c.210938 14.226562 11.804688 25.652344 26.03125 25.652344h195.859376c14.226562 0 25.820312-11.425782 26.03125-25.652344l.542968-36.640625zm0 0" fill="#609ce7"/><path d="m382.542969 263.902344-2.039063 137.363281h-249.007812l-2.039063-136.851563 40.136719-33.277343 40.523438 16.074219 45.882812-17.75 44.875 19.101562 41.863281-19.101562zm0 0" fill="#e95666"/><path d="m11.433594 440.210938c1.167968.460937 2.34375.890624 3.53125 1.300781 4.738281 1.632812 9.605468 2.886719 14.523437 3.84375-1.347656-2.921875-1.9375-6.214844-1.5625-9.582031 1.265625-11.332032 2.5625-22.355469 3.890625-33.085938.4375-3.546875.882813-7.054688 1.332032-10.539062l-29.148438-3.882813c-.664062 5.363281-3.253906 27.417969-3.886719 33.085937-.4375 3.929688.4375 7.949219 2.472657 11.34375 2.035156 3.390626 5.171874 6.054688 8.847656 7.515626zm0 0" fill="#d64655"/><path d="m383.175781 221.96875.421875-28.675781c18.554688 37.796875 36.621094 142.796875 46.195313 205.390625 31.328125-1.34375 57.21875-5.363282 78.207031-10.417969-22.734375-183.277344-54.96875-280.242187-71.515625-320.640625-5.917969-14.46875-17.320313-26.011719-31.738281-32.082031l-44.316406-18.644531-31.085938 7.605468-27.128906 28.132813-46.214844 15.066406-47.222656-13.058594-30.140625-37.746093h-27.066407l-44.316406 18.644531c-14.417968 6.070312-25.820312 17.613281-31.738281 32.082031-16.546875 40.398438-48.777344 137.363281-71.515625 320.640625 10.820312 2.601563 22.949219 4.933594 36.449219 6.769531 12.691406 1.71875 26.585937 2.996094 41.757812 3.648438 9.574219-62.59375 27.640625-167.59375 46.195313-205.390625l.421875 28.671875 40.769531 9.171875 40.523438 16.074219 45.882812-17.75 44.875 19.097656 41.863281-19.097656zm0 0" fill="#609ce7"/><path d="m32.917969 393.933594c22.664062-177.617188 54.128906-272.136719 70.414062-311.886719 5.914063-14.46875 17.320313-26.011719 31.738281-32.078125 0 0 44.316407-18.648438 44.324219-18.648438l8.207031-3.195312-8.964843-11.226562h-27.066407s-44.316406 18.644531-44.316406 18.644531c-5.347656 2.25-10.355468 5.296875-14.816406 9.003906-14.882812 12.371094-20.5625 31.449219-26.714844 49.070313-18.128906 51.941406-30.570312 105.847656-40.84375 159.828124-7.339844 38.554688-14.484375 83.273438-20.878906 134.820313 8.765625 2.109375 18.402344 4.03125 28.917969 5.667969zm0 0" fill="#4d89d7"/><path d="m256 88.300781c-23.011719 0-45.132812-6.929687-63.960938-20.042969-18.375-12.796874-32.367187-30.558593-40.464843-51.359374l42.132812-16.398438c10.070313 25.871094 34.519531 42.589844 62.292969 42.589844 27.769531 0 52.222656-16.71875 62.292969-42.589844l42.132812 16.402344c-8.097656 20.796875-22.089843 38.558594-40.46875 51.355468-18.828125 13.113282-40.945312 20.042969-63.957031 20.042969zm0 0" fill="#e95666"/><path d="m383.175781 221.96875-.632812 41.933594-.253907 2.394531-36.199218-17.734375-36.207032 17.734375c-5.578124 2.722656-12.109374 2.722656-17.675781 0l-36.207031-17.734375-36.210938 17.730469c-5.574218 2.734375-12.09375 2.722656-17.671874 0l-36.210938-17.730469-36.199219 17.730469-.25-1.878907-.632812-42.449218 28.253906-13.832032c5.574219-2.722656 12.09375-2.722656 17.671875 0l36.210938 17.734376 36.199218-17.734376c5.574219-2.722656 12.105469-2.722656 17.683594 0l36.199219 17.734376 36.207031-17.734376c5.578125-2.722656 12.097656-2.722656 17.675781 0zm0 0" fill="#e4e7eb"/><g fill="#434a53"><path d="m185.210938 326.628906c-4.269532 0-7.726563-3.460937-7.726563-7.726562v-12.8125c0-4.265625 3.457031-7.726563 7.726563-7.726563 4.265624 0 7.726562 3.460938 7.726562 7.726563v12.8125c0 4.265625-3.460938 7.726562-7.726562 7.726562zm0 0"/><path d="m326.789062 326.628906c-4.269531 0-7.726562-3.460937-7.726562-7.726562v-12.8125c0-4.265625 3.457031-7.726563 7.726562-7.726563 4.269532 0 7.726563 3.460938 7.726563 7.726563v12.8125c0 4.265625-3.457031 7.726562-7.726563 7.726562zm0 0"/><path d="m256 333.46875c-9.039062 0-17.527344-3.78125-23.289062-10.375-2.808594-3.210938-2.480469-8.09375.734374-10.902344 3.210938-2.808594 8.09375-2.476562 10.902344.734375 2.824219 3.234375 7.070313 5.089844 11.652344 5.089844s8.828125-1.855469 11.65625-5.089844c2.808594-3.214843 7.6875-3.542969 10.902344-.730469 3.210937 2.804688 3.539062 7.6875.730468 10.902344-5.761718 6.589844-14.25 10.371094-23.289062 10.371094zm0 0"/></g><path d="m206.175781 20.890625c-2.589843-2.90625-4.941406-6.054687-7.015625-9.425781-2.140625-3.480469-3.972656-7.15625-5.453125-10.964844l-42.132812 16.398438c2.953125 7.582031 6.695312 14.753906 11.140625 21.4375 0 0 16.671875-7.015626 16.679687-7.015626 0 0 26.785157-10.425781 26.78125-10.429687zm0 0" fill="#d64655"/></svg>