<svg height="512pt" viewBox="-31 0 512 512" width="512pt" xmlns="http://www.w3.org/2000/svg"><path d="m450 366.898438v130.101562c0 8.398438-6.597656 15-15 15h-390l180-236.902344 165-215.097656c4.800781 16.199219 60 129.300781 60 306.898438zm0 0" fill="#cc2e43"/><path d="m450 366.898438v130.101562c0 8.398438-6.597656 15-15 15h-210v-236.902344l165-215.097656c4.800781 16.199219 60 129.300781 60 306.898438zm0 0" fill="#ae2538"/><path d="m390 60v105c0 124.199219-66 235.398438-165 296-52.5 32.402344-114 51-180 51h-30c-8.402344 0-15-6.601562-15-15v-130.101562c0-165 57.300781-298.199219 60-306.898438l151.199219-30 13.800781 2.398438zm0 0" fill="#e63950"/><path d="m390 60v105c0 124.199219-66 235.398438-165 296v-428.601562zm0 0" fill="#cc2e43"/><g fill="#53433f"><path d="m329.972656 135c0 8.285156-6.71875 15-15 15-8.285156 0-15-6.714844-15-15s6.714844-15 15-15c8.28125 0 15 6.714844 15 15zm0 0"/><path d="m329.972656 195c0 8.285156-6.71875 15-15 15-8.285156 0-15-6.714844-15-15s6.714844-15 15-15c8.28125 0 15 6.714844 15 15zm0 0"/><path d="m329.972656 255c0 8.285156-6.71875 15-15 15-8.285156 0-15-6.714844-15-15s6.714844-15 15-15c8.28125 0 15 6.714844 15 15zm0 0"/><path d="m75 0c-8.402344 0-15 6.597656-15 15v45h120v-60zm0 0"/></g><path d="m390 15v45h-210c-16.5 0-30-13.5-30-30s13.5-30 30-30h195c8.402344 0 15 6.597656 15 15zm0 0" fill="#725d57"/><path d="m390 15v45h-165v-60h150c8.402344 0 15 6.597656 15 15zm0 0" fill="#68544f"/></svg>