<svg height="464pt" viewBox="0 0 464 464.336" width="464pt" xmlns="http://www.w3.org/2000/svg"><path d="m96.167969 32.335938-96 272 40 16 92-184zm0 0" fill="#754c24"/><path d="m368.167969 32.335938 96 272-40 16-93.335938-186.664063zm0 0" fill="#8c6239"/><path d="m200.167969.335938h64l-32 80zm0 0" fill="#42210b"/><path d="m326.761719 176.929688 41.40625-144.929688-64-16-40-16-32 80-24 128v256h144l-.097657-11.808594c-.644531-77.128906-11.371093-153.84375-31.902343-228.191406 0-15.921875 2.21875-31.765625 6.59375-47.070312zm0 0" fill="#754c24"/><path d="m137.574219 177.257812-41.40625-144.921874 64-16 40-16 32 80-24 128v256h-96l.097656-11.808594c.644531-77.128906 11.367187-153.84375 31.902344-228.191406 0-15.921876-2.21875-31.769532-6.59375-47.078126zm0 0" fill="#8c6239"/><path d="m200.167969.335938-40 16c5.238281 26.210937 3.550781 53.335937-4.894531 78.695312l-3.105469 9.304688 40-16-16 48h48l8-56zm0 0" fill="#754c24"/><path d="m161.054688 294.152344c10.527343-9.652344 16.089843-23.570313 15.113281-37.816406 0-4.417969-3.582031-8-8-8s-8 3.582031-8 8c.839843 9.484374-2.597657 18.847656-9.375 25.535156-6.261719 4.707031-13.933594 7.148437-21.761719 6.929687-1.046875 5.320313-2.078125 10.640625-3.03125 16 .695312 0 1.367188.054688 2.152344.054688 11.878906.359375 23.511718-3.425781 32.902344-10.703125zm0 0" fill="#42210b"/><path d="m304.167969 256.335938c0-4.417969-3.582031-8-8-8s-8 3.582031-8 8c-1 14.304687 4.570312 28.285156 15.136719 37.984374 9.226562 7.148438 20.652343 10.863282 32.320312 10.511719.984375 0 1.863281 0 2.710938-.070312-.953126-5.320313-1.984376-10.625-3.03125-15.929688-7.816407.289063-15.492188-2.113281-21.753907-6.800781-6.800781-6.738281-10.242187-16.160156-9.382812-25.695312zm0 0" fill="#42210b"/><g fill="#edc35d"><path d="m272.167969 272.335938h-10.214844c-3.621094-6.269532-11.003906-9.328126-18-7.453126-6.992187 1.871094-11.859375 8.210938-11.859375 15.453126 0 7.242187 4.867188 13.582031 11.859375 15.453124 6.996094 1.875 14.378906-1.179687 18-7.453124h10.214844c4.417969 0 8-3.582032 8-8 0-4.417969-3.582031-8-8-8zm0 0"/><path d="m272.167969 320.335938h-10.214844c-3.621094-6.269532-11.003906-9.328126-18-7.453126-6.992187 1.871094-11.859375 8.210938-11.859375 15.453126 0 7.242187 4.867188 13.582031 11.859375 15.453124 6.996094 1.875 14.378906-1.179687 18-7.453124h10.214844c4.417969 0 8-3.582032 8-8 0-4.417969-3.582031-8-8-8zm0 0"/><path d="m272.167969 368.335938h-10.214844c-3.621094-6.269532-11.003906-9.328126-18-7.453126-6.992187 1.871094-11.859375 8.210938-11.859375 15.453126 0 7.242187 4.867188 13.582031 11.859375 15.453124 6.996094 1.875 14.378906-1.179687 18-7.453124h10.214844c4.417969 0 8-3.582032 8-8 0-4.417969-3.582031-8-8-8zm0 0"/><path d="m248.167969 248.335938c5.691406-.015626 10.945312-3.066407 13.785156-8h10.214844c4.417969 0 8-3.582032 8-8 0-4.417969-3.582031-8-8-8h-10.214844c-3.886719-6.730469-12.050781-9.695313-19.351563-7.027344-7.300781 2.671875-11.628906 10.203125-10.253906 17.851562 1.371094 7.652344 8.046875 13.210938 15.820313 13.175782zm0 0"/></g><path d="m312.167969 104.335938-3.105469-9.304688c-8.445312-25.359375-10.132812-52.484375-4.894531-78.695312l-40-16-32 80-24 128 18.398437-29.40625c13.792969-22.078126 36.078125-37.488282 61.601563-42.59375l-16-48zm0 0" fill="#7f5532"/></svg>