<?xml version="1.0" encoding="iso-8859-1"?>
<!-- Generator: Adobe Illustrator 19.0.0, SVG Export Plug-In . SVG Version: 6.00 Build 0)  -->
<svg version="1.1" id="Layer_1" xmlns="http://www.w3.org/2000/svg" xmlns:xlink="http://www.w3.org/1999/xlink" x="0px" y="0px"
	 viewBox="0 0 512 512" style="enable-background:new 0 0 512 512;" xml:space="preserve">
<path style="fill:#DDCAAB;" d="M166.248,165.753c-7.686,1.328-18.342,7.089-23.676,12.783l-38.316,40.938l-21.101,58.608
	l126.089-113.936v-5.875L166.248,165.753z"/>
<path style="fill:#C3B192;" d="M200.006,165.753c-7.686,1.328-18.342,7.089-23.676,12.783l-38.316,40.938l-54.859,58.608
	l21.101,44.344l41.388-43.604l63.601-42.185v-72.49L200.006,165.753z"/>
<path style="fill:#B6A07A;" d="M407.743,219.474l-38.316-40.938c-5.334-5.694-15.99-11.455-23.676-12.783l-42.997-7.483v5.875
	l126.089,113.936L407.743,219.474z"/>
<path style="fill:#C3B192;" d="M335.669,178.536c-5.334-5.694-15.99-11.455-23.676-12.783l-9.238-1.608v72.49l63.601,42.185
	l41.388,43.604l21.101-44.344l-54.859-58.608L335.669,178.536z"/>
<polygon style="fill:#C30E0C;" points="268.997,158.27 272.41,164.739 306.168,164.739 302.755,158.27 "/>
<polygon style="fill:#EA1A17;" points="233.495,158.27 233.495,301.326 366.356,278.821 306.168,164.739 268.997,158.27 "/>
<polygon style="fill:#760200;" points="321.345,373.515 366.356,356.543 366.356,278.821 332.597,278.821 "/>
<polygon style="fill:#9D0200;" points="233.495,278.821 233.495,379.049 332.597,362.262 332.597,278.821 366.356,278.821 "/>
<polygon style="fill:#C30E0C;" points="310.092,451.249 366.356,434.277 366.356,356.543 332.597,356.543 "/>
<polygon style="fill:#EA1A17;" points="233.495,356.543 233.495,456.783 332.597,439.996 332.597,356.543 "/>
<path style="fill:#760200;" d="M332.597,434.277L289.083,512h33.758c24.036,0,43.514-19.478,43.514-43.514v-34.208L332.597,434.277
	L332.597,434.277z"/>
<path style="fill:#9D0200;" d="M332.597,468.486v-34.208h-87.85L256,512h33.083C313.119,512,332.597,492.522,332.597,468.486z"/>
<g>
	<rect x="421.325" y="416.554" style="fill:#EA1A17;" width="36.279" height="50.637"/>
	<rect x="54.396" y="416.554" style="fill:#EA1A17;" width="36.279" height="50.637"/>
</g>
<polygon style="fill:#F3847C;" points="209.245,158.27 205.832,164.739 239.59,164.739 243.003,158.27 "/>
<polygon style="fill:#F75754;" points="243.003,158.27 205.832,164.739 145.644,278.821 200.822,312.579 256,278.821 256,158.27 "/>
<path style="fill:#B6A07A;" d="M47.284,280.34c-3.556,3.803-6.47,11.163-6.47,16.373v128.754c0,7.506,6.088,13.593,13.582,13.593
	h33.758l16.103-183.521v-36.065L47.284,280.34z"/>
<path style="fill:#AA8F63;" d="M74.572,296.712v128.754c0,7.506,6.088,13.593,13.582,13.593h2.521
	c7.506,0,13.582-6.088,13.582-13.593V255.539L81.042,280.34C77.486,284.143,74.572,291.502,74.572,296.712z"/>
<path style="fill:#90784E;" d="M464.716,280.34l-56.973-60.866v36.065l16.103,183.521h33.758c7.494,0,13.582-6.088,13.582-13.593
	V296.712C471.186,291.502,468.272,284.143,464.716,280.34z"/>
<path style="fill:#AA8F63;" d="M437.428,425.466V296.712c0-5.21-2.914-12.569-6.47-16.373l-23.214-24.801v169.928
	c0,7.506,6.076,13.593,13.582,13.593h2.521C431.34,439.06,437.428,432.972,437.428,425.466z"/>
<path style="fill:#9D0200;" d="M256,0c-43.514,0-78.788,35.275-78.788,78.788c0,53.239,44.286,97.675,78.788,124.718
	c34.503-27.043,78.789-71.479,78.789-124.718C334.788,35.275,299.513,0,256,0z"/>
<path style="fill:#4F0100;" d="M256,28.132c-27.933,0-50.658,22.725-50.658,50.656c0,33.275,24.698,64.425,50.658,87.973
	c25.96-23.546,50.656-54.696,50.656-87.973C306.656,50.857,283.932,28.132,256,28.132z"/>
<polygon style="fill:#F13936;" points="145.644,278.821 145.644,356.543 201.908,377.197 179.403,278.821 "/>
<polygon style="fill:#EA1A17;" points="256,356.543 256,278.821 145.644,278.821 179.403,278.821 179.403,377.197 "/>
<polygon style="fill:#F3847C;" points="145.644,356.543 145.644,434.277 201.908,454.931 179.403,356.543 "/>
<polygon style="fill:#F75754;" points="256,434.277 256,356.543 179.403,356.543 179.403,454.931 "/>
<path style="fill:#C30E0C;" d="M179.403,434.277h-33.758v34.208c0,24.036,19.479,43.514,43.514,43.514h33.758L179.403,434.277z"/>
<path style="fill:#EA1A17;" d="M179.403,434.277v34.208c0,24.036,19.479,43.514,43.514,43.514H256v-77.723H179.403z"/>
<g>
</g>
<g>
</g>
<g>
</g>
<g>
</g>
<g>
</g>
<g>
</g>
<g>
</g>
<g>
</g>
<g>
</g>
<g>
</g>
<g>
</g>
<g>
</g>
<g>
</g>
<g>
</g>
<g>
</g>
</svg>
