<?xml version="1.0"?>
<svg xmlns="http://www.w3.org/2000/svg" viewBox="0 0 64 64" width="512" height="512"><g id="flat"><path d="M41,29,31,21l-4-4H22l3,4s-2,3-9,3S5,21,5,21L3,30,5,41H21l4,2H59V40.081a8,8,0,0,0-5.859-7.708Z" style="fill:#69b1d5"/><path d="M41,29c0,4-5,5-5,5L22,23a6.008,6.008,0,0,0,3-2l-3-4h5l4,4,1.43,1.15,1.58,1.26,1.2.96,1.58,1.26,1.2.96,1.58,1.26Z" style="fill:#3b73a5"/><path d="M3,30s13,1,18,11H5Z" style="fill:#f3bb59"/><polygon points="34.01 23.41 31.21 26.21 29.79 24.79 32.43 22.15 34.01 23.41" style="fill:#f3bb59"/><polygon points="36.79 25.63 34.21 28.21 32.79 26.79 35.21 24.37 36.79 25.63" style="fill:#f3bb59"/><polygon points="39.57 27.85 37.21 30.21 35.79 28.79 37.99 26.59 39.57 27.85" style="fill:#f3bb59"/><polygon points="21 28 35 39 45 39 43 43 33 43 14 28 21 28" style="fill:#3b73a5"/><rect x="6" y="22.838" width="2" height="6.325" transform="translate(-19.879 24.419) rotate(-71.565)" style="fill:#3b73a5"/><rect x="46.764" y="40" width="4.472" height="2" transform="translate(-9.585 66.491) rotate(-63.435)" style="fill:#3b73a5"/><rect x="51.764" y="40" width="4.472" height="2" transform="translate(-6.821 70.963) rotate(-63.435)" style="fill:#3b73a5"/><rect x="43" y="33" width="2" height="2" style="fill:#fff"/><rect x="47" y="34" width="2" height="2" style="fill:#fff"/><path d="M59,47H7a4,4,0,0,1-4-4V41H21l4,2H61v2A2,2,0,0,1,59,47Z" style="fill:#2f3e4f"/></g></svg>
