<?xml version="1.0"?>
<svg xmlns="http://www.w3.org/2000/svg" viewBox="0 0 64 64" width="512" height="512"><g id="flat"><rect x="20" y="3" width="24" height="12" style="fill:#aa212e"/><polygon points="20 57 4 57 4 10 11 3 20 3 20 57" style="fill:#dd3e46"/><rect x="3" y="57" width="2" height="5" style="fill:#dd3e46"/><rect x="7" y="57" width="2" height="5" style="fill:#dd3e46"/><rect x="11" y="57" width="2" height="5" style="fill:#dd3e46"/><rect x="15" y="57" width="2" height="5" style="fill:#dd3e46"/><rect x="19" y="57" width="2" height="5" style="fill:#dd3e46"/><polygon points="44 57 60 57 60 10 52 3 44 3 44 57" style="fill:#dd3e46"/><rect x="59" y="57" width="2" height="5" style="fill:#dd3e46"/><rect x="55" y="57" width="2" height="5" style="fill:#dd3e46"/><rect x="51" y="57" width="2" height="5" style="fill:#dd3e46"/><rect x="47" y="57" width="2" height="5" style="fill:#dd3e46"/><rect x="43" y="57" width="2" height="5" style="fill:#dd3e46"/><rect x="4" y="53" width="16" height="4" style="fill:#3e8051"/><rect x="4" y="45" width="16" height="4" style="fill:#3e8051"/><rect x="4" y="37" width="16" height="4" style="fill:#3e8051"/><rect x="44" y="53" width="16" height="4" style="fill:#3e8051"/><rect x="44" y="45" width="16" height="4" style="fill:#3e8051"/><rect x="44" y="37" width="16" height="4" style="fill:#3e8051"/><rect x="39" y="6" width="5" height="2" style="fill:#f4b0b9"/><rect x="20" y="10" width="5" height="2" style="fill:#f4b0b9"/><rect x="27" y="10" width="2" height="2" style="fill:#f4b0b9"/><circle cx="12" cy="29" r="4" style="fill:#f4b0b9"/><circle cx="52" cy="29" r="4" style="fill:#f4b0b9"/></g></svg>
