<?xml version="1.0" encoding="iso-8859-1"?>
<!-- Generator: Adobe Illustrator 19.0.0, SVG Export Plug-In . SVG Version: 6.00 Build 0)  -->
<svg xmlns="http://www.w3.org/2000/svg" xmlns:xlink="http://www.w3.org/1999/xlink" version="1.1" id="Layer_1" x="0px" y="0px" viewBox="0 0 512 512" style="enable-background:new 0 0 512 512;" xml:space="preserve" width="512" height="512">
<g>
	<path style="fill:#F4D7AF;" d="M464.299,199.799L512,271v121c0,66.299-53.699,120-120,120s-120-53.701-120-120V271l52.5-60L272,120   C272,53.699,325.699,0,392,0s120,53.699,120,120L464.299,199.799z"/>
	<path style="fill:#DABBA6;" d="M464.299,199.799L512,271v121c0,66.299-53.699,120-120,120V0c66.301,0,120,53.699,120,120   L464.299,199.799z"/>
	<g>
		<path style="fill:#FAECD8;" d="M392,60c-32.999,0-60,26.999-60,60v272c0,32.999,27.001,60,60,60s60-27.001,60-60V120    C452,86.999,424.999,60,392,60z"/>
	</g>
	<path style="fill:#F4D7AF;" d="M452,120v272c0,32.999-27.001,60-60,60V60C424.999,60,452,86.999,452,120z"/>
	<path style="fill:#F4D7AF;" d="M192.299,199.799L240,271v121c0,66.299-53.699,120-120,120S0,458.299,0,392V271l52.5-60L0,120   C0,53.699,53.699,0,120,0s120,53.699,120,120L192.299,199.799z"/>
	<path style="fill:#DABBA6;" d="M192.299,199.799L240,271v121c0,66.299-53.699,120-120,120V0c66.301,0,120,53.699,120,120   L192.299,199.799z"/>
	<g>
		<path style="fill:#FAECD8;" d="M120,60c-32.999,0-60,26.999-60,60v272c0,32.999,27.001,60,60,60s60-27.001,60-60V120    C180,86.999,152.999,60,120,60z"/>
	</g>
	<path style="fill:#F4D7AF;" d="M180,120v272c0,32.999-27.001,60-60,60V60C152.999,60,180,86.999,180,120z"/>
	<g>
		<g>
			<g>
				<g>
					<path style="fill:#C2FB3B;" d="M0,120v151h240V120H0z"/>
				</g>
			</g>
		</g>
	</g>
	<rect x="120" y="120" style="fill:#91DC5A;" width="120" height="151"/>
	<g>
		<g>
			<g>
				<g>
					<path style="fill:#C2FB3B;" d="M272,120v151h240V120H272z"/>
				</g>
			</g>
		</g>
	</g>
	<rect x="392" y="120" style="fill:#91DC5A;" width="120" height="151"/>
</g>















</svg>
