<?xml version="1.0" encoding="iso-8859-1"?>
<!-- Generator: Adobe Illustrator 19.0.0, SVG Export Plug-In . SVG Version: 6.00 Build 0)  -->
<svg version="1.1" id="Capa_1" xmlns="http://www.w3.org/2000/svg" xmlns:xlink="http://www.w3.org/1999/xlink" x="0px" y="0px"
	 viewBox="0 0 56.027 56.027" style="enable-background:new 0 0 56.027 56.027;" xml:space="preserve">
<path style="fill:#556080;" d="M55.586,29.972c-0.539-0.121-0.877-0.657-0.756-1.195l0.057-0.271
	c0.078-0.41,0.398-0.712,0.782-0.792c-0.051-0.215-0.102-0.431-0.165-0.653c-0.067-0.237-0.163-0.461-0.258-0.682l-2.413-6.417
	c-0.433-1.152-1.972-1.363-2.699-0.37c-1.326,1.812-3.466,2.982-5.71,3.044h-4.411l-4-4.468c-0.813-0.58-1.864-0.696-2.78-0.299
	c-4.084,1.77-9.533,6.997-18.495,9.218c-1.09,0.27-2.215,0.548-3.338,0.548H3.718c-1.007,0-1.941,0.348-2.626,0.988
	c0.1,0.079,0.187,0.178,0.253,0.297c0.133,0.238,0.289,0.474,0.466,0.697c0.341,0.434,0.267,1.063-0.168,1.404
	c-0.183,0.144-0.401,0.214-0.617,0.214c-0.296,0-0.59-0.131-0.787-0.382c-0.069-0.087-0.118-0.184-0.182-0.274
	c-0.248,1.423,0.339,2.895,1.579,3.722c0.039,0.026,0.079,0.052,0.119,0.079c4.515,2.981,9.753,4.276,15.14,3.771
	c3.817-0.357,9.697-0.978,14.115-1.764c2.641-0.47,5.346-0.414,7.958,0.2l5.214,1.227l0.07,0.024
	c0.067,0.024,0.136,0.047,0.205,0.069c5.048,1.601,11.973-0.742,11.555-7.948c-0.067,0.014-0.132,0.035-0.202,0.035
	C55.733,29.996,55.66,29.989,55.586,29.972z M5.079,33.074C4.907,33.431,4.55,33.64,4.177,33.64c-0.146,0-0.293-0.031-0.433-0.099
	c-0.331-0.159-0.652-0.331-0.96-0.514c-0.475-0.282-0.63-0.896-0.348-1.371c0.283-0.475,0.896-0.63,1.371-0.348
	c0.257,0.153,0.525,0.296,0.804,0.43C5.108,31.978,5.318,32.576,5.079,33.074z M8.943,34.116c-0.103,0.467-0.517,0.785-0.976,0.785
	c-0.071,0-0.144-0.008-0.216-0.023c-0.343-0.075-0.682-0.158-1.017-0.248c-0.534-0.144-0.851-0.691-0.707-1.225
	c0.144-0.534,0.692-0.851,1.225-0.707c0.306,0.082,0.615,0.157,0.929,0.227C8.721,33.043,9.062,33.577,8.943,34.116z M11.925,35.469
	c-0.025,0-0.052-0.001-0.078-0.003c-0.34-0.026-0.684-0.058-1.026-0.095c-0.55-0.06-0.946-0.553-0.887-1.102
	c0.06-0.55,0.557-0.946,1.102-0.887c0.323,0.035,0.646,0.064,0.966,0.089c0.55,0.042,0.962,0.523,0.92,1.074
	C12.881,35.071,12.442,35.469,11.925,35.469z M15.95,35.56c-0.331,0.009-0.673,0.016-1.021,0.018c-0.002,0-0.004,0-0.006,0
	c-0.55,0-0.997-0.444-1-0.994c-0.003-0.553,0.442-1.003,0.994-1.006c0.335-0.002,0.661-0.009,0.979-0.018
	c0.554-0.009,1.013,0.42,1.027,0.973S16.502,35.544,15.95,35.56z M20.03,35.206c-0.335,0.042-0.67,0.081-1.005,0.119
	c-0.038,0.004-0.075,0.006-0.112,0.006c-0.503,0-0.936-0.378-0.993-0.889c-0.062-0.549,0.334-1.044,0.883-1.105
	c0.327-0.036,0.654-0.075,0.981-0.115c0.552-0.079,1.047,0.321,1.115,0.869S20.578,35.139,20.03,35.206z M24.017,34.651
	l-0.995,0.146c-0.049,0.008-0.097,0.011-0.145,0.011c-0.489,0-0.916-0.358-0.988-0.856c-0.08-0.547,0.299-1.054,0.846-1.133
	l0.983-0.145c0.547-0.083,1.056,0.293,1.138,0.839C24.939,34.059,24.563,34.569,24.017,34.651z M27.953,34.103
	c-0.327,0.041-0.653,0.084-0.979,0.129c-0.046,0.006-0.091,0.009-0.136,0.009c-0.493,0-0.922-0.363-0.99-0.865
	c-0.074-0.547,0.31-1.051,0.856-1.126c0.334-0.045,0.668-0.09,1.003-0.131c0.549-0.08,1.048,0.321,1.115,0.869
	C28.89,33.536,28.501,34.036,27.953,34.103z M31.878,33.715c-0.328,0.021-0.655,0.046-0.982,0.073
	c-0.028,0.002-0.056,0.003-0.083,0.003c-0.516,0-0.952-0.396-0.996-0.918c-0.045-0.551,0.364-1.033,0.915-1.079
	c0.337-0.027,0.674-0.052,1.012-0.075c0.575-0.024,1.028,0.38,1.065,0.931S32.428,33.678,31.878,33.715z M35.809,33.666
	c-0.021,0-0.043-0.001-0.064-0.002l-0.241-0.012c-0.235-0.007-0.471-0.013-0.707-0.016c-0.553-0.007-0.995-0.46-0.988-1.012
	c0.007-0.554,0.436-1.036,1.012-0.988c0.25,0.003,0.499,0.009,0.748,0.018l0.304,0.014c0.552,0.035,0.97,0.511,0.935,1.062
	C36.772,33.259,36.333,33.666,35.809,33.666z M39.762,34.268c-0.065,0-0.133-0.006-0.199-0.02c-0.328-0.066-0.651-0.131-0.969-0.191
	c-0.543-0.102-0.9-0.624-0.798-1.167c0.102-0.543,0.626-0.898,1.167-0.798c0.327,0.061,0.658,0.127,0.996,0.195
	c0.541,0.109,0.892,0.638,0.782,1.179C40.645,33.941,40.228,34.268,39.762,34.268z M43.682,35.073c-0.062,0-0.123-0.006-0.186-0.018
	c-0.331-0.062-0.663-0.127-0.994-0.193c-0.541-0.108-0.893-0.635-0.784-1.177c0.107-0.541,0.628-0.898,1.177-0.784
	c0.323,0.064,0.647,0.128,0.971,0.189c0.543,0.102,0.9,0.624,0.798,1.167C44.574,34.738,44.154,35.073,43.682,35.073z
	 M47.647,35.587c-0.016,0-0.03,0-0.046-0.001c-0.347-0.016-0.697-0.042-1.052-0.077c-0.55-0.055-0.951-0.544-0.896-1.094
	c0.054-0.548,0.516-0.951,1.094-0.896c0.317,0.031,0.633,0.056,0.944,0.069c0.552,0.024,0.979,0.492,0.954,1.044
	C48.622,35.168,48.178,35.587,47.647,35.587z M51.917,35.103c-0.342,0.114-0.707,0.211-1.088,0.287
	c-0.066,0.014-0.133,0.02-0.197,0.02c-0.467,0-0.885-0.328-0.979-0.804c-0.108-0.542,0.243-1.068,0.784-1.177
	c0.29-0.058,0.571-0.131,0.842-0.223c0.529-0.173,1.092,0.106,1.268,0.629C52.721,34.359,52.44,34.926,51.917,35.103z
	 M55.546,32.309c-0.212,0.33-0.451,0.642-0.71,0.925c-0.197,0.216-0.468,0.325-0.738,0.325c-0.241,0-0.482-0.087-0.675-0.262
	c-0.407-0.373-0.436-1.005-0.063-1.413c0.184-0.2,0.353-0.421,0.505-0.657c0.298-0.464,0.918-0.598,1.382-0.3
	C55.711,31.226,55.844,31.844,55.546,32.309z"/>
<path style="fill:#8697CB;" d="M27.707,32.119c-0.335,0.041-0.669,0.086-1.003,0.131c-0.547,0.075-0.931,0.579-0.856,1.126
	c0.068,0.502,0.497,0.865,0.99,0.865c0.045,0,0.09-0.003,0.136-0.009c0.326-0.045,0.652-0.088,0.979-0.129
	c0.548-0.067,0.938-0.567,0.869-1.115C28.755,32.44,28.256,32.038,27.707,32.119z"/>
<path style="fill:#8697CB;" d="M15.895,33.56c-0.317,0.009-0.644,0.016-0.979,0.018c-0.552,0.003-0.997,0.453-0.994,1.006
	c0.003,0.55,0.45,0.994,1,0.994c0.002,0,0.004,0,0.006,0c0.349-0.002,0.69-0.009,1.021-0.018c0.552-0.016,0.987-0.475,0.973-1.027
	S16.449,33.551,15.895,33.56z"/>
<path style="fill:#8697CB;" d="M23.718,32.674l-0.983,0.145c-0.547,0.079-0.926,0.586-0.846,1.133
	c0.072,0.498,0.499,0.856,0.988,0.856c0.048,0,0.096-0.003,0.145-0.011l0.995-0.146c0.546-0.082,0.922-0.592,0.839-1.138
	C24.774,32.967,24.265,32.591,23.718,32.674z"/>
<path style="fill:#8697CB;" d="M1.025,31.238c0.216,0,0.435-0.07,0.617-0.214c0.435-0.342,0.509-0.971,0.168-1.404
	c-0.177-0.224-0.333-0.459-0.466-0.697c-0.066-0.118-0.153-0.217-0.253-0.297c-0.351,0.328-0.64,0.728-0.832,1.207v0
	c-0.098,0.246-0.16,0.497-0.204,0.75c0.064,0.09,0.114,0.187,0.182,0.274C0.435,31.107,0.729,31.238,1.025,31.238z"/>
<path style="fill:#8697CB;" d="M4.611,31.739c-0.278-0.134-0.547-0.276-0.804-0.43c-0.475-0.282-1.088-0.127-1.371,0.348
	c-0.282,0.475-0.127,1.089,0.348,1.371c0.308,0.183,0.629,0.354,0.96,0.514c0.14,0.067,0.287,0.099,0.433,0.099
	c0.373,0,0.73-0.209,0.902-0.566C5.318,32.576,5.108,31.978,4.611,31.739z"/>
<path style="fill:#8697CB;" d="M8.181,32.924c-0.313-0.069-0.623-0.145-0.929-0.227c-0.532-0.144-1.081,0.173-1.225,0.707
	c-0.144,0.533,0.173,1.081,0.707,1.225c0.335,0.09,0.674,0.173,1.017,0.248c0.072,0.016,0.145,0.023,0.216,0.023
	c0.459,0,0.873-0.318,0.976-0.785C9.062,33.577,8.721,33.043,8.181,32.924z"/>
<path style="fill:#8697CB;" d="M12.001,33.472c-0.32-0.024-0.643-0.054-0.966-0.089c-0.545-0.06-1.042,0.337-1.102,0.887
	c-0.06,0.549,0.337,1.042,0.887,1.102c0.343,0.037,0.687,0.068,1.026,0.095c0.026,0.002,0.053,0.003,0.078,0.003
	c0.518,0,0.956-0.398,0.996-0.923C12.963,33.995,12.551,33.514,12.001,33.472z"/>
<path style="fill:#8697CB;" d="M19.784,33.222c-0.327,0.04-0.654,0.079-0.981,0.115c-0.549,0.062-0.944,0.557-0.883,1.105
	c0.058,0.511,0.49,0.889,0.993,0.889c0.037,0,0.074-0.002,0.112-0.006c0.335-0.038,0.67-0.077,1.005-0.119
	c0.548-0.067,0.938-0.567,0.869-1.115S20.336,33.143,19.784,33.222z"/>
<path style="fill:#8697CB;" d="M51.278,33.206c-0.271,0.092-0.552,0.165-0.842,0.223c-0.541,0.108-0.893,0.635-0.784,1.177
	c0.095,0.476,0.513,0.804,0.979,0.804c0.064,0,0.131-0.006,0.197-0.02c0.381-0.076,0.746-0.173,1.088-0.287
	c0.523-0.177,0.805-0.744,0.629-1.268C52.37,33.313,51.807,33.034,51.278,33.206z"/>
<path style="fill:#8697CB;" d="M55.246,30.927c-0.464-0.298-1.084-0.164-1.382,0.3c-0.152,0.236-0.321,0.457-0.505,0.657
	c-0.372,0.408-0.344,1.04,0.063,1.413c0.192,0.175,0.434,0.262,0.675,0.262c0.271,0,0.541-0.109,0.738-0.325
	c0.259-0.283,0.498-0.595,0.71-0.925C55.844,31.844,55.711,31.226,55.246,30.927z"/>
<path style="fill:#8697CB;" d="M54.886,28.506l-0.057,0.271c-0.121,0.538,0.217,1.074,0.756,1.195
	c0.074,0.017,0.147,0.024,0.221,0.024c0.07,0,0.135-0.021,0.202-0.035c-0.041-0.703-0.151-1.451-0.34-2.247
	C55.284,27.794,54.964,28.096,54.886,28.506z"/>
<path style="fill:#8697CB;" d="M31.743,31.719c-0.338,0.023-0.675,0.048-1.012,0.075c-0.551,0.046-0.96,0.528-0.915,1.079
	c0.044,0.522,0.48,0.918,0.996,0.918c0.027,0,0.055-0.001,0.083-0.003c0.327-0.027,0.654-0.052,0.982-0.073
	c0.551-0.037,0.968-0.515,0.931-1.065S32.318,31.695,31.743,31.719z"/>
<path style="fill:#8697CB;" d="M47.691,33.588c-0.312-0.014-0.627-0.038-0.944-0.069c-0.578-0.055-1.04,0.349-1.094,0.896
	c-0.055,0.55,0.347,1.039,0.896,1.094c0.354,0.035,0.705,0.062,1.052,0.077c0.016,0.001,0.03,0.001,0.046,0.001
	c0.531,0,0.975-0.419,0.998-0.955C48.67,34.08,48.243,33.613,47.691,33.588z"/>
<path style="fill:#8697CB;" d="M35.872,31.668l-0.304-0.014c-0.249-0.009-0.498-0.015-0.748-0.018
	c-0.576-0.048-1.005,0.435-1.012,0.988c-0.007,0.552,0.436,1.005,0.988,1.012c0.236,0.003,0.472,0.009,0.707,0.016l0.241,0.012
	c0.021,0.001,0.043,0.002,0.064,0.002c0.523,0,0.963-0.407,0.997-0.937C36.842,32.179,36.424,31.703,35.872,31.668z"/>
<path style="fill:#8697CB;" d="M43.866,33.09c-0.323-0.062-0.647-0.125-0.971-0.189c-0.549-0.114-1.069,0.243-1.177,0.784
	c-0.108,0.542,0.243,1.068,0.784,1.177c0.331,0.066,0.663,0.132,0.994,0.193c0.063,0.012,0.124,0.018,0.186,0.018
	c0.472,0,0.892-0.335,0.981-0.815C44.766,33.714,44.409,33.192,43.866,33.09z"/>
<path style="fill:#8697CB;" d="M39.96,32.287c-0.338-0.068-0.669-0.135-0.996-0.195c-0.541-0.101-1.065,0.255-1.167,0.798
	c-0.103,0.543,0.255,1.065,0.798,1.167c0.317,0.061,0.641,0.125,0.969,0.191c0.066,0.014,0.134,0.02,0.199,0.02
	c0.466,0,0.883-0.327,0.979-0.802C40.851,32.925,40.501,32.397,39.96,32.287z"/>
<path style="fill:#ECF0F1;" d="M16.321,26.654l13.693,1.712c2.841,0.355,4.48-3.129,2.395-5.091l-3.256-3.065
	C25.888,22.299,21.802,25.012,16.321,26.654z"/>
<g>
</g>
<g>
</g>
<g>
</g>
<g>
</g>
<g>
</g>
<g>
</g>
<g>
</g>
<g>
</g>
<g>
</g>
<g>
</g>
<g>
</g>
<g>
</g>
<g>
</g>
<g>
</g>
<g>
</g>
</svg>
