<?xml version="1.0" encoding="iso-8859-1"?>
<!-- Generator: Adobe Illustrator 19.0.0, SVG Export Plug-In . SVG Version: 6.00 Build 0)  -->
<svg version="1.1" id="Capa_1" xmlns="http://www.w3.org/2000/svg" xmlns:xlink="http://www.w3.org/1999/xlink" x="0px" y="0px"
	 viewBox="0 0 512 512" style="enable-background:new 0 0 512 512;" xml:space="preserve">
<rect x="100.57" y="458.51" style="fill:#D72878;" width="103.53" height="53.49"/>
<rect x="307.9" y="458.51" style="fill:#BE1964;" width="103.53" height="53.49"/>
<polygon style="fill:#FF468C;" points="421.437,68.232 421.437,0 90.563,0 90.563,68.232 90.563,471 214.11,471 214.111,224.234 
	256,224.234 297.889,224.234 297.89,471 421.437,471 "/>
<polygon style="fill:#D72878;" points="421.437,68.232 421.437,0 256,0 256,224.234 297.889,224.234 297.89,471 421.437,471 "/>
<path style="fill:#FFE1ED;" d="M90.563,157.095h18.436c38.896,0,70.428-31.532,70.428-70.428V54.58H90.563v13.652V157.095z"/>
<path style="fill:#FFCFE2;" d="M421.437,157.095h-18.436c-38.896,0-70.428-31.532-70.428-70.428V54.58h88.864v13.652V157.095z"/>
<rect x="208.41" y="33.3" style="fill:#FFE1ED;" width="30" height="125.04"/>
<rect x="273.59" y="33.3" style="fill:#FFCFE2;" width="30" height="125.04"/>
<rect x="90.56" style="fill:#D72878;" width="330.87" height="68.23"/>
<rect x="256" style="fill:#BE1964;" width="165.44" height="68.23"/>
<g>
</g>
<g>
</g>
<g>
</g>
<g>
</g>
<g>
</g>
<g>
</g>
<g>
</g>
<g>
</g>
<g>
</g>
<g>
</g>
<g>
</g>
<g>
</g>
<g>
</g>
<g>
</g>
<g>
</g>
</svg>
