<svg height="512pt" viewBox="-26 0 512 512.00052" width="512pt" xmlns="http://www.w3.org/2000/svg"><path d="m304.609375 331.007812c-68.027344 1.015626-48.929687-60.921874-48.929687-206.117187l-113.082032-29.445313-113.082031 29.445313c0 147.175781-13.289063 194.21875-22.03125 242.996094l77.804687 84.964843 140.800782 19.96875 104.917968-19.96875 56.375-106.589843c-20.957031-9.292969-47.964843-15.253907-82.773437-15.253907zm0 0" fill="#c58d6f"/><path d="m255.679688 0h-226.164063c-13.566406 0-24.5625 10.996094-24.5625 24.5625v75.765625c0 13.566406 10.996094 24.5625 24.5625 24.5625h226.164063c13.566406 0 24.5625-10.996094 24.5625-24.5625v-75.765625c0-13.566406-11-24.5625-24.5625-24.5625zm0 0" fill="#dfae96"/><path d="m68.582031 73.292969c-4.265625 0-7.726562-3.457031-7.726562-7.726563v-13.394531c0-4.265625 3.460937-7.726563 7.726562-7.726563s7.726563 3.460938 7.726563 7.726563v13.394531c0 4.269532-3.460938 7.726563-7.726563 7.726563zm0 0" fill="#545b67"/><path d="m216.609375 73.292969c-4.265625 0-7.722656-3.457031-7.722656-7.726563v-13.394531c0-4.265625 3.457031-7.726563 7.722656-7.726563 4.269531 0 7.726563 3.460938 7.726563 7.726563v13.394531c0 4.269532-3.457032 7.726563-7.726563 7.726563zm0 0" fill="#545b67"/><path d="m142.597656 80.445312c-9.347656 0-18.128906-3.910156-24.085937-10.726562-2.808594-3.210938-2.480469-8.089844.734375-10.902344 3.210937-2.804687 8.089844-2.480468 10.902344.734375 3.019531 3.457031 7.558593 5.4375 12.449218 5.4375s9.429688-1.980469 12.449219-5.4375c2.8125-3.214843 7.691406-3.542969 10.902344-.734375 3.214843 2.808594 3.542969 7.691406.734375 10.902344-5.957032 6.816406-14.738282 10.726562-24.085938 10.726562zm0 0" fill="#545b67"/><g fill="#fed994"><path d="m55.855469 337.074219c-3.84375-1.859375-8.464844-.253907-10.324219 3.585937s-.253906 8.464844 3.585938 10.324219c4.035156 1.953125 7.996093 4.171875 11.773437 6.59375 1.292969.832031 2.734375 1.226563 4.164063 1.226563 2.542968 0 5.035156-1.257813 6.511718-3.558594 2.304688-3.589844 1.257813-8.371094-2.332031-10.671875-4.292969-2.757813-8.796875-5.277344-13.378906-7.5zm0 0"/><path d="m105.039062 392.683594c-3.824218 1.886718-5.398437 6.519531-3.511718 10.347656 1.980468 4.019531 3.738281 8.199219 5.222656 12.421875 1.117188 3.175781 4.101562 5.164063 7.289062 5.164063.847657 0 1.714844-.140626 2.558594-.4375 4.027344-1.414063 6.144532-5.824219 4.730469-9.851563-1.6875-4.800781-3.6875-9.554687-5.941406-14.128906-1.886719-3.828125-6.519531-5.398438-10.347657-3.515625zm0 0"/><path d="m12.675781 340.425781c.171875.035157.347657.070313.523438.089844 4.457031.519531 8.925781 1.316406 13.277343 2.363281.605469.144532 1.214844.214844 1.8125.214844 3.488282 0 6.652344-2.378906 7.507813-5.917969.996094-4.148437-1.554687-8.324219-5.703125-9.320312-4.792969-1.15625-9.707031-2.03125-14.613281-2.625-.9375 5.277343-1.878907 10.3125-2.804688 15.195312zm0 0"/><path d="m94.71875 385.632812c1.683594 0 3.375-.546874 4.796875-1.675781 3.34375-2.648437 3.90625-7.507812 1.25-10.851562-3.160156-3.992188-6.597656-7.835938-10.210937-11.421875-3.027344-3.007813-7.921876-2.992188-10.925782.035156-3.007812 3.027344-2.992187 7.917969.035156 10.925781 3.183594 3.160157 6.210938 6.546875 8.996094 10.0625 1.523438 1.921875 3.78125 2.925781 6.058594 2.925781zm0 0"/><path d="m128.554688 452.253906c-.023438-5.109375-.355469-10.253906-.976563-15.292968-.527344-4.234376-4.378906-7.246094-8.617187-6.71875-4.238282.523437-7.242188 4.382812-6.71875 8.617187.550781 4.4375.839843 8.964844.859374 13.464844.007813 1.777343.621094 3.40625 1.632813 4.707031l10.625 1.503906c1.941406-1.410156 3.207031-3.699218 3.195313-6.28125zm0 0"/><path d="m315.59375 359.039062c-2.738281 4.203126-5.324219 8.574219-7.679688 12.992188-2.011718 3.765625-.585937 8.445312 3.175782 10.453125 1.160156.621094 2.40625.914063 3.632812.914063 2.761719 0 5.429688-1.484376 6.820313-4.09375 2.148437-4.023438 4.503906-8.003907 6.996093-11.828126 2.332032-3.574218 1.320313-8.359374-2.253906-10.691406-3.574218-2.328125-8.359375-1.320312-10.691406 2.253906zm0 0"/><path d="m303.199219 452.851562c0-4.574218.199219-9.195312.59375-13.730468.371093-4.25-2.773438-7.996094-7.027344-8.367188-4.261719-.375-7.996094 2.773438-8.367187 7.027344-.433594 4.980469-.652344 10.050781-.652344 15.070312 0 3.347657 2.128906 6.191407 5.105468 7.261719l7.71875-1.46875c1.609376-1.414062 2.628907-3.480469 2.628907-5.792969zm0 0"/><path d="m297.132812 396.726562c-1.636718 4.742188-3.082031 9.613282-4.296874 14.480469-1.03125 4.140625 1.488281 8.332031 5.628906 9.367188.628906.15625 1.257812.230469 1.875.230469 3.460937 0 6.613281-2.347657 7.488281-5.859376 1.105469-4.425781 2.417969-8.855468 3.910156-13.167968 1.394531-4.035156-.746093-8.433594-4.777343-9.828125s-8.433594.742187-9.828126 4.777343zm0 0"/><path d="m332.582031 348.605469c1.476563 1.332031 3.324219 1.984375 5.167969 1.984375 2.113281 0 4.21875-.859375 5.742188-2.554688 2.546874-2.824218 5.226562-5.59375 7.972656-8.226562 1.203125-1.160156 1.945312-2.613282 2.234375-4.140625-5.4375-1.125-11.152344-2.066407-17.164063-2.800781-1.539062 1.585937-3.054687 3.195312-4.523437 4.828124-2.855469 3.167969-2.601563 8.054688.570312 10.910157zm0 0"/></g><path d="m7.484375 367.886719c-4.296875 23.902343-7.484375 48.230469-7.484375 84.964843l42.644531 19.96875 42.644531-19.96875c0-44.582031-34.207031-81.175781-77.804687-84.964843zm0 0" fill="#b1785d"/><path d="m387.382812 346.257812c-34.035156 23.203126-56.375 62.292969-56.375 106.59375l64.476563 17.261719 64.476563-17.261719s1.226562-73.90625-72.578126-106.59375zm0 0" fill="#b1785d"/><path d="m229.132812 172.613281c0 12.148438-9.847656 22-22 22-12.148437 0-21.996093-9.851562-21.996093-22 0-12.152343 9.847656-22 21.996093-22 12.152344 0 22 9.847657 22 22zm0 0" fill="#b1785d"/><path d="m251.542969 159.566406h-25.273438c-7.203125 0-13.042969 5.839844-13.042969 13.046875 0 7.203125 5.839844 13.042969 13.042969 13.042969h25.273438c7.203125 0 13.042969-5.839844 13.042969-13.042969 0-7.207031-5.839844-13.046875-13.042969-13.046875zm0 0" fill="#dfae96"/><path d="m228.117188 241.996094c0 12.148437-9.847657 22-22 22-12.148438 0-21.996094-9.851563-21.996094-22 0-12.148438 9.847656-22 21.996094-22 12.152343 0 22 9.851562 22 22zm0 0" fill="#b1785d"/><path d="m250.527344 228.953125h-25.273438c-7.203125 0-13.042968 5.839844-13.042968 13.042969s5.839843 13.042968 13.042968 13.042968h25.273438c7.203125 0 13.042968-5.839843 13.042968-13.042968s-5.839843-13.042969-13.042968-13.042969zm0 0" fill="#dfae96"/><path d="m236.582031 313.539062c0 12.148438-9.847656 22-22 22-12.148437 0-22-9.851562-22-22 0-12.148437 9.851563-22 22-22 12.152344 0 22 9.851563 22 22zm0 0" fill="#b1785d"/><path d="m253.191406 288.011719-24.152344 7.433593c-6.886718 2.117188-10.75 9.417969-8.632812 16.300782 2.121094 6.886718 9.417969 10.75 16.304688 8.632812l24.152343-7.433594c6.886719-2.117187 10.75-9.417968 8.632813-16.304687-2.121094-6.882813-9.417969-10.746094-16.304688-8.628906zm0 0" fill="#dfae96"/><path d="m0 452.851562v33.597657c0 9.625 5.410156 18.433593 13.996094 22.785156 7.265625 3.6875 15.851562 3.6875 23.117187 0l2.433594-1.234375c7.265625-3.683594 15.851563-3.683594 23.121094 0l2.429687 1.234375c7.269532 3.6875 15.855469 3.6875 23.121094 0l2.433594-1.234375c7.265625-3.683594 15.851562-3.683594 23.117187 0l2.433594 1.234375c7.265625 3.6875 15.855469 3.6875 23.121094 0l2.433593-1.234375c7.265626-3.683594 15.851563-3.683594 23.117188 0l2.433594 1.234375c7.265625 3.6875 15.855468 3.6875 23.121094 0l2.433593-1.234375c7.265625-3.683594 15.851563-3.683594 23.117188 0l2.433593 1.234375c7.265626 3.6875 15.855469 3.6875 23.121094 0l2.433594-1.234375c7.265625-3.683594 15.851562-3.683594 23.117188 0l2.433593 1.234375c7.265625 3.6875 15.855469 3.6875 23.121094 0l2.433594-1.234375c7.265625-3.683594 15.851562-3.683594 23.117187 0l2.433594 1.234375c7.265625 3.6875 15.855469 3.6875 23.121094 0l2.433594-1.234375c7.265624-3.683594 15.851562-3.683594 23.117187 0l2.433594 1.234375c7.265625 3.6875 15.855469 3.6875 23.121093 0l2.433594-1.234375c7.265625-3.683594 15.851563-3.683594 23.117188 0l2.433594 1.234375c7.265624 3.6875 15.855468 3.6875 23.121093 0 8.582031-4.351563 13.992188-13.160156 13.992188-22.785156v-33.597657zm0 0" fill="#dfae96"/><path d="m255.527344 147.65625c.09375-7.351562.152344-14.929688.152344-22.765625h-226.164063c0 7.875-.039063 15.449219-.113281 22.765625zm0 0" fill="#b1785d"/></svg>