<?xml version="1.0" encoding="iso-8859-1"?>
<!-- Generator: Adobe Illustrator 19.0.0, SVG Export Plug-In . SVG Version: 6.00 Build 0)  -->
<svg xmlns="http://www.w3.org/2000/svg" xmlns:xlink="http://www.w3.org/1999/xlink" version="1.1" id="Layer_1" x="0px" y="0px" viewBox="0 0 511.875 511.875" style="enable-background:new 0 0 511.875 511.875;" xml:space="preserve" width="512" height="512">
<g>
	
		<rect x="337.717" y="353.717" transform="matrix(0.7071 0.7071 -0.7071 0.7071 383.424 -158.2336)" style="fill:#465A61;" width="90" height="60"/>
	<polygon style="fill:#596C76;" points="250.982,418.718 101.824,511.875 61.519,471.57 72.125,439.75 40.306,450.356 0,410.051    93.157,260.893  "/>
	<polygon style="fill:#465A61;" points="250.982,418.718 101.824,511.875 61.519,471.57 72.125,439.75 172.07,339.805  "/>
	<polygon style="fill:#596C76;" points="417.718,251.982 259.893,94.157 410.051,0 450.356,40.306 439.75,72.125 471.57,61.519    511.875,101.824  "/>
	<polygon style="fill:#465A61;" points="417.718,251.982 338.805,173.07 439.75,72.125 471.57,61.519 511.875,101.824  "/>
	<path style="fill:#FFD396;" d="M340.29,341.29l20.576,41.789c-26.304,22.063-57.472,34.578-90.14,37.547l-8.484-53.032   l-21.213,53.033c-32.669-2.97-64.716-15.485-91.02-37.548l20.576-41.789l-41.789,20.576c-50.912-60.669-50.912-150.189,0-210.858   l41.789,20.576l-20.576-41.789c26.304-22.063,58.351-34.578,91.02-37.548l19.091,42.425l10.607-42.426   c32.669,2.97,63.836,15.487,90.142,37.548l-20.577,41.791l41.791-20.577c50.911,60.671,50.911,150.19-0.001,210.859L340.29,341.29z   "/>
	<path style="fill:#FFB64C;" d="M340.29,341.29l20.576,41.789c-26.304,22.063-57.472,34.578-90.14,37.547l-8.484-53.032   l-21.213,53.033c-32.669-2.97-64.716-15.485-91.02-37.548l20.576-41.789L340.29,171.585l41.791-20.577   c50.911,60.671,50.911,150.19-0.001,210.859L340.29,341.29z"/>
	<path style="fill:#FFB64C;" d="M202.405,330.684l-52.396,52.396c-3.818-2.969-7.638-6.364-11.244-9.97   c-3.606-3.606-7.001-7.425-9.97-11.244l52.396-52.396L202.405,330.684z"/>
	<path style="fill:#FFB64C;" d="M382.081,151.007l-52.397,52.397l-21.213-21.213l52.397-52.397c3.817,2.97,7.636,6.365,11.242,9.971   C375.716,143.371,379.111,147.19,382.081,151.007z"/>
	<path style="fill:#FF9100;" d="M240.878,346.428v74.218c9.977,0.901,20.019,0.901,29.997,0v-74.218H240.878z"/>
	<path style="fill:#FFB64C;" d="M270.875,166.447V92.23c-9.977-0.901-20.019-0.901-29.997,0v74.218H270.875z"/>
	<path style="fill:#FF9100;" d="M308.471,330.684l52.496,52.496c3.816-3.181,7.564-6.489,11.144-10.069s6.888-7.328,10.069-11.144   l-52.496-52.496L308.471,330.684z"/>
	<path style="fill:#FFB64C;" d="M202.405,182.191l-52.496-52.496c-3.816,3.181-7.564,6.489-11.144,10.069   s-6.888,7.328-10.069,11.144l52.496,52.496L202.405,182.191z"/>
	
		<rect x="42.125" y="424.75" transform="matrix(0.7071 -0.7071 0.7071 0.7071 -289.8251 179.8001)" style="fill:#465A61;" width="60" height="30"/>
	
		<rect x="408.543" y="57.625" transform="matrix(0.7071 -0.7071 0.7071 0.7071 77.2994 331.868)" style="fill:#465A61;" width="61.414" height="30"/>
	
		<rect x="437.053" y="47.222" transform="matrix(0.7071 0.7071 -0.7071 0.7071 185.3105 -291.5218)" style="fill:#3B4A51;" width="15" height="61.414"/>
	<path style="fill:#FF9100;" d="M329.684,203.405l-10.607-10.607l53.033-53.033c3.606,3.606,7.001,7.425,9.971,11.242   L329.684,203.405z"/>
	<path style="fill:#FF9100;" d="M191.798,320.077l10.607,10.607l-52.396,52.396c-3.818-2.969-7.638-6.364-11.244-9.97   L191.798,320.077z"/>
	
		<rect x="69.929" y="415.053" transform="matrix(-0.7071 -0.7071 0.7071 -0.7071 -182.521 814.5037)" style="fill:#3B4A51;" width="15" height="60"/>
	<path style="fill:#596C76;" d="M329.684,182.191c-40.941-40.941-107.551-40.941-148.492,0s-40.941,107.551,0,148.492   s107.551,40.941,148.492,0S370.625,223.133,329.684,182.191z"/>
	<path style="fill:#465A61;" d="M329.684,330.684c-40.941,40.941-107.551,40.941-148.492,0l148.492-148.492   C370.625,223.133,370.625,289.743,329.684,330.684z"/>
	<polygon style="fill:#FFD396;" points="297.864,277.651 276.651,298.864 234.224,256.438 276.651,214.011 297.864,235.224    276.651,256.438  "/>
	<polygon style="fill:#FFB64C;" points="297.864,277.651 276.651,298.864 244.831,267.044 287.257,224.618 297.864,235.224    276.651,256.438  "/>
</g>















</svg>
