<?xml version="1.0" encoding="iso-8859-1"?>
<!-- Generator: Adobe Illustrator 19.0.0, SVG Export Plug-In . SVG Version: 6.00 Build 0)  -->
<svg xmlns="http://www.w3.org/2000/svg" xmlns:xlink="http://www.w3.org/1999/xlink" version="1.1" id="Capa_1" x="0px" y="0px" viewBox="0 0 455 455" style="enable-background:new 0 0 455 455;" xml:space="preserve" width="512" height="512">
<g>
	<rect x="10" y="325.38" style="fill:#BD1515;" width="47.07" height="50"/>
	<rect x="397.93" y="325.38" style="fill:#BD1515;" width="47.07" height="50"/>
	<path style="fill:#F2EBD9;" d="M455,193.21L347.42,78.28c-5.64-6.03-16.9-12.11-25.03-13.52c0,0-0.21-0.04-0.22,0H132.83   c-0.01-0.04-0.22,0-0.22,0c-8.13,1.41-19.39,7.49-25.03,13.52L0,193.21v142.17c0,5.5,4.5,10,10,10h47.07c5.5,0,10-4.5,10-10V233.01   l50.76-53.48c7.279-7.665,212.061-7.665,219.34,0l50.76,53.48v102.37c0,5.5,4.5,10,10,10H445c5.5,0,10-4.5,10-10V193.21L455,193.21   L455,193.21z"/>
	<polygon style="fill:#F2484B;" points="127.83,405.38 127.83,435.38 227.498,435.38 237.498,395.38  "/>
	<polygon style="fill:#F2484B;" points="324.66,405.38 227.498,395.38 227.498,435.38 324.66,435.38  "/>
	<polygon style="fill:#BD1515;" points="232.387,365.86 127.83,375.38 127.83,405.38 324.66,405.38 324.66,375.38  "/>
	<path style="fill:#F2484B;" d="M173.6,57.63l-40.78,7.09c0.01,0.04,0.01,77.81,0.01,77.81c0,16.35-5.19,26.67-15,37v185.85   c0,5.5,4.5,10,10,10h99.668l10-317.751L173.6,57.63z"/>
	<path style="fill:#BD1515;" d="M322.17,142.53V64.76c0.01-0.04-40.78-7.13-40.78-7.13H227.5l-0.002,317.75h99.672   c5.5,0,10-4.5,10-10V179.53C327.36,169.2,322.17,158.88,322.17,142.53z"/>
	<path style="fill:#BD1515;" d="M170.329,315.637c0-4.142-3.357-7.5-7.5-7.5H117.83v15h44.999   C166.972,323.137,170.329,319.779,170.329,315.637z"/>
	<path style="fill:#F2484B;" d="M337.17,308.137h-45.003c-4.143,0-7.5,3.358-7.5,7.5s3.357,7.5,7.5,7.5h45.003V308.137z"/>
	<polyline style="fill:#BD1515;" points="227.5,87.63 278.01,19.62 176.99,19.62  "/>
	<path style="fill:#F2484B;" d="M227.5,87.63c0-55.25,50.51-68.01,50.51-68.01l3.38,38.01L227.5,87.63z"/>
	<path style="fill:#FF6E1D;" d="M176.99,19.62c0,0,50.51,12.76,50.51,68.01l-53.9-30L176.99,19.62z"/>
</g>















</svg>
