<?xml version="1.0" encoding="iso-8859-1"?>
<!-- Generator: Adobe Illustrator 19.0.0, SVG Export Plug-In . SVG Version: 6.00 Build 0)  -->
<svg version="1.1" id="Layer_1" xmlns="http://www.w3.org/2000/svg" xmlns:xlink="http://www.w3.org/1999/xlink" x="0px" y="0px"
	 viewBox="0 0 512 512" style="enable-background:new 0 0 512 512;" xml:space="preserve">
<rect x="154.442" y="419.941" style="fill:#4D3A2D;" width="203.116" height="55.08"/>
<path style="fill:#AE8372;" d="M439.901,119.153l-66.182-67.797l-24.297-5.78L256,94.454l-93.422-48.878l-24.297,5.78
	l-66.182,67.797L60.283,252.73l77.998-75.112l22.756,54.402l-22.756,54.402v140.566c0,8.925,7.235,16.16,16.16,16.16h203.117
	c8.925,0,16.16-7.235,16.16-16.16v-149.1l-22.756-45.867l22.756-54.402l77.998,75.112L439.901,119.153z"/>
<polygon style="fill:#FFCE6E;" points="138.281,186.151 138.281,277.887 256,286.422 373.719,277.887 373.719,186.151 256,177.618 
	"/>
<g>
	<rect x="16.16" y="350.855" style="fill:#4D3A2D;" width="39.779" height="55.08"/>
	<rect x="456.055" y="350.855" style="fill:#4D3A2D;" width="39.779" height="55.08"/>
</g>
<g>
	<path style="fill:#735643;" d="M0,357.451c0,8.925,7.235,16.16,16.16,16.16h39.779c8.925,0,16.16-7.235,16.16-16.16V119.153
		L0,193.01V357.451z"/>
	<path style="fill:#735643;" d="M439.901,357.451c0,8.925,7.235,16.16,16.16,16.16h39.779c8.925,0,16.16-7.235,16.16-16.16V193.01
		l-72.099-73.857V357.451z"/>
</g>
<path style="fill:#4D3A2D;" d="M256,100.143c59.364,0,87.885-44.761,93.422-54.567l-36.139-8.597c0,0-16.845,29.654-57.283,29.654
	s-57.283-29.654-57.283-29.654l-36.139,8.597C168.115,55.381,196.636,100.143,256,100.143z"/>
<g>
	<rect x="138.286" y="277.89" style="fill:#735643;" width="235.44" height="17.067"/>
	<rect x="138.286" y="169.084" style="fill:#735643;" width="235.44" height="17.067"/>
</g>
<path style="fill:#4D3A2D;" d="M373.719,209.487l-39.243,24.862l-34.677-21.969c-2.788-1.767-6.347-1.766-9.134,0.001l-34.67,21.968
	l-34.673-21.968c-2.789-1.767-6.347-1.767-9.134,0l-34.67,21.968l-39.236-24.862v20.204l34.669,21.968
	c2.788,1.767,6.347,1.767,9.134,0l34.67-21.968l34.673,21.968c2.789,1.769,6.347,1.767,9.134,0l34.672-21.968l34.676,21.969
	c1.394,0.883,2.981,1.324,4.567,1.324c1.586,0,3.173-0.441,4.567-1.324l34.676-21.969V209.487z"/>
<g>
</g>
<g>
</g>
<g>
</g>
<g>
</g>
<g>
</g>
<g>
</g>
<g>
</g>
<g>
</g>
<g>
</g>
<g>
</g>
<g>
</g>
<g>
</g>
<g>
</g>
<g>
</g>
<g>
</g>
</svg>
