<?xml version="1.0" encoding="iso-8859-1"?>
<!-- Generator: Adobe Illustrator 19.0.0, SVG Export Plug-In . SVG Version: 6.00 Build 0)  -->
<svg xmlns="http://www.w3.org/2000/svg" xmlns:xlink="http://www.w3.org/1999/xlink" version="1.1" id="Layer_1" x="0px" y="0px" viewBox="0 0 512 512" style="enable-background:new 0 0 512 512;" xml:space="preserve" width="512" height="512">
<g>
	<polygon style="fill:#68544F;" points="189.3,361 144.3,451 65.7,451 35.7,391 68.101,361  "/>
	<polygon style="fill:#3E322E;" points="135,361 189.3,361 144.3,451 135,451  "/>
	<path style="fill:#7FE881;" d="M486.765,402.4c-23.401,30.899-59.401,48.6-98.101,48.6h-78.764c-55.801,0-110.4-21.901-150.901-60   H35.7l-10.201-20.7C8.699,336.7,0,300.399,0,262.599C0,236.499,4.2,211,12.599,186.4L30,121l55.499-28.801h104.401L240,121   l29.7,54.6l79.501,83.099c23.699,12.601,46.363,16.8,53.563,11.1c13.5-10.8,21.301-26.699,21.301-43.799L420,189.699l56.564,52.8   c6.301,6,12.001,12.9,17.1,20.7c6.301,8.699,10.8,18.6,13.5,30.3C517.964,331.599,510.464,371.199,486.765,402.4z"/>
	<path style="fill:#5BC980;" d="M486.765,402.4c-23.401,30.899-59.401,48.6-98.101,48.6h-78.764c-55.801,0-110.4-21.901-150.901-60   h-24V92.199h54.901L240,121l29.7,54.6l79.501,83.099c23.699,12.601,46.363,16.8,53.563,11.1c13.5-10.8,21.301-26.699,21.301-43.799   L420,189.699l56.564,52.8c6.301,6,12.001,12.9,17.1,20.7c6.301,8.699,10.8,18.6,13.5,30.3   C517.964,331.599,510.464,371.199,486.765,402.4z"/>
	<polygon style="fill:#FFE56A;" points="338.101,209.2 316.875,212.875 317.1,188.2 274.501,145.6 189.6,230.499 295.499,336.4    380.4,251.499  "/>
	<polygon style="fill:#3E322E;" points="274.497,188.031 232.017,230.497 295.503,293.983 337.983,251.503  "/>
	<g>
		<path style="fill:#5BC980;" d="M30,61v60h210V61H30z"/>
	</g>
	<rect x="135" y="61" style="fill:#00AB5E;" width="105" height="60"/>
	<g>
		<polygon style="fill:#FFC73A;" points="338.101,209.2 295.499,251.499 274.501,230.499 317.1,188.2   "/>
	</g>
</g>















</svg>
