<?xml version="1.0" encoding="iso-8859-1"?>
<!-- Generator: Adobe Illustrator 21.0.0, SVG Export Plug-In . SVG Version: 6.00 Build 0)  -->
<svg xmlns="http://www.w3.org/2000/svg" xmlns:xlink="http://www.w3.org/1999/xlink" version="1.1" id="Capa_1" x="0px" y="0px" viewBox="0 0 497 497" style="enable-background:new 0 0 497 497;" xml:space="preserve" width="512" height="512">
<g>
	<g>
		<g>
			<path style="fill:#FFDC6E;" d="M383.467,0.015C446.17,0.015,497,50.836,497,113.527c0,56.675-23.651,104.436-36.222,162.251     c-12.571,57.815,6.285,96.778,6.285,137.626c0,46.161-37.427,83.581-83.596,83.581h0.931c-46.169,0-83.596-37.421-83.596-83.581     c0-40.848,18.856-79.811,6.285-137.626c-12.571-57.815-36.222-105.576-36.222-162.251c0-62.691,50.83-113.512,113.533-113.512     L383.467,0.015z"/>
			<g>
				<path style="fill:#FFCA52;" d="M384.398,496.985c-0.156,0-0.309-0.011-0.465-0.012c-0.156,0.001-0.309,0.012-0.465,0.012      H384.398z"/>
				<path style="fill:#FFCA52;" d="M383.468,0.015c0.156,0,0.31,0.005,0.465,0.006c0.156-0.001,0.31-0.006,0.465-0.006H383.468z"/>
				<path style="fill:#FFCA52;" d="M460.778,275.778C473.349,217.963,497,170.202,497,113.527      C497,50.991,446.42,0.272,383.933,0.021c-7.529,0.03-14.885,0.793-22,2.221C413.874,12.666,453,58.526,453,113.527      c0,56.675-23.651,104.436-36.222,162.251c-12.571,57.815,6.285,96.778,6.285,137.626c0,38.376-25.877,70.688-61.131,80.503      c7.008,1.951,14.38,3.025,22,3.066c45.954-0.252,83.131-37.565,83.131-83.569C467.063,372.556,448.207,333.594,460.778,275.778z      "/>
			</g>
			<g>
				<g>
					<path style="fill:#3FD14D;" d="M383.732,114.186c-4.143,0-7.5-3.357-7.5-7.5V73.571c0-4.143,3.357-7.5,7.5-7.5       s7.5,3.357,7.5,7.5v33.114C391.232,110.828,387.875,114.186,383.732,114.186z"/>
				</g>
				<g>
					<path style="fill:#86DF75;" d="M384.737,130.867c60.661,30.542,67.652,87.2,66.103,112.143       c-0.447,7.193,4.375,13.648,11.418,15.183l0,0c8.64,1.882,16.98-4.307,17.606-13.126c2.359-33.245-3.487-108.648-95.73-149.382       h-0.402c-92.243,40.734-98.09,116.137-95.73,149.382c0.626,8.819,8.966,15.008,17.606,13.126h0       c7.043-1.534,11.865-7.99,11.418-15.183C315.476,218.067,324.076,161.41,384.737,130.867z"/>
				</g>
				<g>
					<path style="fill:#3FD14D;" d="M384.134,95.686h-0.402c-5.764,2.545-23.232,10.829-32.232,17.829c35,19,70,36,87.403,70.728       c11.128,22.765,12.771,45.353,11.938,58.768c-0.447,7.193,4.375,13.648,11.418,15.183c8.64,1.882,16.98-4.307,17.606-13.126       C482.224,211.823,476.377,136.419,384.134,95.686z"/>
				</g>
			</g>
		</g>
		<g>
			<path style="fill:#FFB429;" d="M382.99,467.516c-3.672,0-6.881-2.699-7.415-6.44c-0.585-4.095,2.255-7.889,6.346-8.482     c1.574-0.236,36.748-5.909,42.691-39.871c0.715-4.08,4.604-6.806,8.681-6.095c4.08,0.714,6.809,4.601,6.095,8.681     c-6.279,35.881-38.937,49.79-55.327,52.132C383.701,467.49,383.344,467.516,382.99,467.516z"/>
		</g>
	</g>
	<g>
		<g>
			<path style="fill:#FFDC6E;" d="M112.602,0.015c62.702,0,113.533,50.821,113.533,113.512c0,56.675-23.651,104.436-36.222,162.251     c-12.571,57.815,6.285,96.778,6.285,137.626c0,46.161-37.427,83.581-83.596,83.581h0.931c-46.169,0-83.596-37.421-83.596-83.581     c0-40.848,18.856-79.811,6.285-137.626S0,170.202,0,113.527C0,50.836,50.83,0.015,113.533,0.015L112.602,0.015z"/>
			<g>
				<path style="fill:#FFCA52;" d="M113.532,496.985c-0.156,0-0.309-0.011-0.465-0.012c-0.156,0.001-0.309,0.012-0.465,0.012      H113.532z"/>
				<path style="fill:#FFCA52;" d="M189.912,275.778c12.571-57.815,36.222-105.576,36.222-162.251      c0-62.535-50.579-113.255-113.067-113.506c-7.529,0.03-14.885,0.793-22,2.221c51.941,10.425,91.067,56.285,91.067,111.286      c0,56.675-23.651,104.436-36.222,162.251c-12.571,57.815,6.286,96.778,6.286,137.626c0,38.376-25.878,70.688-61.131,80.503      c7.008,1.951,14.38,3.025,22,3.066c45.954-0.252,83.131-37.565,83.131-83.569C196.198,372.556,177.342,333.594,189.912,275.778z      "/>
				<path style="fill:#FFCA52;" d="M112.602,0.015c0.156,0,0.31,0.005,0.465,0.006c0.156-0.001,0.31-0.006,0.465-0.006H112.602z"/>
			</g>
			<g>
				<g>
					<path style="fill:#86DF75;" d="M113.872,130.867c60.661,30.542,67.652,87.2,66.103,112.143       c-0.447,7.193,4.375,13.648,11.418,15.183h0c8.64,1.882,16.98-4.307,17.606-13.126c2.359-33.245-3.487-108.648-95.73-149.382       h-0.402c-92.243,40.734-98.09,116.137-95.73,149.382c0.626,8.819,8.966,15.008,17.606,13.126h0       c7.043-1.534,11.865-7.99,11.418-15.183C44.611,218.067,53.211,161.41,113.872,130.867z"/>
				</g>
				<g>
					<path style="fill:#86DF75;" d="M112.866,114.186c-4.143,0-7.5-3.357-7.5-7.5V73.571c0-4.143,3.357-7.5,7.5-7.5       s7.5,3.357,7.5,7.5v33.114C120.366,110.828,117.009,114.186,112.866,114.186z"/>
				</g>
			</g>
		</g>
		<g>
			<path style="fill:#FFB429;" d="M110.99,467.516c-3.672,0-6.881-2.699-7.415-6.44c-0.585-4.095,2.255-7.889,6.346-8.482     c1.574-0.236,36.748-5.909,42.691-39.871c0.715-4.08,4.604-6.806,8.681-6.095c4.08,0.714,6.809,4.601,6.095,8.681     c-6.279,35.881-38.937,49.79-55.327,52.132C111.701,467.49,111.344,467.516,110.99,467.516z"/>
		</g>
	</g>
	<g>
		<path style="fill:#3FD14D;" d="M112.732,114.186c-4.143,0-7.5-3.357-7.5-7.5V73.571c0-4.143,3.357-7.5,7.5-7.5s7.5,3.357,7.5,7.5    v33.114C120.232,110.828,116.875,114.186,112.732,114.186z"/>
	</g>
	<g>
		<path style="fill:#3FD14D;" d="M113.134,95.686h-0.402c-5.764,2.545-23.232,10.829-32.232,17.829c35,19,70,36,87.403,70.728    c11.128,22.765,12.771,45.353,11.938,58.768c-0.447,7.193,4.375,13.648,11.418,15.183c8.64,1.882,16.98-4.307,17.606-13.126    C211.224,211.823,205.377,136.419,113.134,95.686z"/>
	</g>
</g>















</svg>
