<svg height="448pt" viewBox="0 -8 448 448" width="448pt" xmlns="http://www.w3.org/2000/svg"><path d="m352 432h-256v-352l-24-48 72-32h160l72 32-24 48zm0 0" fill="#f55648"/><path d="m144 184h160v120h-160zm0 0" fill="#fbedbf"/><path d="m72 32-72 136 96 48v-136zm0 0" fill="#c7463b"/><path d="m376 32 72 136-96 48v-136zm0 0" fill="#c7463b"/><path d="m224 104c-39.765625 0-72-32.234375-72-72v-32h144v32c0 39.765625-32.234375 72-72 72zm0 0" fill="#d9d9d9"/><path d="m184 0h80v32c0 22.089844-17.910156 40-40 40s-40-17.910156-40-40zm0 0" fill="#dc4d41"/><path d="m144 152h32v40h-32zm0 0" fill="#d9d9d9"/><path d="m144 176h32v40h-32zm0 0" fill="#cdcdcd"/><path d="m272 152h32v40h-32zm0 0" fill="#d9d9d9"/><path d="m272 176h32v40h-32zm0 0" fill="#cdcdcd"/><path d="m96 400h256v32h-256zm0 0" fill="#d9d9d9"/><path d="m16 136 80 40v40l-96-48zm0 0" fill="#d9d9d9"/><path d="m432 136-80 40v40l96-48zm0 0" fill="#d9d9d9"/><g fill="#c7463b"><path d="m312 360h16v16h-16zm0 0"/><path d="m280 360h16v16h-16zm0 0"/><path d="m248 360h16v16h-16zm0 0"/></g><path d="m184 0h80v32h-80zm0 0" fill="#b94137"/><path d="m144 184h160v32h-160zm0 0" fill="#4799cf"/></svg>